<svg width="16" height="16" viewBox="0 0 16 16" fill="none" xmlns="http://www.w3.org/2000/svg">
<g clip-path="url(#clip0_55_322)">
<path d="M13.9981 8.93072L12.2291 3.578L6.76407 2.41586L7.44329 4.47107L9.58488 4.92898C9.67172 4.95356 9.70323 5.0489 9.64032 5.09673L7.92542 7.04147C7.87033 7.11295 7.79202 7.1118 7.73689 7.10378L5.20086 6.56392C5.12184 6.563 5.08251 6.444 5.14543 6.39617L6.59311 4.75204L5.91388 2.69683L2.19323 6.89475L3.96224 12.2475L5.37043 10.6426L4.67533 8.5394C4.65164 8.46772 4.72991 8.38937 4.78504 8.39739L7.32107 8.93725C7.40791 8.96182 7.44744 9.00204 7.47113 9.07372L8.29227 11.5583C8.31596 11.63 8.23721 11.7093 8.18208 11.7013L6.04025 11.2427L4.63206 12.8475L10.1052 14.034L13.8022 9.84391L11.7148 9.39353L10.2688 11.0379C10.2137 11.1094 10.1268 11.0848 10.0953 10.9895L9.27394 8.50415C9.25025 8.43247 9.27387 8.34515 9.31337 8.30585L11.028 6.36039C11.0834 6.28963 11.1692 6.31372 11.201 6.40978L11.8959 8.5123L13.9981 8.93072Z" fill="#FB762B"/>
</g>
<defs>
<clipPath id="clip0_55_322">
<rect width="12.0798" height="12.0798" fill="white" transform="translate(0.592041 4.45557) rotate(-18.2881)"/>
</clipPath>
</defs>
</svg>
