<svg width="26" height="25" viewBox="0 0 26 25" fill="none" xmlns="http://www.w3.org/2000/svg">
<path d="M24.9621 18.8696C24.6741 18.5593 23.6572 17.6418 21.7878 16.4281C19.9046 15.2037 18.5158 14.4403 18.1174 14.2623C18.0823 14.2465 18.0436 14.2408 18.0055 14.2456C17.9674 14.2504 17.9313 14.2656 17.9011 14.2896C17.2594 14.7958 16.179 15.7255 16.1211 15.7757C15.747 16.1 15.747 16.1 15.4408 15.9989C14.9022 15.8204 13.2293 14.9219 11.7715 13.4442C10.3137 11.9665 9.37954 10.2326 9.20297 9.68851C9.102 9.37824 9.102 9.37824 9.42368 8.99988C9.47334 8.94128 10.3931 7.84862 10.8936 7.20017C10.9173 7.16963 10.9324 7.13313 10.9372 7.09459C10.9419 7.05604 10.9362 7.01692 10.9206 6.98141C10.7446 6.57794 9.9898 5.17388 8.77921 3.26926C7.57745 1.37914 6.67144 0.350654 6.36466 0.0593512C6.3365 0.0324827 6.30171 0.0137915 6.26393 0.00524705C6.22616 -0.00329741 6.1868 -0.00137868 6.15002 0.0108009C5.07763 0.383514 4.04295 0.859092 3.06009 1.43104C2.11127 1.98888 1.213 2.63034 0.375717 3.34794C0.34649 3.37307 0.324577 3.40578 0.312329 3.44254C0.300082 3.47931 0.297961 3.51876 0.306194 3.55665C0.421514 4.10019 0.972735 6.36923 2.68323 9.51217C4.42849 12.7198 5.63797 14.3633 8.20095 16.9465C10.7639 19.5297 12.4402 20.8266 15.6151 22.5918C18.7227 24.3217 20.9673 24.8798 21.5036 24.9953C21.5412 25.0035 21.5802 25.0014 21.6167 24.989C21.6531 24.9766 21.6855 24.9545 21.7106 24.925C22.42 24.0782 23.054 23.1697 23.6053 22.2101C24.1707 21.216 24.641 20.1695 25.0096 19.085C25.0214 19.048 25.0232 19.0086 25.0149 18.9707C25.0065 18.9329 24.9883 18.8979 24.9621 18.8696Z" fill="white"/>
</svg>
