<svg width="15" height="3" viewBox="0 0 15 3" fill="none" xmlns="http://www.w3.org/2000/svg">
<path d="M1.96044 0.941162L2.18726 1.63923H2.92125L2.32744 2.07065L2.55425 2.76872L1.96044 2.33729L1.36663 2.76872L1.59345 2.07065L0.99964 1.63923H1.73363L1.96044 0.941162Z" fill="#222222"/>
<path d="M4.78918 0.941162L5.01599 1.63923H5.74998L5.15617 2.07065L5.38299 2.76872L4.78918 2.33729L4.19537 2.76872L4.42219 2.07065L3.82838 1.63923H4.56236L4.78918 0.941162Z" fill="#222222"/>
<path d="M7.61791 0.941162L7.84473 1.63923H8.57872L7.98491 2.07065L8.21172 2.76872L7.61791 2.33729L7.02411 2.76872L7.25092 2.07065L6.65711 1.63923H7.3911L7.61791 0.941162Z" fill="#222222"/>
<path d="M10.4465 0.941162L10.6733 1.63923H11.4073L10.8135 2.07065L11.0403 2.76872L10.4465 2.33729L9.85272 2.76872L10.0795 2.07065L9.48572 1.63923H10.2197L10.4465 0.941162Z" fill="#222222"/>
<path d="M13.2753 0.941162L13.5021 1.63923H14.2361L13.6423 2.07065L13.8691 2.76872L13.2753 2.33729L12.6815 2.76872L12.9083 2.07065L12.3145 1.63923H13.0484L13.2753 0.941162Z" fill="#222222" fill-opacity="0.5"/>
</svg>
