<svg width="30" height="30" viewBox="0 0 30 30" fill="none" xmlns="http://www.w3.org/2000/svg">
<ellipse cx="12.1895" cy="12.4922" rx="12.1895" ry="12.4922" transform="matrix(0.974792 0.223114 -0.218363 0.975868 6.0542 0.0251465)" fill="#2765FA"/>
<path d="M11.897 12.7962L11.8757 12.8917C11.5852 14.1985 11.2946 15.5055 11.0041 16.8123C10.9386 17.1067 11.0565 17.2968 11.3463 17.3636C12.4963 17.6285 13.6466 17.8935 14.7966 18.1584C14.8153 18.1627 14.8342 18.1671 14.8529 18.1714C14.9615 18.1971 15.0109 18.2574 14.9922 18.3415C14.9735 18.4256 14.903 18.4592 14.7947 18.4343C13.6124 18.1619 12.43 17.8905 11.248 17.6168C10.8667 17.5285 10.6525 17.1796 10.7392 16.7889C11.1253 15.0491 11.512 13.3095 11.8993 11.5698C11.9872 11.1741 12.3272 10.9556 12.7141 11.0429C12.9179 11.0889 13.1212 11.1367 13.3373 11.1864C13.3585 11.0914 13.3767 10.9991 13.3997 10.9077C13.4645 10.6497 13.7035 10.4802 13.965 10.5046C14.2141 10.5281 14.418 10.7406 14.4347 10.9997C14.4385 11.0576 14.4304 11.1174 14.4205 11.1749C14.4069 11.2546 14.3865 11.3333 14.3677 11.4178L15.3974 11.655C15.4158 11.5724 15.4332 11.4908 15.4519 11.4097C15.5224 11.106 15.7976 10.9238 16.0857 10.9902C16.3742 11.0566 16.5459 11.3409 16.4812 11.6461C16.4644 11.7258 16.4459 11.8049 16.4267 11.891L17.4563 12.1281C17.4731 12.0522 17.4901 11.9737 17.508 11.8956C17.579 11.583 17.85 11.3982 18.141 11.4637C18.4364 11.5301 18.6058 11.8163 18.5371 12.1336C18.5205 12.2099 18.5032 12.286 18.484 12.3721C18.588 12.396 18.6863 12.4182 18.7844 12.4412C18.9236 12.4742 19.0667 12.4961 19.2009 12.5437C19.5293 12.6602 19.6985 12.9914 19.6195 13.3476C19.3718 14.4657 19.1227 15.5833 18.8741 16.7012C18.8717 16.7122 18.8695 16.7232 18.8668 16.7341C18.8441 16.818 18.7823 16.8622 18.7093 16.8472C18.6335 16.8316 18.5913 16.7614 18.6107 16.6724C18.6955 16.2859 18.7818 15.8997 18.8677 15.5132C18.9456 15.1628 19.0235 14.8123 19.1027 14.4561L11.897 12.7962ZM11.9597 12.5221L19.1631 14.1815C19.2343 13.8613 19.3105 13.5479 19.3718 13.2317C19.4106 13.0315 19.2743 12.8371 19.0787 12.7863C18.9775 12.76 18.8752 12.7387 18.7734 12.715C18.6593 12.6888 18.5451 12.6624 18.4258 12.635C18.4065 12.7219 18.39 12.7982 18.3726 12.8743C18.3013 13.1868 18.0304 13.3712 17.7393 13.306C17.4444 13.2399 17.2747 12.9529 17.3435 12.6363C17.3604 12.558 17.3783 12.48 17.3956 12.4018L16.3659 12.1646C16.3464 12.2524 16.3288 12.3368 16.309 12.4206C16.2385 12.7174 15.9615 12.8967 15.6764 12.8308C15.3916 12.7651 15.2178 12.4811 15.2804 12.1825C15.298 12.0982 15.3177 12.0143 15.3367 11.9289L14.307 11.6917C14.2889 11.7731 14.2723 11.8497 14.255 11.9258C14.1837 12.2383 13.9128 12.4226 13.6217 12.3574C13.3268 12.2911 13.1571 12.0043 13.2259 11.6878C13.2428 11.6095 13.2606 11.5314 13.2787 11.4502C13.0477 11.397 12.8291 11.3413 12.6083 11.2973C12.4223 11.2603 12.223 11.3785 12.1752 11.566C12.0951 11.8806 12.0316 12.1998 11.9599 12.5222L11.9597 12.5221ZM14.0808 11.4923C14.1082 11.3691 14.1356 11.2457 14.163 11.1225C14.1642 11.117 14.1654 11.1115 14.1667 11.106C14.1964 10.9518 14.1108 10.8108 13.9675 10.7788C13.8236 10.7463 13.6874 10.8357 13.652 10.9902C13.593 11.2472 13.536 11.5048 13.4802 11.7627C13.4467 11.9175 13.5313 12.0589 13.6739 12.0934C13.8198 12.1286 13.9575 12.0375 13.9949 11.8788C14.025 11.7504 14.0523 11.6215 14.0812 11.4926L14.0808 11.4923ZM16.1398 11.9666C16.1684 11.8379 16.1988 11.7094 16.2253 11.5803C16.2568 11.4264 16.1695 11.2853 16.0263 11.253C15.8826 11.2209 15.7462 11.3102 15.711 11.4646C15.652 11.7215 15.595 11.9791 15.5392 12.2371C15.5057 12.3919 15.5906 12.5333 15.7332 12.5675C15.8791 12.6028 16.0168 12.5117 16.054 12.3526C16.0841 12.2243 16.1114 12.0953 16.1401 11.9664L16.1398 11.9666ZM17.6842 12.3219C17.6562 12.448 17.6275 12.5739 17.6002 12.6998C17.5644 12.8659 17.6473 13.0099 17.7964 13.0431C17.9426 13.0753 18.0769 12.9832 18.1136 12.8223C18.1707 12.5704 18.2267 12.3186 18.2817 12.0662C18.3168 11.9051 18.234 11.7628 18.0883 11.7283C17.9388 11.6929 17.8045 11.7857 17.7664 11.9521C17.7381 12.0751 17.7116 12.1987 17.6842 12.3219Z" fill="white"/>
<path d="M17.2711 15.9669C18.1871 16.1749 18.772 17.1177 18.5658 18.0536C18.3581 18.9959 17.4409 19.5968 16.5271 19.3895C15.5879 19.1764 15.0087 18.243 15.2201 17.2829C15.4256 16.3495 16.3483 15.7573 17.2711 15.9669ZM15.475 17.3525C15.2966 18.1478 15.7897 18.9433 16.573 19.1242C17.344 19.3023 18.1265 18.8001 18.3042 18.013C18.4843 17.2151 18.0005 16.4147 17.2287 16.2337C16.4351 16.0476 15.6562 16.5446 15.475 17.3525Z" fill="white"/>
<path d="M12.8367 14.6693C12.751 14.6495 12.6646 14.6317 12.5796 14.6096C12.4353 14.5722 12.352 14.438 12.3822 14.289C12.4088 14.1571 12.438 14.0256 12.4699 13.8946C12.5067 13.7422 12.6384 13.6586 12.7901 13.6914C12.9594 13.7284 13.1283 13.767 13.2964 13.8081C13.4455 13.8445 13.5288 13.9798 13.4973 14.1334C13.4711 14.2626 13.4423 14.3912 13.4115 14.5194C13.3738 14.6767 13.2423 14.7593 13.086 14.7262C13.0025 14.7084 12.9199 14.6882 12.8368 14.6688L12.8367 14.6693ZM12.6436 14.3423L13.1484 14.4586L13.2338 14.0745L12.729 13.9583L12.6436 14.3423Z" fill="white"/>
<path d="M14.5948 14.1048C14.6751 14.1233 14.756 14.1406 14.836 14.1606C14.9856 14.1983 15.0698 14.3315 15.0389 14.485C15.0123 14.6169 14.9832 14.7485 14.9512 14.8794C14.9149 15.0275 14.7833 15.1126 14.6371 15.0814C14.465 15.0448 14.2934 15.0051 14.1226 14.9629C13.9741 14.9262 13.8927 14.7902 13.9246 14.6355C13.9513 14.5064 13.9797 14.3777 14.0105 14.2495C14.0472 14.0964 14.1782 14.0128 14.3296 14.0442C14.4183 14.0626 14.5065 14.0845 14.595 14.1049L14.5948 14.1048ZM14.6914 14.8149L14.7774 14.4282L14.2719 14.3118L14.1859 14.6985L14.6914 14.8149Z" fill="white"/>
<path d="M15.9233 15.3759C15.8376 15.3562 15.7515 15.3382 15.6663 15.3163C15.5175 15.2783 15.4348 15.1438 15.4665 14.99C15.4929 14.8609 15.5215 14.7322 15.5523 14.604C15.5889 14.4504 15.7195 14.3647 15.87 14.397C16.0419 14.4341 16.2136 14.4734 16.3845 14.5155C16.5287 14.5513 16.6115 14.6869 16.5814 14.8363C16.5548 14.9681 16.5256 15.0997 16.4938 15.2306C16.4569 15.3823 16.3245 15.4649 16.1728 15.4332C16.0892 15.4158 16.0067 15.3951 15.9235 15.376L15.9233 15.3759ZM15.8148 14.6636L15.7293 15.048L16.2339 15.1643L16.3194 14.7798L15.8148 14.6636Z" fill="white"/>
<path d="M17.6649 14.8071C17.7506 14.8269 17.8366 14.8451 17.9219 14.8668C18.0707 14.9045 18.1535 15.0388 18.122 15.1929C18.0955 15.322 18.0669 15.4507 18.0362 15.5789C17.9993 15.7324 17.8684 15.8183 17.7182 15.786C17.5462 15.7492 17.3745 15.7099 17.2037 15.6675C17.0595 15.6318 16.9768 15.4957 17.007 15.3466C17.0336 15.2147 17.0629 15.0832 17.0947 14.9523C17.1317 14.8002 17.2633 14.7181 17.4156 14.7499C17.4991 14.7676 17.5817 14.788 17.6649 14.8071ZM17.8614 15.1349L17.3566 15.0186L17.2711 15.4031L17.7759 15.5194L17.8614 15.1349Z" fill="white"/>
<path d="M13.8455 17.394C13.7652 17.3754 13.6846 17.3578 13.6043 17.3384C13.4443 17.2992 13.3609 17.1664 13.3948 17.0037C13.4213 16.8773 13.4491 16.7515 13.4788 16.6258C13.5163 16.4676 13.647 16.3832 13.8028 16.4172C13.9693 16.4535 14.1355 16.492 14.3011 16.532C14.4559 16.5693 14.5399 16.7034 14.5075 16.8612C14.4811 16.9903 14.4525 17.119 14.4217 17.2472C14.3847 17.4002 14.2539 17.4841 14.1027 17.453C14.0166 17.4352 13.9312 17.4139 13.8455 17.3942L13.8455 17.394ZM13.6548 17.0687L14.16 17.185L14.2453 16.8015L13.74 16.6851L13.6548 17.0687Z" fill="white"/>
<path d="M12.3041 17.0406C12.2238 17.0221 12.1432 17.0044 12.0629 16.985C11.9031 16.9459 11.8195 16.8131 11.8536 16.6504C11.8802 16.524 11.9079 16.3981 11.9377 16.2725C11.9753 16.1145 12.1059 16.0299 12.2617 16.0642C12.4282 16.1007 12.5944 16.139 12.7601 16.179C12.9147 16.2162 12.9988 16.3505 12.9662 16.5083C12.9398 16.6374 12.9112 16.7661 12.8804 16.8943C12.8435 17.0473 12.7124 17.1312 12.5613 17.0998C12.4751 17.082 12.3897 17.0608 12.304 17.041L12.3041 17.0406ZM12.1131 16.7136L12.6207 16.8305L12.706 16.4469L12.1983 16.33L12.1131 16.7136Z" fill="white"/>
<path d="M12.7796 14.9356C12.8627 14.9547 12.9459 14.9725 13.0287 14.9932C13.1789 15.0308 13.2636 15.1636 13.2327 15.3167C13.2061 15.4486 13.1769 15.5801 13.1451 15.711C13.109 15.8592 12.9774 15.9452 12.8318 15.9142C12.657 15.877 12.4827 15.8373 12.3094 15.7937C12.1698 15.7585 12.0878 15.6224 12.1166 15.4776C12.1434 15.3427 12.1733 15.2086 12.2061 15.0751C12.2415 14.9312 12.3719 14.8474 12.5141 14.8751C12.603 14.8926 12.691 14.9154 12.7796 14.9356ZM12.8851 15.647L12.9709 15.2612L12.4663 15.145L12.3805 15.5308L12.8851 15.647Z" fill="white"/>
<path d="M14.3296 15.2911C14.41 15.3096 14.4908 15.3269 14.5708 15.3469C14.7205 15.3846 14.8047 15.5178 14.7737 15.6713C14.7471 15.8032 14.7181 15.9348 14.6861 16.0656C14.6497 16.2138 14.5181 16.2989 14.372 16.2677C14.1999 16.2311 14.0283 16.1913 13.8575 16.1492C13.7089 16.1124 13.6276 15.9765 13.6595 15.8218C13.6862 15.6927 13.7146 15.564 13.7453 15.4358C13.7821 15.2827 13.9131 15.1991 14.0644 15.2305C14.1532 15.2488 14.2413 15.2708 14.3298 15.2912L14.3296 15.2911ZM14.0089 15.4954L13.9228 15.8827L14.4246 15.9983L14.5108 15.611L14.0089 15.4954Z" fill="white"/>
<path d="M15.5483 15.8455L15.4622 16.2327C15.4762 16.2429 15.492 16.253 15.5063 16.265C15.56 16.31 15.5754 16.3678 15.5443 16.4303C15.5136 16.4923 15.4592 16.5153 15.3916 16.5006C15.2664 16.4734 15.1723 16.3349 15.1971 16.2C15.2239 16.0539 15.2561 15.9082 15.2941 15.7646C15.3288 15.6341 15.4589 15.5537 15.5896 15.5806C15.7648 15.6163 15.9387 15.658 16.1124 15.7005C16.193 15.7203 16.2342 15.7909 16.2157 15.8649C16.1973 15.9385 16.131 15.9786 16.0479 15.9604C15.884 15.9245 15.7208 15.8855 15.548 15.8457L15.5483 15.8455Z" fill="white"/>
<path d="M16.5227 18.0894C16.56 18.0666 16.586 18.0516 16.611 18.0355C16.976 17.8002 17.3405 17.5649 17.7055 17.3296C17.7287 17.3146 17.7518 17.2983 17.7772 17.2884C17.8424 17.2633 17.8975 17.2815 17.9344 17.341C17.9713 17.4005 17.9634 17.4594 17.9134 17.5088C17.8939 17.528 17.8695 17.5425 17.8464 17.5572C17.4328 17.8242 17.0193 18.091 16.6055 18.3577C16.4771 18.4405 16.4257 18.4282 16.3442 18.2961C16.2197 18.0946 16.0925 17.8948 15.9735 17.69C15.949 17.6479 15.9364 17.5787 15.9526 17.5354C15.9916 17.4309 16.122 17.4342 16.1874 17.5371C16.2844 17.6898 16.3784 17.8448 16.4732 17.9991C16.4891 18.0252 16.5026 18.0527 16.5225 18.0892L16.5227 18.0894Z" fill="white"/>
</svg>
