<svg width="31" height="14" viewBox="0 0 31 14" fill="none" xmlns="http://www.w3.org/2000/svg">
<path d="M1.40088 11.8018C1.29207 11.4575 1.48179 11.0866 1.82464 10.9733L22.8927 4.01055C23.2356 3.89724 23.6017 4.08447 23.7105 4.42873C23.8193 4.773 23.6296 5.14394 23.2867 5.25724L2.21868 12.22C1.87583 12.3333 1.50969 12.1461 1.40088 11.8018Z" fill="white"/>
<path d="M21.2808 5.17268C21.1674 4.81373 21.3644 4.42449 21.7219 4.30634L28.951 1.91721C29.3085 1.79906 29.691 1.99675 29.8045 2.35571C29.918 2.71467 29.721 3.10391 29.3635 3.22205L22.1344 5.61119C21.7769 5.72933 21.3943 5.53164 21.2808 5.17268Z" fill="#0044AB"/>
<ellipse cx="1.91904" cy="1.84433" rx="1.91904" ry="1.84433" transform="matrix(0.949727 -0.313874 0.215059 0.976176 19.9594 3.73584)" fill="white"/>
<ellipse cx="1.15143" cy="1.1066" rx="1.15143" ry="1.1066" transform="matrix(0.949727 -0.313874 0.215059 0.976176 20.8472 4.21484)" fill="#2363DF"/>
</svg>
