<svg width="74" height="105" viewBox="0 0 74 105" fill="none" xmlns="http://www.w3.org/2000/svg">
<circle cx="15.9368" cy="2.21489" r="2.21489" fill="#4A7ECC" fill-opacity="0.8"/>
<circle cx="2.21489" cy="2.21489" r="2.21489" fill="#4A7ECC" fill-opacity="0.8"/>
<circle cx="2.21489" cy="13.2819" r="2.21489" fill="#4A7ECC" fill-opacity="0.8"/>
<circle cx="2.21489" cy="24.3489" r="2.21489" fill="#4A7ECC" fill-opacity="0.8"/>
<circle cx="2.21489" cy="35.4159" r="2.21489" fill="#4A7ECC" fill-opacity="0.8"/>
<circle cx="2.21489" cy="46.4829" r="2.21489" fill="#4A7ECC" fill-opacity="0.8"/>
<circle cx="2.21489" cy="57.5499" r="2.21489" fill="#4A7ECC" fill-opacity="0.8"/>
<circle cx="2.21489" cy="68.6169" r="2.21489" fill="#4A7ECC" fill-opacity="0.8"/>
<circle cx="2.21489" cy="79.6839" r="2.21489" fill="#4A7ECC" fill-opacity="0.8"/>
<circle cx="2.21489" cy="90.7508" r="2.21489" fill="#4A7ECC" fill-opacity="0.8"/>
<circle cx="2.21489" cy="101.818" r="2.21489" fill="#4A7ECC" fill-opacity="0.8"/>
<circle cx="29.6587" cy="2.21489" r="2.21489" fill="#4A7ECC" fill-opacity="0.8"/>
<circle cx="43.3807" cy="2.21489" r="2.21489" fill="#4A7ECC" fill-opacity="0.8"/>
<circle cx="57.1026" cy="2.21489" r="2.21489" fill="#21E8F4"/>
<circle cx="70.8245" cy="2.21489" r="2.21489" fill="#4A7ECC" fill-opacity="0.8"/>
<circle cx="70.8245" cy="13.2819" r="2.21489" fill="#4A7ECC" fill-opacity="0.8"/>
<circle cx="70.8245" cy="24.3489" r="2.21489" fill="#4A7ECC" fill-opacity="0.8"/>
<circle cx="70.8245" cy="35.4159" r="2.21489" fill="#4A7ECC" fill-opacity="0.8"/>
<circle cx="70.8245" cy="46.4829" r="2.21489" fill="#4A7ECC" fill-opacity="0.8"/>
<circle cx="70.8245" cy="57.5499" r="2.21489" fill="#4A7ECC" fill-opacity="0.8"/>
<circle cx="70.8245" cy="68.6169" r="2.21489" fill="#4A7ECC" fill-opacity="0.8"/>
<circle cx="70.8245" cy="79.6839" r="2.21489" fill="#4A7ECC" fill-opacity="0.8"/>
<circle cx="70.8245" cy="90.7508" r="2.21489" fill="#4A7ECC" fill-opacity="0.8"/>
<circle cx="70.8245" cy="101.818" r="2.21489" fill="#4A7ECC" fill-opacity="0.8"/>
<circle cx="15.9368" cy="13.2819" r="2.21489" fill="#4A7ECC" fill-opacity="0.8"/>
<circle cx="29.6587" cy="13.2819" r="2.21489" fill="#4A7ECC" fill-opacity="0.8"/>
<circle cx="43.3807" cy="13.2819" r="2.21489" fill="#4A7ECC" fill-opacity="0.8"/>
<circle cx="57.1026" cy="13.2819" r="2.21489" fill="#21E8F4"/>
<circle cx="15.9368" cy="24.3489" r="2.21489" fill="#4A7ECC" fill-opacity="0.8"/>
<circle cx="29.6587" cy="24.3489" r="2.21489" fill="#4A7ECC" fill-opacity="0.8"/>
<circle cx="43.3807" cy="24.3489" r="2.21489" fill="#4A7ECC" fill-opacity="0.8"/>
<circle cx="57.1026" cy="24.3489" r="2.21489" fill="#4A7ECC" fill-opacity="0.8"/>
<circle cx="15.9368" cy="35.4159" r="2.21489" fill="#21E8F4"/>
<circle cx="29.6587" cy="35.4159" r="2.21489" fill="#4A7ECC" fill-opacity="0.8"/>
<circle cx="43.3807" cy="35.4159" r="2.21489" fill="#4A7ECC" fill-opacity="0.8"/>
<circle cx="57.1026" cy="35.4159" r="2.21489" fill="#4A7ECC" fill-opacity="0.8"/>
<circle cx="15.9368" cy="46.4829" r="2.21489" fill="#21E8F4"/>
<circle cx="15.9368" cy="57.5499" r="2.21489" fill="#4A7ECC" fill-opacity="0.8"/>
<circle cx="15.9368" cy="68.6169" r="2.21489" fill="#4A7ECC" fill-opacity="0.8"/>
<circle cx="15.9368" cy="79.6839" r="2.21489" fill="#4A7ECC" fill-opacity="0.8"/>
<circle cx="15.9368" cy="90.7508" r="2.21489" fill="#4A7ECC" fill-opacity="0.8"/>
<circle cx="15.9368" cy="101.818" r="2.21489" fill="#4A7ECC" fill-opacity="0.8"/>
<circle cx="29.6587" cy="46.4829" r="2.21489" fill="#21E8F4"/>
<circle cx="29.6587" cy="57.5499" r="2.21489" fill="#21E8F4"/>
<circle cx="29.6587" cy="68.6169" r="2.21489" fill="#21E8F4"/>
<circle cx="29.6587" cy="79.6839" r="2.21489" fill="#21E8F4"/>
<circle cx="29.6587" cy="90.7508" r="2.21489" fill="#4A7ECC" fill-opacity="0.8"/>
<circle cx="29.6587" cy="101.818" r="2.21489" fill="#4A7ECC" fill-opacity="0.8"/>
<circle cx="43.3807" cy="46.4829" r="2.21489" fill="#4A7ECC" fill-opacity="0.8"/>
<circle cx="43.3807" cy="57.5499" r="2.21489" fill="#446EB2"/>
<circle cx="43.3807" cy="68.6169" r="2.21489" fill="#4771B5"/>
<circle cx="43.3807" cy="79.6839" r="2.21489" fill="#4A7ECC" fill-opacity="0.8"/>
<circle cx="43.3807" cy="90.7508" r="2.21489" fill="#4A7ECC" fill-opacity="0.8"/>
<circle cx="43.3807" cy="101.818" r="2.21489" fill="#4A7ECC" fill-opacity="0.8"/>
<circle cx="57.1026" cy="46.4829" r="2.21489" fill="#4A7ECC" fill-opacity="0.8"/>
<circle cx="57.1026" cy="57.5499" r="2.21489" fill="#4A7ECC" fill-opacity="0.8"/>
<circle cx="57.1026" cy="68.6169" r="2.21489" fill="#4A7ECC" fill-opacity="0.8"/>
<circle cx="57.1026" cy="79.6839" r="2.21489" fill="#4A7ECC" fill-opacity="0.8"/>
<circle cx="57.1026" cy="90.7508" r="2.21489" fill="#4A7ECC" fill-opacity="0.8"/>
<circle cx="57.1026" cy="101.818" r="2.21489" fill="#21E8F4"/>
</svg>
