<svg width="107" height="106" viewBox="0 0 107 106" fill="none" xmlns="http://www.w3.org/2000/svg">
<rect x="0.5" width="106" height="106" rx="15" fill="#512B81"/>
<path d="M25.5496 30.5338C27.6335 28.2709 30.0966 26.496 32.7196 24.9235C36.7041 22.5535 41.1241 21.008 45.7173 20.3785C47.3857 20.1378 49.0732 19.8948 50.7757 20.0653L50.7885 35.3173C50.4966 35.4878 50.1706 35.4388 49.8552 35.4473C47.0766 35.5357 44.3485 36.2141 41.8521 37.4375C39.7724 38.4198 37.9698 39.7813 36.2929 41.341C34.2701 39.3125 32.2473 37.284 30.2245 35.2556C29.0611 34.0964 27.8806 32.9565 26.7066 31.808L25.5496 30.5338Z" fill="#AD3EF8"/>
<path d="M86.4662 55.7749C86.3874 63.9442 83.8965 71.2826 78.8914 77.7495C78.0368 78.9011 77.0774 79.971 76.0255 80.9456C75.8635 80.8114 75.6888 80.6878 75.5418 80.5408C72.2505 77.2537 68.9606 73.9638 65.6721 70.6711C65.5299 70.5157 65.3962 70.3528 65.2715 70.1831C66.6309 68.6554 67.8881 67.0552 68.8448 65.2291C70.4024 62.246 71.0437 59.0605 71.2206 55.7451C72.4394 55.7451 73.6561 55.7451 74.8749 55.7451L86.4662 55.7749Z" fill="#9DCB6B"/>
<path d="M65.2715 70.1746C65.3961 70.3443 65.5299 70.5072 65.672 70.6625C68.9577 73.9539 72.2476 77.2438 75.5418 80.5323C75.6888 80.6793 75.8635 80.8029 76.0254 80.9371C74.9387 82.1367 73.786 83.2575 72.3904 84.1013L72.1645 84.2696H72.1773C72.0388 84.2696 71.9109 84.2845 71.8491 84.4337C71.4464 84.3762 71.1417 84.6233 70.8115 84.7789C66.3795 86.8798 61.679 87.8493 56.808 88.088C54.7945 88.1881 52.8022 87.8749 50.7993 87.7769C50.7993 83.9074 50.7936 80.0372 50.7822 76.1663C55.0121 76.1333 59.1314 74.8117 62.5909 72.3778C63.5391 71.713 64.3318 70.8564 65.2715 70.1746Z" fill="#B4DF8C"/>
<path d="M69.1624 23.0462C70.249 21.218 72.3841 20.7024 74.0631 21.9084C74.4893 22.2152 74.6896 22.1705 75.0284 21.8274C77.0419 19.7883 79.0598 17.7513 81.116 15.7526C82.2027 14.6872 83.381 13.7604 84.93 13.4088C86.2613 13.1179 87.6488 13.2284 88.9172 13.7264C90.1856 14.2244 91.2777 15.0875 92.0553 16.2065C92.8265 17.3125 93.2432 18.6268 93.2501 19.9752C93.2569 21.3235 92.8536 22.642 92.0937 23.7558C90.9708 25.4157 89.4899 26.7602 88.0814 28.1643C87.0842 29.1573 86.102 30.1673 85.0515 31.1005C84.4677 31.6205 84.1566 32.0743 84.7638 32.7476C84.5081 32.9756 84.2354 33.1866 83.9989 33.4337C83.0422 34.4224 80.7132 34.4331 79.9291 33.7384C79.4135 33.2825 78.8787 32.8499 78.3907 32.3662C75.5497 29.5408 72.7158 26.7083 69.8889 23.8687C69.6375 23.613 69.4095 23.3232 69.1624 23.0462Z" fill="#F16674"/>
<path d="M50.7928 35.3173L50.78 20.0632C54.057 20.0611 57.3186 20.5107 60.4729 21.3992C63.3452 22.1961 66.0363 23.4042 68.6487 24.8084C68.7412 25.7918 69.1916 26.7069 69.9143 27.3802C70.2489 27.7148 70.5536 28.0727 70.8838 28.4222L69.2772 30.0245L61.6981 37.5376C61.4573 37.7762 61.2528 38.0852 60.8458 38.0298C57.7391 36.2165 54.3469 35.4665 50.7928 35.3173Z" fill="#82BBF3"/>
<path d="M26.7109 31.808C27.8849 32.9564 29.0654 34.0964 30.2288 35.2555C32.2572 37.2783 34.2801 39.3068 36.2972 41.341C32.4256 45.4193 30.4163 50.2412 30.3523 55.8707H20.3377H15.0918C15.0807 55.8467 15.075 55.8205 15.075 55.794C15.075 55.7675 15.0807 55.7414 15.0918 55.7173C16.6323 55.7173 18.1729 55.7173 19.7113 55.7173C20.1737 55.7173 20.457 55.6449 20.2269 55.0781C20.185 54.9249 20.172 54.7652 20.1886 54.6072C20.1374 51.5112 20.1886 48.4279 20.8278 45.3703C21.8147 40.4866 23.8192 35.8655 26.7109 31.808Z" fill="#F16674"/>
<path d="M86.4662 55.7749L74.8748 55.7408C73.656 55.7408 72.4394 55.7408 71.2206 55.7408C70.9585 55.5106 71.0778 55.1996 71.0544 54.9226C71.0117 54.3984 71.0544 53.8742 70.9862 53.3458C70.7838 51.6412 70.2852 50.0154 69.7844 48.3854C70.2319 48.4557 70.445 48.1105 70.7007 47.8548C73.644 44.9186 76.5844 41.9781 79.522 39.0334C79.9482 38.6073 80.3552 38.1513 80.7728 37.7102L81.7252 37.7805C83.6429 41.1642 85.0599 44.7375 85.7737 48.5601C86.2425 50.9359 86.6324 53.3309 86.4662 55.7749Z" fill="#B1E4FA"/>
<path d="M50.7907 76.1578C50.7907 80.0273 50.7964 83.8975 50.8078 87.7684C50.8078 88.9872 50.8021 90.206 50.7907 91.4248H50.7162L50.6395 91.4141C50.6395 90.3487 50.6288 89.2833 50.6395 88.2286C50.6395 87.8216 50.5564 87.6341 50.0855 87.5745C49.1446 87.4477 48.2118 87.2662 47.292 87.0311C43.6345 86.1422 40.1448 84.6678 36.9578 82.6652C34.3433 81.0032 31.8887 79.1409 29.8943 76.7416C30.1478 76.4732 30.395 76.1962 30.655 75.9319C32.5372 74.0299 34.4208 72.1271 36.3058 70.2236C40.3692 74.059 45.1762 76.1024 50.7907 76.1578Z" fill="#FEDD76"/>
<path d="M15.0938 55.8708H20.3398C20.4633 57.2617 20.6768 58.6432 20.979 60.0066C21.5761 62.912 22.5638 65.7231 23.9152 68.3635C25.4378 71.4245 27.3989 74.2469 29.7365 76.7416L25.4515 80.9307C21.6309 77.1755 18.742 72.5783 17.0158 67.5069C15.7139 63.7439 14.9745 59.8745 15.0938 55.8708Z" fill="#F06F3A"/>
<path d="M25.4517 80.9307L29.7366 76.7416H29.8155H29.8943C31.8887 79.1494 34.3434 81.0159 36.9578 82.6737C40.1456 84.6798 43.6368 86.157 47.2963 87.0481C48.2161 87.2832 49.1488 87.4647 50.0897 87.5915C50.5606 87.6511 50.6501 87.8386 50.6437 88.2456C50.6288 89.311 50.6437 90.3764 50.6437 91.4311C46.5697 91.5313 42.6363 90.777 38.8116 89.4325C33.9682 87.7314 29.5553 84.9919 25.8821 81.4059C25.7287 81.2524 25.5923 81.0862 25.4517 80.9307Z" fill="#FECB66"/>
<path d="M26.7109 31.808C23.8174 35.8699 21.8128 40.4963 20.8279 45.3852C20.1887 48.4407 20.146 51.5261 20.1887 54.6221C20.1721 54.7801 20.1851 54.9398 20.227 55.093C20.4571 55.6491 20.1737 55.7322 19.7114 55.7322C18.173 55.7195 16.6324 55.7322 15.0919 55.7322C14.9747 50.7228 16.0592 45.9584 18.0749 41.3943C19.8712 37.3032 22.3088 33.6426 25.5603 30.5487C25.9417 30.9578 26.3253 31.3818 26.7109 31.808Z" fill="#DA5769"/>
<path d="M81.7252 37.7763L80.7728 37.7059C79.7074 37.2372 78.968 36.3273 78.0837 35.6178C75.7285 33.1759 73.3286 30.7802 70.8839 28.4307C70.56 28.0813 70.2446 27.7233 69.9144 27.3888C69.1917 26.7155 68.7413 25.8003 68.6487 24.8169C68.736 24.2033 68.7638 23.5704 69.1622 23.0462C69.4072 23.3232 69.6374 23.613 69.8973 23.8751C72.727 26.7161 75.5609 29.5486 78.3991 32.3726C78.887 32.8563 79.4218 33.2889 79.9375 33.7448C80.7216 34.4395 83.0506 34.4288 84.0073 33.4401C84.2438 33.193 84.5165 32.982 84.7722 32.754C86.0166 34.7016 84.6081 37.5142 82.1982 37.7209C82.0406 37.7336 81.8829 37.7486 81.7252 37.7763Z" fill="#DA5769"/>
<path d="M50.7908 91.4247C50.7908 90.2059 50.7965 88.9871 50.8078 87.7683C52.8107 87.8642 54.803 88.1796 56.8166 88.0794C61.6875 87.8408 66.388 86.8713 70.82 84.7703C71.1503 84.6148 71.4592 84.3676 71.8577 84.4251C71.2653 85.2029 70.3853 85.6035 69.5884 86.0935C63.8247 89.6285 57.5858 91.5121 50.7908 91.4247Z" fill="#9DCB6B"/>
<path d="M71.8491 84.4273C71.9109 84.2781 72.0388 84.2611 72.1773 84.2632C72.154 84.3274 72.107 84.3802 72.0459 84.4108C71.9849 84.4413 71.9144 84.4472 71.8491 84.4273Z" fill="#9DCB6B"/>
<path d="M47.7608 57.1535C47.4561 56.5313 47.9377 56.1669 48.2637 55.8025C48.8667 55.1314 49.5251 54.5113 50.1707 53.8849C50.4051 53.6547 50.4925 53.4949 50.2495 53.1583C49.1373 51.6156 49.2907 50.0942 50.6224 48.6432C53.8186 45.1594 57.2278 41.8993 60.5838 38.5732C60.6676 38.5132 60.7351 38.4333 60.7801 38.3406C60.8251 38.248 60.8463 38.1455 60.8416 38.0426C61.2528 38.098 61.4574 37.789 61.6939 37.5504L69.273 30.0373C70.918 31.6545 72.5459 33.2888 74.2143 34.8784C74.6916 35.3323 74.7022 35.5922 74.2143 36.0652C68.1373 42.1081 62.0746 48.1645 56.0261 54.2343C55.0672 55.1931 53.7632 55.7045 52.7234 54.9929C51.1423 53.9104 50.5116 54.9502 49.6401 55.8196C49.1053 56.3672 48.6536 57.081 47.7608 57.1535Z" fill="#ECEAF1"/>
<path d="M47.7607 57.1535C48.6535 57.081 49.1052 56.3672 49.6549 55.8153C50.5264 54.946 51.1465 53.8976 52.7382 54.9886C53.778 55.7003 55.082 55.1889 56.0409 54.23C62.0965 48.1659 68.1592 42.1095 74.2291 36.061C74.7064 35.5879 74.6957 35.328 74.2291 34.8741C72.5607 33.2846 70.9328 31.6503 69.2878 30.033L70.8944 28.4307C73.3391 30.7816 75.7391 33.1773 78.0943 35.6178C77.9025 35.8309 77.7193 36.0631 77.5147 36.2677C74.7035 39.0845 71.8909 41.8993 69.0769 44.7119C68.8383 44.9527 68.5293 45.1381 68.4739 45.5259C68.101 45.5259 67.9412 45.8476 67.7239 46.0628C64.532 49.2433 61.3443 52.4288 58.161 55.6193C56.6481 57.1279 55.244 57.3239 53.3838 56.2585C53.0493 56.0646 52.8852 56.103 52.6487 56.3459C52.0393 56.9851 51.4277 57.6009 50.7906 58.1997C50.2068 58.7473 49.4951 58.9476 48.7366 58.6556C48.4271 58.5539 48.1617 58.3495 47.9842 58.0763C47.8067 57.8032 47.7279 57.4776 47.7607 57.1535Z" fill="#DAD7E4"/>
<path d="M30.3525 55.8708C30.4612 61.4299 32.4833 66.1922 36.3059 70.2151C34.4223 72.1172 32.5387 74.0199 30.6551 75.9234C30.3951 76.1876 30.1479 76.4646 29.8944 76.7331H29.8155H29.7367C27.3992 74.2418 25.4374 71.423 23.9133 68.3656C22.5625 65.7272 21.5748 62.9183 20.9771 60.0151C20.6749 58.6518 20.4614 57.2703 20.3379 55.8793L30.3525 55.8708Z" fill="#F7834B"/>
<path d="M68.4634 45.5259C68.5188 45.1466 68.8277 44.9527 69.0664 44.7119C71.8776 41.895 74.6902 39.0803 77.5042 36.2677C77.7173 36.0546 77.892 35.8415 78.0838 35.6178C78.9681 36.3273 79.6989 37.2372 80.7728 37.7059C80.3467 38.147 79.9504 38.6009 79.5221 39.0292C76.5859 41.9739 73.6454 44.9143 70.7007 47.8505C70.445 48.1062 70.2319 48.4514 69.7845 48.3811C69.3455 47.4294 68.9052 46.4776 68.4634 45.5259Z" fill="#9FDAF2"/>
</svg>
