<svg width="63" height="78" viewBox="0 0 63 78" fill="none" xmlns="http://www.w3.org/2000/svg">
<g opacity="0.5">
<circle cx="4.1087" cy="4.1087" r="4.1087" fill="#B5B5B5" fill-opacity="0.8"/>
<circle cx="22.3694" cy="4.1087" r="4.1087" fill="#B5B5B5" fill-opacity="0.8"/>
<circle cx="40.6304" cy="4.1087" r="4.1087" fill="#B5B5B5" fill-opacity="0.8"/>
<circle cx="58.8914" cy="4.1087" r="4.1087" fill="#B5B5B5" fill-opacity="0.8"/>
<circle cx="4.1087" cy="21.4565" r="4.1087" fill="#B5B5B5" fill-opacity="0.8"/>
<circle cx="22.3694" cy="21.4565" r="4.1087" fill="#B5B5B5" fill-opacity="0.8"/>
<circle cx="40.6304" cy="21.4565" r="4.1087" fill="#B5B5B5" fill-opacity="0.8"/>
<circle cx="58.8914" cy="21.4565" r="4.1087" fill="#B5B5B5" fill-opacity="0.8"/>
<circle cx="4.1087" cy="38.8043" r="4.1087" fill="#B5B5B5" fill-opacity="0.8"/>
<circle cx="22.3694" cy="38.8043" r="4.1087" fill="#B5B5B5" fill-opacity="0.8"/>
<circle cx="40.6304" cy="38.8043" r="4.1087" fill="#B5B5B5" fill-opacity="0.8"/>
<circle cx="58.8914" cy="38.8043" r="4.1087" fill="#B5B5B5" fill-opacity="0.8"/>
<circle cx="4.1087" cy="56.1522" r="4.1087" fill="#B5B5B5" fill-opacity="0.8"/>
<circle cx="22.3694" cy="56.1522" r="4.1087" fill="#B5B5B5" fill-opacity="0.8"/>
<circle cx="40.6304" cy="56.1522" r="4.1087" fill="#B5B5B5" fill-opacity="0.8"/>
<circle cx="58.8914" cy="56.1522" r="4.1087" fill="#B5B5B5" fill-opacity="0.8"/>
<circle cx="4.1087" cy="73.5" r="4.1087" fill="#B5B5B5" fill-opacity="0.8"/>
<circle cx="22.3694" cy="73.5" r="4.1087" fill="#B5B5B5" fill-opacity="0.8"/>
<circle cx="40.6304" cy="73.5" r="4.1087" fill="#B5B5B5" fill-opacity="0.8"/>
<circle cx="58.8914" cy="73.5" r="4.1087" fill="#B5B5B5" fill-opacity="0.8"/>
</g>
</svg>
