<svg width="69" height="73" viewBox="0 0 69 73" fill="none" xmlns="http://www.w3.org/2000/svg">
<path d="M24.6047 59.9612C24.6047 59.2231 24.5727 58.483 24.6047 57.7487C24.6877 56.1809 24.0107 55.1262 22.7019 54.2908C17.233 50.7929 13.7197 45.8339 12.3902 39.414C9.7953 26.8869 17.5366 14.81 29.885 11.9872C42.4258 9.12629 54.9798 17.5546 57.3125 30.3982C58.1662 35.0007 57.617 39.7569 55.7378 44.0366C53.8586 48.3164 50.738 51.9176 46.7896 54.3633C45.5412 55.1396 44.9358 56.1657 44.9811 57.6515C45.0301 59.244 45.0037 60.8385 44.9811 62.433C44.9641 64.3231 44.1212 65.6907 42.4371 66.5413C42.3283 66.6065 42.2342 66.6939 42.1608 66.7981C42.0874 66.9022 42.0364 67.0207 42.0109 67.1459C41.5809 70.4951 39.3387 72.5245 35.9951 72.513C34.7052 72.513 33.3946 72.5683 32.1292 72.37C29.6625 71.9885 27.7918 69.818 27.6183 67.3042C27.5862 66.8637 27.4297 66.6615 27.0393 66.4669C25.574 65.746 24.7235 64.5444 24.6236 62.8831C24.5651 61.9123 24.6141 60.9339 24.6141 59.9593L24.6047 59.9612ZM42.456 59.0896C42.456 58.7558 42.4748 58.4964 42.456 58.2408C42.2391 55.4085 43.4687 53.5107 45.7995 51.9162C52.8129 47.1232 56.0396 40.3219 54.9439 31.823C53.4353 20.0474 42.6049 12.2943 31.041 14.3904C22.2908 15.9773 15.2604 23.5873 14.5514 32.4753C13.8743 40.9589 17.1915 47.5638 24.2162 52.2195C26.1624 53.5069 27.1808 55.2006 27.1487 57.5466C27.1487 58.0558 27.1487 58.567 27.1487 59.0896H42.456ZM27.2449 61.714C26.8941 63.3981 27.622 64.3308 29.2703 64.3346C32.9602 64.3346 36.6508 64.3346 40.3419 64.3346C41.9845 64.3346 42.7011 63.4019 42.3598 61.7159L27.2449 61.714ZM30.1924 66.9056C30.1919 67.6896 30.4917 68.4434 31.029 69.0085C31.5664 69.5736 32.2993 69.9062 33.074 69.9363C34.2243 69.9821 35.3785 69.9821 36.5269 69.9363C38.1506 69.8733 39.4632 68.481 39.3821 66.9037H30.1924V66.9056Z" fill="white"/>
<path d="M48.6016 11.9167C47.4946 11.9167 46.8195 10.963 47.2438 10.1639C48.1735 8.40729 49.173 6.68501 50.1895 4.97799C50.5421 4.38673 51.2399 4.28374 51.8132 4.60607C51.955 4.68031 52.0808 4.78218 52.1835 4.90581C52.2862 5.02944 52.3637 5.1724 52.4116 5.32645C52.4594 5.48049 52.4767 5.6426 52.4623 5.80341C52.448 5.96423 52.4023 6.12059 52.328 6.2635C51.3851 7.98005 50.4101 9.69661 49.3918 11.375C49.2126 11.6764 48.7695 11.8118 48.6016 11.9167Z" fill="white"/>
<path d="M64.4787 18.1135C64.3373 18.3042 64.1317 18.7658 63.7772 18.9871C62.2176 19.9579 60.6241 20.8715 59.0287 21.7812C58.3253 22.1818 57.6124 21.972 57.256 21.3464C57.1695 21.1972 57.114 21.0318 57.0928 20.8602C57.0715 20.6886 57.0851 20.5144 57.1325 20.3483C57.18 20.1822 57.2604 20.0276 57.3688 19.8939C57.4773 19.7602 57.6115 19.6502 57.7633 19.5707C59.3398 18.6266 60.9239 17.6958 62.5231 16.7937C63.4359 16.2825 64.4467 16.8509 64.4787 18.1135Z" fill="white"/>
<path d="M33.5416 4.11974C33.5416 3.2176 33.5303 2.31355 33.5416 1.4114C33.5549 0.553122 34.0603 -0.00190239 34.7957 4.90008e-06C35.5312 0.00191219 36.0592 0.551213 36.0687 1.40949C36.0913 3.21506 36.0913 5.01998 36.0687 6.82427C36.0687 7.67302 35.5142 8.2433 34.7957 8.2452C34.0772 8.24711 33.5549 7.67302 33.5416 6.82618C33.5303 5.92404 33.5416 5.02189 33.5416 4.11974Z" fill="white"/>
<path d="M6.5214 16.5629C6.77897 16.6601 7.03082 16.7722 7.27573 16.8986C8.74291 17.7454 10.2069 18.5998 11.6678 19.4619C12.4957 19.9502 12.7446 20.6673 12.3486 21.3521C11.9526 22.0368 11.2284 22.1684 10.3836 21.6782C8.85606 20.7881 7.33231 19.8981 5.81233 19.008C5.54189 18.8753 5.32993 18.6456 5.21769 18.3636C5.10545 18.0815 5.10096 17.7674 5.20509 17.4822C5.37293 16.8871 5.83119 16.6258 6.5214 16.5629Z" fill="white"/>
<path d="M4.8015 35.7216C3.90951 35.7216 3.01751 35.733 2.12552 35.7216C1.28255 35.7063 0.726228 35.1876 0.73 34.4494C0.73 33.7456 1.26746 33.183 2.06328 33.1696C3.89442 33.141 5.72556 33.1372 7.5567 33.1696C8.39778 33.1849 8.91073 33.7704 8.87678 34.5276C8.83907 35.2505 8.32046 35.7063 7.48504 35.7197C6.58739 35.733 5.6935 35.7216 4.8015 35.7216Z" fill="white"/>
<path d="M64.888 33.2021C65.78 33.2021 66.672 33.1849 67.5621 33.2021C68.4069 33.2212 68.9614 33.7514 68.9538 34.4838C68.9463 35.2162 68.4126 35.7369 67.6092 35.7502C65.78 35.7769 63.9488 35.7788 62.1177 35.7502C61.3011 35.7369 60.7976 35.1952 60.8108 34.4647C60.824 33.7342 61.3219 33.2307 62.1309 33.2078C63.0587 33.183 63.9714 33.2021 64.888 33.2021Z" fill="white"/>
<path d="M12.5185 48.4775C12.3808 48.6549 12.1847 49.1012 11.8452 49.3129C10.2649 50.2913 8.6525 51.2202 7.03635 52.1337C6.89591 52.2224 6.73925 52.2814 6.57573 52.3074C6.41221 52.3334 6.24518 52.3258 6.08464 52.285C5.92409 52.2442 5.77332 52.1712 5.64134 52.0701C5.50935 51.9691 5.39886 51.8422 5.31647 51.697C5.22675 51.5497 5.16789 51.3854 5.14356 51.2142C5.11923 51.043 5.12994 50.8685 5.17503 50.7017C5.22012 50.5348 5.29862 50.3791 5.40568 50.2442C5.51273 50.1093 5.64605 49.9981 5.79736 49.9175C7.39088 48.9638 8.99196 48.0102 10.6157 47.11C11.519 46.6064 12.543 47.2358 12.5185 48.4775Z" fill="white"/>
<path d="M58.4647 46.925C58.7074 47.0001 58.9433 47.0958 59.17 47.2111C60.6573 48.0656 62.1408 48.9302 63.6206 49.8051C64.4466 50.2914 64.6898 51.0105 64.2882 51.6952C63.911 52.3456 63.1567 52.4905 62.3778 52.0385C60.8484 51.1554 59.3228 50.2704 57.8066 49.3683C57.1729 48.9868 56.9466 48.4146 57.1503 47.8043C57.3351 47.2493 57.7349 46.9632 58.4647 46.925Z" fill="white"/>
<path d="M18.6511 4.44404C18.8246 4.57374 19.2621 4.7473 19.4564 5.06963C20.437 6.68892 21.3686 8.33681 22.2851 9.99233C22.373 10.1383 22.431 10.3006 22.4555 10.4697C22.4801 10.6388 22.4708 10.8112 22.4281 10.9765C22.3855 11.1419 22.3104 11.2969 22.2073 11.4323C22.1042 11.5677 21.9753 11.6807 21.8281 11.7647C21.6809 11.8487 21.5185 11.9018 21.3506 11.921C21.1827 11.9402 21.0127 11.925 20.8507 11.8764C20.6888 11.8278 20.5381 11.7467 20.4077 11.6379C20.2774 11.5292 20.17 11.3951 20.0919 11.2435C19.149 9.63186 18.2061 8.01257 17.3197 6.3704C16.8256 5.4549 17.448 4.41925 18.6511 4.44404Z" fill="white"/>
<path d="M46.3993 27.9989C46.8293 29.0422 47.214 29.9806 47.6194 30.9666C48.0155 30.9666 48.4379 30.9533 48.8584 30.9666C49.6505 30.9972 50.1597 31.4454 50.1785 32.2483C50.2162 33.8161 50.2143 35.3877 50.1785 36.9574C50.1597 37.8214 49.6448 38.2525 48.7509 38.2792C47.5836 38.3116 47.5836 38.3116 47.1668 39.4235C47.1545 39.4694 47.138 39.5141 47.1178 39.5571C46.5068 40.5546 46.2748 41.4415 47.4271 42.3093C47.9325 42.6907 47.8175 43.4289 47.3554 43.9133C46.2466 45.0787 45.1188 46.2268 43.9609 47.3464C43.3952 47.8862 42.6673 47.8747 42.1524 47.2301C41.5131 46.4328 40.8927 46.3317 40.1063 46.9154C40.0666 46.9421 40.0226 46.9615 39.9762 46.9726C38.8824 47.2282 38.145 47.6897 38.3544 49.0706C38.4543 49.7324 37.8735 50.1673 37.2229 50.1845C35.6011 50.2245 33.9774 50.2302 32.3574 50.1845C31.6031 50.1616 31.2052 49.6313 31.1712 48.8494C31.1543 48.6361 31.1543 48.4218 31.1712 48.2085C31.2297 47.7393 31.0996 47.4685 30.5904 47.3521C30.1046 47.2564 29.6413 47.068 29.2251 46.7971C28.5254 46.3012 28.0936 46.5263 27.5825 47.1004C26.8131 47.9644 26.1795 47.9358 25.361 47.1175C24.3728 46.1296 23.3916 45.1365 22.4172 44.1384C21.6817 43.3754 21.644 42.6888 22.4361 41.9946C23.0773 41.4224 23.2696 40.9227 22.7359 40.2151C22.6651 40.1188 22.6155 40.0082 22.5907 39.8908C22.3531 38.7617 21.8722 38.0484 20.5163 38.2601C19.8864 38.3593 19.432 37.749 19.4225 37.0318C19.4012 35.4615 19.4012 33.8912 19.4225 32.3208C19.4338 31.4721 19.9166 30.9342 20.752 31.0162C21.7421 31.1135 22.1306 30.7301 22.4738 29.807C22.8755 28.7256 23.3677 27.852 22.1438 26.9633C21.6535 26.6047 21.7496 25.8837 22.1909 25.4203C23.3124 24.2339 24.4589 23.0724 25.6307 21.9356C26.1964 21.3978 26.9225 21.4073 27.4335 22.0653C28.0785 22.8988 28.7083 22.9198 29.4891 22.3686C29.546 22.3282 29.61 22.2991 29.6777 22.2828C30.7526 22.0577 31.3749 21.5599 31.1958 20.282C31.0996 19.6297 31.6861 19.1377 32.3687 19.1205C33.9679 19.0938 35.5671 19.0938 37.1663 19.1205C37.9055 19.1319 38.3261 19.5878 38.3864 20.3316C38.4137 20.568 38.4137 20.8067 38.3864 21.043C38.3016 21.6 38.5486 21.8365 39.0616 21.9967C39.6433 22.1834 40.2076 22.4221 40.7475 22.71C41.0907 22.8874 41.3453 22.9236 41.5961 22.5841C41.7323 22.4199 41.8811 22.2669 42.0412 22.1264C42.7747 21.4188 43.4122 21.4035 44.1288 22.113C45.1547 23.1302 46.1692 24.1557 47.1725 25.1895C47.8797 25.9181 47.874 26.5761 47.1725 27.3028C46.9349 27.5393 46.652 27.7777 46.3993 27.9989ZM26.4963 44.5522C26.6471 44.4111 26.7697 44.3005 26.8848 44.186C27.8503 43.2324 28.0728 43.2324 29.276 43.8942C30.0986 44.3537 30.9609 44.7368 31.852 45.0386C33.6115 45.6108 33.6228 45.5726 33.7379 47.4513C33.7379 47.4933 33.7775 47.5314 33.8114 47.5963H35.8387C35.8538 47.3655 35.8745 47.1786 35.8783 46.9917C35.9047 45.7424 36.1272 45.504 37.304 45.153C38.1625 44.9086 38.9985 44.5895 39.8027 44.1994C41.6074 43.2915 41.5923 43.261 43.0878 44.4931C43.5951 44.0068 44.0967 43.5223 44.6191 43.0226C44.4776 42.8719 44.3664 42.7499 44.2532 42.6316C43.3103 41.678 43.3254 41.409 43.9704 40.2074C44.4118 39.3957 44.7786 38.5446 45.066 37.665C45.6506 35.8417 45.6167 35.8302 47.4723 35.6815C47.5138 35.6815 47.5516 35.6376 47.61 35.6013V33.5644C47.3781 33.5529 47.1914 33.5377 47.0065 33.5358C45.8015 33.5205 45.5507 33.2783 45.1999 32.0881C44.9453 31.2279 44.7285 30.2991 44.2382 29.5781C43.3744 28.3079 43.2801 27.2608 44.5531 26.2671C44.5682 26.2556 44.5682 26.2232 44.6172 26.0554C44.3508 25.859 44.0987 25.6436 43.8629 25.4107C43.6165 25.1027 43.3897 24.779 43.184 24.4418C42.8898 24.8233 42.7879 24.9892 42.6559 25.1227C41.7941 25.9924 41.4716 25.9638 40.3684 25.3993C39.3186 24.8785 38.2341 24.4324 37.1229 24.0642C36.18 23.7438 35.8971 23.4481 35.8726 22.4449C35.8726 22.1931 35.85 21.9433 35.8387 21.7049H33.7133C33.7133 21.9223 33.7133 22.0863 33.7133 22.2503C33.7001 23.5225 33.4625 23.7609 32.248 24.1233C31.3466 24.3842 30.471 24.729 29.6324 25.1532C27.9634 26.023 27.9823 26.0592 26.6151 24.8137C26.5778 24.7853 26.5346 24.7657 26.4887 24.7565L24.9801 26.2213C25.097 26.3529 25.2045 26.4788 25.3176 26.6028C26.27 27.5907 26.2605 27.8463 25.6005 29.0822C25.1533 29.9156 24.7833 30.789 24.4954 31.6914C23.941 33.4576 23.9768 33.469 22.1419 33.5567C22.1004 33.5567 22.0608 33.5949 21.9533 33.6502C21.9533 34.1099 21.9533 34.6038 21.9533 35.0978C21.9533 35.2886 21.9741 35.4659 21.9891 35.6834C22.1608 35.6967 22.2984 35.712 22.4342 35.7158C23.8655 35.752 24.0107 35.9065 24.4105 37.3103C24.6467 38.1309 24.9586 38.9271 25.3421 39.6887C26.2473 41.5025 26.2737 41.4891 24.9895 43.0627L26.4963 44.5522Z" fill="white"/>
<path d="M26.2037 34.6249C26.2048 32.9037 26.7104 31.2214 27.6567 29.7907C28.6029 28.36 29.9473 27.2452 31.5199 26.5871C33.0925 25.929 34.8227 25.7572 36.4918 26.0935C38.1609 26.4297 39.694 27.2588 40.8973 28.4761C42.1006 29.6933 42.92 31.244 43.2521 32.9322C43.5842 34.6203 43.4139 36.3702 42.7629 37.9605C42.1119 39.5509 41.0093 40.9103 39.5945 41.867C38.1797 42.8237 36.5163 43.3347 34.8144 43.3355C33.6823 43.3395 32.5607 43.117 31.514 42.6806C30.4674 42.2443 29.5165 41.6028 28.7161 40.7931C27.9157 39.9834 27.2817 39.0216 26.8505 37.9629C26.4192 36.9043 26.1994 35.7698 26.2037 34.6249ZM34.8483 28.5102C34.044 28.4921 33.2442 28.6361 32.4955 28.9339C31.7468 29.2317 31.0642 29.6772 30.4875 30.2445C29.9108 30.8119 29.4516 31.4896 29.1366 32.2383C28.8215 32.987 28.657 33.7916 28.6527 34.6053C28.6483 35.4189 28.8041 36.2253 29.111 36.9774C29.418 37.7295 29.8699 38.4123 30.4404 38.986C31.011 39.5596 31.6887 40.0127 32.4342 40.3187C33.1796 40.6247 33.9779 40.7775 34.7823 40.7683C36.3721 40.7501 37.8911 40.1008 39.012 38.9605C40.1329 37.8201 40.7659 36.28 40.7746 34.672C40.7832 33.0641 40.1669 31.5171 39.0583 30.3645C37.9498 29.2118 36.4378 28.5459 34.8483 28.5102Z" fill="white"/>
</svg>
