<svg width="91" height="91" viewBox="0 0 91 91" fill="none" xmlns="http://www.w3.org/2000/svg">
<rect width="91" height="91" rx="15" fill="white"/>
<path d="M48.8371 9.86748C49.892 10.18 50.9953 10.2042 52.0706 10.407C58.2937 11.5607 64.0938 14.3617 68.8666 18.5185C69.1289 18.7455 69.1847 18.8664 68.9057 19.1436C64.6043 23.43 60.3086 27.7264 56.0184 32.0327C55.7933 32.2597 55.6463 32.2727 55.3952 32.0811C53.2626 30.4692 50.7583 29.4205 48.1134 29.0318C47.613 28.9593 47.5776 28.723 47.5776 28.3025C47.59 22.1569 47.59 16.0119 47.5776 9.86748H48.8371Z" fill="#1ED8C1"/>
<path d="M81.1326 43.4093C75.0118 43.4093 68.8909 43.3981 62.7701 43.4093C62.2287 43.4093 62.0166 43.2865 61.9348 42.7358C61.5527 40.185 60.544 37.7687 58.999 35.7033C58.7404 35.3498 58.7646 35.1675 59.0678 34.8661C63.3096 30.6492 67.539 26.4179 71.756 22.1724C72.1281 21.8003 72.2658 21.858 72.5765 22.2208C77.3541 27.8244 80.1584 34.2826 80.9893 41.5953C81.0061 41.7367 80.9112 41.9321 81.1326 42.0083V43.4093Z" fill="#A78295"/>
<path d="M81.1325 49.1245C80.7604 50.0547 80.7865 51.0482 80.606 52.0082C79.4608 58.2327 76.6725 64.0379 72.5299 68.8228C72.262 69.1353 72.1336 69.1949 71.808 68.8656C67.5563 64.5903 63.2947 60.3268 59.0231 56.0751C58.7626 55.8146 58.7273 55.6583 58.958 55.3458C60.5359 53.2466 61.5643 50.7864 61.9496 48.1887C62.0221 47.6882 62.2212 47.5841 62.6937 47.5859C68.8369 47.6033 74.9807 47.6033 81.1251 47.5859L81.1325 49.1245Z" fill="#1D4AA3"/>
<path d="M43.4085 9.86748C43.4085 16.0069 43.3992 22.1575 43.4178 28.3025C43.4178 28.7844 43.3118 28.9853 42.8132 29.056C40.2379 29.4305 37.7973 30.4436 35.7138 32.0029C35.3584 32.2634 35.178 32.2392 34.8766 31.9359C30.641 27.678 26.3942 23.4307 22.1363 19.1938C21.8107 18.8701 21.8666 18.7418 22.1791 18.4738C27.1579 14.1596 33.24 11.3173 39.7435 10.2656C40.5007 10.1391 41.2951 10.2079 42.0151 9.86748H43.4085Z" fill="#EFE1D1"/>
<path d="M18.7835 21.7426L22.6402 25.6012C25.7229 28.682 28.7964 31.7722 31.8977 34.8364C32.2698 35.1992 32.2382 35.3945 31.9573 35.787C30.4367 37.8403 29.441 40.234 29.0568 42.76C28.9861 43.2306 28.8392 43.4297 28.2922 43.4279C22.3574 43.4018 16.4208 43.4111 10.486 43.413C10.1344 43.413 9.83297 43.4948 9.88134 42.9088C10.5362 34.9964 13.4162 28.0253 18.6254 22.0217C18.6857 21.9332 18.7385 21.8398 18.7835 21.7426Z" fill="#E19898"/>
<path d="M19.4125 47.5989C22.3892 47.5989 25.3492 47.6101 28.3166 47.5859C28.7649 47.5859 28.9622 47.6789 29.031 48.144C29.4201 50.7639 30.4559 53.2454 32.0449 55.3644C32.2421 55.6323 32.2663 55.7867 32.0077 56.0434C27.7026 60.3286 23.4081 64.6238 19.1242 68.9288C18.7521 69.3009 18.6423 69.0107 18.46 68.7986C14.785 64.5756 12.1701 59.5371 10.8322 54.1011C10.372 52.1634 10.053 50.1949 9.87781 48.211C9.8313 47.7273 9.92804 47.5878 10.4359 47.5915C13.4312 47.6101 16.4228 47.5989 19.4125 47.5989Z" fill="#3C2A21"/>
<path d="M47.5869 71.5948C47.5869 68.6032 47.5869 65.6117 47.5869 62.6219C47.5869 62.2499 47.6409 62.0638 48.0725 61.9913C50.7394 61.5996 53.2648 60.5426 55.4156 58.9178C55.6928 58.7113 55.8249 58.7764 56.0389 58.9904C60.329 63.2917 64.626 67.5856 68.9298 71.872C69.3019 72.2441 69.0303 72.3483 68.8089 72.5399C64.5986 76.1973 59.5817 78.8049 54.1691 80.1491C52.2106 80.6155 50.221 80.9401 48.2157 81.1202C47.6409 81.1798 47.5888 80.9844 47.5906 80.4989C47.5962 77.5315 47.5869 74.5622 47.5869 71.5948Z" fill="#AA26EF"/>
<path d="M43.4046 71.619C43.4046 74.6106 43.3934 77.6003 43.4157 80.5919C43.4157 81.0644 43.2874 81.15 42.8371 81.1184C35.0791 80.4691 28.2216 77.6654 22.2682 72.6181C21.8514 72.2646 21.8403 72.0916 22.2328 71.7027C26.4498 67.5205 30.647 63.3234 34.8243 59.1113C35.1796 58.7523 35.3824 58.756 35.7731 59.0425C37.8252 60.5648 40.2195 61.56 42.746 61.941C43.2185 62.0117 43.4232 62.1587 43.4157 62.7094C43.386 65.6824 43.4046 68.6498 43.4046 71.619Z" fill="#8AA0FF"/>
</svg>
