<svg width="17" height="16" viewBox="0 0 17 16" fill="none" xmlns="http://www.w3.org/2000/svg">
<path d="M13.9571 6.33169C14.9743 9.40957 13.3038 12.7293 10.2259 13.7465C7.14805 14.7637 3.82833 13.0932 2.81113 10.0153C1.79393 6.93743 3.46443 3.61772 6.54231 2.60051C9.62019 1.58331 12.9399 3.25381 13.9571 6.33169Z" fill="#272D3C" stroke="#535353" stroke-width="0.340846"/>
<path fill-rule="evenodd" clip-rule="evenodd" d="M6.27106 8.87188C6.63834 9.9832 8.01716 10.5268 9.35073 10.0861C9.5593 10.0172 9.75441 9.92823 9.93376 9.823L10.7859 12.4014C10.0724 12.6372 9.32724 12.7536 8.59289 12.7439C7.85853 12.7342 7.14939 12.5986 6.50595 12.345C5.86251 12.0913 5.29737 11.7244 4.8428 11.2654C4.38823 10.8063 4.05314 10.264 3.85664 9.66945C3.66015 9.07489 3.60611 8.43971 3.6976 7.80018C3.7891 7.16065 4.02434 6.52928 4.38989 5.94214C4.75545 5.35499 5.24416 4.82356 5.82812 4.37819C6.41209 3.93282 7.07987 3.58223 7.79333 3.34644L8.64569 5.92551C8.43895 5.94787 8.22927 5.99273 8.02071 6.06166C6.68713 6.50239 5.90379 7.76057 6.27106 8.87188Z" fill="url(#paint0_linear_55_324)"/>
<defs>
<linearGradient id="paint0_linear_55_324" x1="5.65067" y1="7.28298" x2="7.03086" y2="3.09515" gradientUnits="userSpaceOnUse">
<stop stop-color="#F57BDA"/>
<stop offset="1" stop-color="#343BE2" stop-opacity="0"/>
</linearGradient>
</defs>
</svg>
