<svg width="111" height="53" viewBox="0 0 111 53" fill="none" xmlns="http://www.w3.org/2000/svg">
<ellipse cx="62.9641" cy="33.1739" rx="0.96638" ry="0.96638" transform="rotate(-18.2881 62.9641 33.1739)" fill="#EB5300"/>
<ellipse cx="14.4381" cy="38.0162" rx="7.00626" ry="6.76466" transform="rotate(-18.2881 14.4381 38.0162)" fill="#7839FF"/>
<path d="M4.37672 34.8048L6.49945 41.2278M2.1119 39.1155L8.76427 36.917" stroke="white" stroke-width="0.681693" stroke-linecap="round" stroke-linejoin="round"/>
<path d="M62.7694 25.6677L60.9894 20.2206C60.9569 20.1211 60.9023 20.0305 60.8299 19.956C60.7576 19.8815 60.6694 19.8251 60.5724 19.7913L55.1069 17.8863C54.9718 17.8391 54.8257 17.8381 54.6908 17.8832C54.5558 17.9283 54.4392 18.0171 54.3584 18.1364L51.0917 22.9602C51.0337 23.0458 50.9962 23.1442 50.9819 23.2477C50.9677 23.3511 50.9772 23.4568 51.0097 23.5563L52.7897 29.0034C52.8452 29.1734 52.9642 29.3144 53.1205 29.3955C53.2767 29.4766 53.4574 29.4911 53.6228 29.4358L62.3551 26.5171C62.5205 26.4618 62.6571 26.3412 62.7348 26.1819C62.8125 26.0227 62.8249 25.8377 62.7694 25.6677Z" fill="#1F2128" stroke="white" stroke-width="0.681693" stroke-linecap="round" stroke-linejoin="round"/>
<path d="M107.991 11.6151L103.777 9.47004C104.236 8.29131 104.228 6.9789 103.755 5.80583C103.282 4.63277 102.38 3.68935 101.236 3.17186C100.093 2.65436 98.7961 2.60262 97.616 3.0274C96.4358 3.45218 95.463 4.32077 94.8999 5.45249C94.3368 6.58421 94.2268 7.89191 94.5928 9.10357C94.9587 10.3152 95.7725 11.3375 96.8648 11.9578C97.957 12.5781 99.2437 12.7487 100.457 12.434C101.67 12.1193 102.717 11.3435 103.38 10.2682L107.594 12.4132L107.991 11.6151ZM95.4827 8.93226C95.2359 8.1771 95.2161 7.36489 95.4258 6.59835C95.6354 5.8318 96.0651 5.14535 96.6605 4.62579C97.2559 4.10623 97.9902 3.7769 98.7707 3.67945C99.5511 3.58199 100.343 3.7208 101.045 4.0783C101.748 4.4358 102.329 4.99595 102.717 5.68791C103.105 6.37987 103.281 7.17256 103.223 7.96574C103.165 8.75893 102.876 9.51697 102.393 10.144C101.909 10.7711 101.252 11.239 100.506 11.4885C99.5043 11.822 98.4131 11.7401 97.4715 11.2609C96.5298 10.7816 95.8146 9.94418 95.4827 8.93226Z" fill="white"/>
</svg>
