<svg width="398" height="491" viewBox="0 0 398 491" fill="none" xmlns="http://www.w3.org/2000/svg">
<path d="M0.572436 489.629C0.532886 445.709 0.490035 401.789 0.443894 357.869C0.443894 270.029 0.443894 182.189 0.443894 94.3486C0.443894 92.2186 -0.0208044 90.0086 1.07671 87.9786C2.71803 88.0286 4.35936 88.1186 6.02046 88.1186C102.977 88.1186 199.941 88.1553 296.911 88.2286C301.222 88.2286 303.258 87.2286 303.338 82.6986C303.475 80.2162 303.806 77.7486 304.326 75.3186C304.603 73.7386 304.702 71.8186 307.184 72.3186C307.589 76.4586 304.831 80.0086 305.206 84.2486C305.404 86.4386 305.809 87.0986 307.925 87.0686C313.502 86.9586 319.069 87.0686 324.635 87.0186C328.412 86.9686 333.208 88.5886 333.435 82.0186C333.896 81.9413 334.362 81.8979 334.829 81.8886C333.791 87.5186 336.471 88.3386 341.484 88.2386C358.292 87.8886 375.101 88.2386 391.85 87.9986C396.29 87.9286 397.575 88.9986 397.565 93.6586C397.401 165.552 397.361 237.445 397.447 309.339C397.447 367.252 397.447 425.165 397.447 483.079C397.447 484.899 397.298 486.719 397.219 488.539C396.779 488.574 396.338 488.473 395.956 488.247C395.574 488.022 395.27 487.684 395.084 487.279C395.133 485.779 395.222 484.279 395.222 482.789C395.222 353.809 395.222 224.809 395.222 95.7886C395.183 95.1226 395.183 94.4547 395.222 93.7886C395.538 91.1586 394.382 90.3686 391.841 90.3786C373.727 90.4586 355.616 90.4586 337.509 90.3786C334.79 90.3786 333.801 91.3186 333.415 93.9486C332.575 99.7086 331.438 105.409 330.449 111.149C327.634 127.675 324.833 144.209 322.045 160.749C321.765 160.987 321.564 161.307 321.47 161.665C321.376 162.023 321.394 162.401 321.521 162.749L319.662 173.989C317.872 175.229 317.922 176.989 318.416 178.809L318.119 179.809L316.211 178.809C315.361 176.529 317.2 174.499 317.061 171.809C313.643 173.03 310.014 173.53 306.397 173.279C302.78 173.028 299.252 172.031 296.031 170.349C293.569 169.119 291.453 167.089 288.398 168.139C288.536 166.689 288.595 165.219 288.842 163.779C292.949 140.139 297.066 116.509 301.192 92.8886C301.696 91.1486 301.4 90.1686 299.323 90.8886C298.858 90.732 298.377 90.628 297.89 90.5786C273.537 90.5786 249.184 90.5786 224.831 90.5086C222.122 90.5086 220.134 91.7486 218.147 93.2586C218.345 91.0986 218.325 89.1486 215.24 90.3286C213.262 90.3986 211.285 90.5286 209.307 90.5286C167.615 90.5286 125.92 90.5286 84.2207 90.5286C82.1938 90.5286 79.8899 89.6986 78.2387 91.7586C76.4985 93.1186 76.5381 94.5386 78.0806 96.0186L78.4859 100.019C77.5466 102.109 77.4181 104.119 79.0693 105.959C79.4795 107.576 79.4795 109.271 79.0693 110.889L76.0239 119.059C73.7993 122.159 70.6353 123.379 67.0164 123.709C65.7822 123.147 64.4444 122.857 63.0911 122.857C61.7379 122.857 60.4 123.147 59.1658 123.709H54.1726C53.2629 122.579 52.6301 123.079 52.0863 124.079L49.209 125.849C48.9261 125.825 48.6417 125.873 48.3822 125.989C48.1226 126.106 47.8961 126.286 47.7237 126.514C47.5513 126.742 47.4385 127.011 47.3957 127.295C47.3529 127.579 47.3814 127.869 47.4787 128.139C44.3444 138.489 44.0577 149.709 38.2537 159.249L35.0403 162.399L33.3594 163.539C28.0991 165.515 22.4413 166.164 16.8769 165.429C14.1084 165.109 11.2905 165.279 8.49233 165.139C4.27037 164.929 2.55983 166.439 2.55983 171.139C2.73781 216.049 2.67849 260.959 2.65871 305.879C2.65871 321.879 2.55981 337.809 2.51038 353.769C0.83939 355.769 4.4879 355.959 3.79577 357.649C2.02591 359.439 2.69824 361.719 2.69824 363.809C2.65869 401.029 2.65869 438.249 2.69824 475.469C2.69824 479.469 2.85644 483.469 2.94543 487.419L2.85645 489.599L0.572436 489.629Z" fill="#131B28"/>
<path d="M2.84644 489.559L2.93545 487.379H392.137C393.126 487.379 394.115 487.309 395.103 487.279C395.29 487.684 395.594 488.022 395.976 488.247C396.358 488.473 396.798 488.574 397.239 488.539C396.497 490.979 394.49 489.849 393.096 489.849C264.157 489.909 135.21 489.909 6.25764 489.849C5.11638 489.812 3.97778 489.715 2.84644 489.559Z" fill="#313741"/>
<path d="M341.058 23.1086C338.952 18.4886 339.971 13.2786 338.26 8.54864C337.321 5.96864 336.609 3.45864 333.494 2.82864C330.202 2.16864 328.333 4.03864 326.573 6.50864C320.74 14.9086 317.071 24.2286 314.234 34.0586C311.495 43.5786 310.813 53.3886 309.151 63.0586C308.934 64.3486 308.489 65.6086 308.163 66.8786L306.353 65.9286C308.618 50.9286 310.15 35.7886 315.638 21.4986C317.892 15.7902 320.803 10.3696 324.309 5.34864C326.553 2.04864 329.203 -0.651366 333.574 0.138634C337.944 0.928634 339.862 3.99865 340.702 8.05865C340.91 9.05865 341.256 9.96865 341.543 10.9186C341.217 11.9886 340.178 13.1986 342.087 13.8486C342.087 14.8486 342.196 15.8486 342.245 16.9186C342.245 18.6086 340.999 20.5386 343.234 21.7886L342.907 22.9186L341.058 23.1086Z" fill="#333A45"/>
<path d="M337.548 56.6486L340.989 35.9386L342.878 36.9386C342.618 43.7079 341.563 50.4218 339.733 56.9386L337.548 56.6486Z" fill="#464C56"/>
<path d="M336.213 78.9386C334.137 79.3286 333.573 78.1586 333.9 76.4386C334.819 71.5686 335.877 66.7086 336.866 61.8486L337.954 62.9186C338.745 66.4986 337.172 69.8586 336.678 73.2686C336.396 75.1457 336.24 77.0401 336.213 78.9386Z" fill="#18202D"/>
<path d="M342.878 36.9187L340.989 35.9187C340.989 31.6387 341.012 27.362 341.058 23.0887L342.888 22.8887C343.115 23.8887 343.333 24.8887 343.55 25.8887C343.091 28.1989 343.091 30.5785 343.55 32.8887C343.333 34.2587 343.105 35.5887 342.878 36.9187Z" fill="#131B28"/>
<path d="M306.383 65.9187L308.192 66.8687C307.906 68.7187 307.609 70.5687 307.322 72.4287C305.74 73.6087 305.216 72.7187 305.345 71.2487C305.562 69.4587 306.037 67.6887 306.383 65.9187Z" fill="#131B28"/>
<path d="M337.548 56.6487L339.733 56.8687L339.012 60.8687L336.945 59.8687C336.896 58.7587 336.54 57.5787 337.548 56.6487Z" fill="#18202D"/>
<path d="M336.945 59.8486L339.012 60.8486C339.773 62.1386 338.112 62.1086 337.934 62.8486L336.846 61.7786L336.945 59.8486Z" fill="#464C56"/>
<path d="M218.186 93.2086C207.894 106.399 205.333 122.349 202.762 138.209C201.111 148.359 200.102 158.609 198.629 168.789C196.385 184.349 188.9 196.029 173.91 201.989L172.121 200.349L174.988 198.419L176.965 197.419C188.109 191.849 193.497 182.239 195.356 170.279C197.868 154.059 199.371 137.679 202.92 121.629C205.155 111.549 208.19 101.759 214.637 93.4486C215.369 92.5086 215.991 91.5286 215.23 90.2986C218.364 89.0986 218.384 91.0486 218.186 93.2086Z" fill="#464C56"/>
<path d="M2.52031 353.729C3.61782 354.909 4.61646 354.129 5.48656 353.479C9.77773 350.309 14.326 347.479 17.9151 343.389C20.0953 342.005 21.9456 340.151 23.3335 337.959C28.7914 332.819 31.7478 326.139 34.3581 319.309C39.5391 305.719 41.3979 291.399 43.1381 277.079C43.593 273.319 44.7696 269.599 44.206 265.729C44.5332 265.323 44.7633 264.847 44.8782 264.337C44.9932 263.827 44.9898 263.297 44.8685 262.789C45.1255 260.789 45.3925 258.789 45.6496 256.739C45.7485 256.109 45.8374 255.479 45.9363 254.849C46.7104 250.081 48.0071 245.416 49.8023 240.939L51.4733 242.849C51.6118 245.959 48.5071 248.459 49.8221 251.799C47.4887 252.149 48.6455 253.719 48.7543 254.929C48.7543 255.879 48.7543 256.829 48.8037 257.779C46.5493 258.249 47.5381 259.659 47.9138 260.899C47.9138 261.899 47.9732 262.959 48.0127 263.989C45.7089 265.569 46.3714 267.769 46.7965 269.919C46.7965 270.919 46.7965 271.839 46.8756 272.799C44.6213 273.709 45.442 275.319 45.9759 276.869L45.9166 280.869C43.5534 281.689 44.6015 283.419 44.8487 284.939C44.8487 285.939 44.8981 286.939 44.9278 287.939C44.5911 288.123 44.2943 288.374 44.0547 288.676C43.8151 288.979 43.6376 289.326 43.5326 289.699C43.4277 290.071 43.3973 290.462 43.4433 290.846C43.4893 291.231 43.6108 291.602 43.8006 291.939L44.0082 293.939C43.0986 294.719 41.9121 295.389 42.9009 296.939C40.4389 312.839 35.8511 327.879 25.5087 340.579C23.8889 341.63 22.5182 343.03 21.4944 344.679C15.6212 349.049 10.5094 354.459 3.7958 357.679C4.53736 355.919 0.849318 355.739 2.52031 353.729Z" fill="#464C56"/>
<path d="M306.274 237.749C308.054 226.589 309.725 215.419 311.643 204.289C313.106 195.779 313.868 187.139 316.251 178.789L318.159 179.789C318.268 180.149 318.367 180.519 318.465 180.889C316.29 181.889 317.477 183.399 317.842 184.799L317.427 186.869C315.657 187.389 316.359 188.669 316.567 189.789L316.369 192.839C314.639 193.399 315.381 194.679 315.549 195.779L315.608 197.929C313.7 198.229 314.501 199.689 314.421 200.769L314.53 201.769C314.609 203.529 312.652 204.769 313.413 206.769L313.512 207.769C313.808 209.269 311.851 210.149 312.444 211.769L312.573 212.769C312.741 214.559 310.654 215.769 311.426 217.769C311.208 224.569 309.745 231.159 308.222 237.769L306.274 237.749Z" fill="#313741"/>
<path d="M326.959 30.7586C327.874 30.7087 328.79 30.8417 329.655 31.1499C330.52 31.4581 331.316 31.9355 331.998 32.5548C332.68 33.1742 333.235 33.9234 333.631 34.7597C334.027 35.5959 334.256 36.5028 334.305 37.4286C334.355 38.3545 334.223 39.281 333.918 40.1555C333.614 41.0299 333.142 41.8351 332.529 42.5251C331.917 43.215 331.176 43.7762 330.349 44.1766C329.522 44.577 328.626 44.8087 327.71 44.8586C326.722 44.9086 325.565 44.9386 325.258 43.7686C324.882 42.3686 326.049 42.1586 327.028 42.0986C329.757 41.9486 331.359 40.4686 331.497 37.7886C331.556 36.9459 331.332 36.1077 330.862 35.4092C330.392 34.7107 329.703 34.1927 328.907 33.9386C326.405 33.0586 324.418 33.7386 323.132 36.2086C322.697 37.0386 322.243 38.3186 321.046 37.6486C319.692 36.8786 320.394 35.6486 320.937 34.6486C321.496 33.5077 322.352 32.5425 323.413 31.857C324.475 31.1716 325.7 30.7918 326.959 30.7586Z" fill="#464C56"/>
<path d="M327.967 379.669L328.373 381.669C328.551 382.079 328.729 382.499 328.917 382.919C331.507 393.619 334.77 404.119 338.152 414.589C338.049 414.954 338.061 415.344 338.187 415.702C338.312 416.061 338.546 416.37 338.854 416.589C338.788 417.12 338.828 417.66 338.973 418.175C339.117 418.69 339.362 419.171 339.694 419.589C339.16 421.589 341.523 423.589 339.872 425.589C338.225 424.889 336.422 424.647 334.651 424.889H334.335C333.723 424.42 333.02 424.088 332.271 423.916C331.523 423.744 330.747 423.734 329.994 423.889L327.028 423.399L324.25 422.959L322.084 422.589C321.52 422.178 320.875 421.893 320.193 421.755C319.51 421.617 318.807 421.629 318.129 421.789L316.152 421.469L314.659 421.519C314.577 421.243 314.398 421.008 314.155 420.859C311.188 406.629 306.037 393.019 302.29 378.989C298.948 366.379 294.508 354.089 291.73 341.309L293.065 338.619C297.77 332.864 302.163 326.855 306.225 320.619C307.54 320.139 307.975 317.619 310.081 318.939C310.79 322.93 311.903 326.837 313.403 330.599C313.306 330.966 313.321 331.354 313.449 331.712C313.576 332.069 313.809 332.379 314.115 332.599C314.155 334.352 314.62 336.069 315.47 337.599C315.355 337.962 315.36 338.353 315.483 338.713C315.606 339.073 315.84 339.384 316.152 339.599C316.083 341.017 316.468 342.419 317.249 343.599C317.127 343.972 317.127 344.375 317.25 344.748C317.373 345.122 317.612 345.444 317.932 345.669C317.932 347.404 318.404 349.106 319.296 350.589C319.165 350.957 319.16 351.359 319.282 351.731C319.404 352.103 319.646 352.422 319.968 352.639C319.858 354.064 320.254 355.482 321.086 356.639C320.976 357.182 321.01 357.746 321.184 358.272C321.357 358.799 321.664 359.27 322.074 359.639C321.933 361.065 322.328 362.494 323.182 363.639C323.072 364.177 323.1 364.735 323.263 365.26C323.425 365.785 323.717 366.259 324.111 366.639C323.985 368.062 324.375 369.484 325.209 370.639C325.094 371.012 325.098 371.413 325.22 371.785C325.343 372.156 325.577 372.479 325.891 372.709C325.788 374.118 326.192 375.517 327.028 376.649C326.932 377.191 326.968 377.749 327.131 378.275C327.295 378.801 327.582 379.279 327.967 379.669Z" fill="#F91C06"/>
<path d="M275.761 184.769L278.935 164.909C270.037 167.519 262.127 166.629 254.859 161.669C252.506 160.059 252.318 161.179 251.893 163.229C251.122 167.119 250.054 170.959 249.115 174.819L247.622 174.699C250.894 156.849 252.12 138.419 261.672 122.289C263.194 119.729 264.826 117.229 266.447 114.739C267.273 113.279 268.532 112.119 270.046 111.425C271.56 110.73 273.252 110.535 274.881 110.869C278.56 111.509 280.517 114.039 281.466 117.489C284.76 129.023 285.46 141.156 283.513 152.999C281.644 163.999 279.558 174.869 277.581 185.799L275.761 184.769Z" fill="#131B28"/>
<path d="M355.672 178.849C346.348 181.369 337.607 180.179 329.401 174.049C327.849 182.329 326.435 190.049 324.951 197.789L323.043 197.589C324.645 187.682 326.244 177.765 327.839 167.839L328.224 164.839C330.864 152.439 334.839 140.599 342.067 130.039C344.469 126.519 347.119 123.879 351.727 124.699C356.334 125.519 357.758 129.149 358.816 133.199C362.771 148.559 361.664 163.789 358.045 178.999L355.672 178.849Z" fill="#131B28"/>
<path d="M274.555 259.779C274.555 259.949 274.555 260.109 274.555 260.279C274.229 264.639 271.352 269.519 276.968 272.679C283.543 276.379 290.395 277.799 297.623 274.749C299.689 273.879 300.006 271.819 300.352 269.809C301.34 263.809 302.507 257.809 303.595 251.809H305.819L302.468 272.739C302.379 273.399 302.29 274.069 302.21 274.739C301.686 276.979 301.083 279.209 300.648 281.469C299.422 287.819 297.247 289.939 290.949 290.629C287.332 290.988 283.682 290.648 280.191 289.629C270.63 286.939 268.247 283.199 269.948 273.399C270.739 268.829 271.717 264.289 272.607 259.729L274.555 259.779Z" fill="#18202D"/>
<path d="M289.258 342.679C285.985 337.609 285.599 331.539 283.622 326.009C282.07 321.649 280.962 317.129 279.667 312.589C277.511 313.259 276.908 315.119 275.9 316.489C249.204 352.829 222.527 389.179 195.87 425.539C194.882 426.819 194.367 428.539 192.637 429.129C191.757 429.379 190.798 429.379 191.114 428.129C191.494 427.033 192.067 426.017 192.805 425.129C221.347 386.182 249.925 347.225 278.54 308.259C278.925 307.739 279.38 307.259 280.359 306.149C283.83 317.259 287.28 327.809 289.802 338.659C289.638 339.031 289.601 339.448 289.696 339.844C289.791 340.24 290.012 340.593 290.326 340.849L289.258 342.679Z" fill="#333A45"/>
<path d="M314.174 420.849C314.416 421.004 314.594 421.242 314.678 421.519L315.123 422.579L315.717 424.709C318.811 435.559 321.649 446.469 325.08 457.229C326.553 461.889 324.991 462.069 321.204 461.359C302.299 457.832 283.381 454.382 264.45 451.009C238.953 446.469 213.447 441.969 187.931 437.509C186.942 437.329 184.836 437.409 185.251 436.209C185.993 434.099 187.634 432.289 189.008 430.439C189.74 429.439 190.679 429.439 191.342 430.609C191.47 430.819 191.243 431.249 191.174 431.609C189.414 434.069 189.315 435.159 192.993 435.759C209.802 438.499 226.61 441.609 243.35 444.619C268.847 449.199 294.346 453.782 319.85 458.369C320.649 458.427 321.452 458.427 322.252 458.369L312.009 421.459L314.174 420.849Z" fill="#313741"/>
<path d="M312.197 270.729C310.704 276.559 313.996 279.329 318.723 281.229C323.029 282.963 327.711 283.522 332.298 282.849C335.413 282.419 338.003 281.209 338.784 277.709H340.762C340.129 281.649 339.378 285.579 338.913 289.539C338.448 293.499 336.164 295.759 332.476 296.789C327.497 298.084 322.248 297.841 317.408 296.089C308.805 293.269 306.739 289.879 308.232 281.009C308.805 277.569 309.557 274.159 310.209 270.729H312.197Z" fill="#18202D"/>
<path d="M236.014 253.979C235.134 263.479 235.618 264.719 241.224 267.319C249.322 271.069 256.807 270.319 261.879 265.089C262.68 264.259 263.234 264.519 263.857 265.209C263.402 268.339 263.007 271.469 262.463 274.579C261.395 280.679 259.229 282.789 253.129 283.579C249.027 284.093 244.864 283.683 240.938 282.379C231.811 279.469 229.775 275.919 231.574 266.509C232.197 263.259 232.563 259.959 233.077 256.689L233.423 254.789L234.125 253.689L236.014 253.979Z" fill="#18202D"/>
<path d="M172.16 200.359L173.95 201.999C168.594 204.799 162.77 206.569 156.775 207.219C156.333 206.966 155.815 206.883 155.317 206.986C154.819 207.089 154.375 207.37 154.066 207.779L149.053 208.519C148.311 207.599 147.689 207.809 147.164 208.739C144.214 209.407 141.187 209.67 138.167 209.519C135.853 208.459 133.569 208.209 131.344 209.759C127.587 210.009 123.82 210.459 120.063 210.449C116.84 210.449 115.524 211.349 115.613 214.949C115.708 217.367 115.255 219.775 114.291 221.989C113.326 224.204 111.875 226.167 110.047 227.729L108.732 225.989C111.253 222.409 113.201 218.619 113.231 214.069C113.231 212.169 112.865 210.819 110.462 211.069C100.812 212.119 91.2012 213.409 81.7883 216.069C79.4054 216.739 79.1187 218.069 79.6724 220.069L78.1794 221.849C75.8756 216.379 72.5039 220.239 69.508 220.849L68.2424 219.139C68.7862 218.779 69.2312 218.209 69.864 218.089C74.4122 217.089 76.4392 214.089 76.8841 209.589C76.8978 208.928 77.0483 208.278 77.3259 207.681C77.6035 207.083 78.0021 206.551 78.4958 206.119L79.6131 208.389C80.493 210.039 76.5578 214.469 81.3631 213.389C90.6673 211.389 99.9418 209.439 109.424 208.639C112.143 208.409 111.688 206.979 111.006 205.279L112.212 203.029C113.814 206.679 116.266 208.879 120.518 207.969C120.766 208.247 121.072 208.468 121.413 208.614C121.755 208.76 122.125 208.828 122.495 208.814C122.866 208.8 123.229 208.703 123.559 208.531C123.889 208.359 124.177 208.116 124.403 207.819L128.358 207.149L140.293 207.059C141.667 208.119 142.962 208.139 144.159 206.769L150.15 206.009C150.932 206.919 151.545 206.679 152.128 205.749L156.142 205.049C156.963 205.939 157.566 205.639 158.07 204.699L172.16 200.359Z" fill="#333A45"/>
<path d="M274.555 259.779L272.578 259.719C274.97 245.305 277.363 230.892 279.756 216.479C282.287 201.319 284.832 186.162 287.389 171.009C287.636 170.06 287.967 169.137 288.378 168.249C290.79 170.609 289.772 173.559 289.367 176.139C284.68 203.399 279.835 230.629 275.03 257.869C274.951 258.519 274.723 259.149 274.555 259.779Z" fill="#313741"/>
<path d="M342.799 254.279C343.679 243.879 346.388 233.789 348.029 223.509C350.007 210.889 352.567 198.359 354.881 185.789H356.7C355.257 198.789 352.34 211.469 350.254 224.329C350.076 225.459 350.016 226.609 349.898 227.749L349.631 229.699C348.701 234.365 347.765 239.032 346.823 243.699C344.786 244.789 346.595 246.399 346.289 247.699C346.131 248.359 345.972 249.019 345.824 249.699C343.847 250.809 345.488 252.429 345.251 253.779C344.648 255.149 343.847 255.409 342.799 254.279Z" fill="#18202D"/>
<path d="M236.014 253.979L234.115 253.739L240.315 214.649C240.651 212.549 240.997 210.449 241.303 208.339L243.825 207.119C241.046 222.659 239.82 238.539 236.014 253.979Z" fill="#313741"/>
<path d="M262.809 259.739C264.401 245.949 266.764 232.309 269.572 218.739C270.254 218.739 270.936 218.659 271.253 217.889C271.377 217.86 271.492 217.8 271.587 217.715C271.682 217.629 271.754 217.52 271.797 217.399C271.997 217.586 272.242 217.718 272.508 217.779C272.275 218.093 272.129 218.464 272.084 218.854C272.038 219.244 272.096 219.639 272.251 219.999C270.828 220.999 270.422 222.259 271.451 223.809C271.243 224.809 271.035 225.809 270.837 226.809C269.028 227.569 270.076 228.729 270.432 229.809L270.017 231.889C268.227 232.389 268.919 233.669 269.127 234.799L268.959 237.859C267.209 238.399 267.97 239.679 268.109 240.789C268.109 241.509 268.178 242.229 268.217 242.959C266.24 243.209 267.06 244.689 266.981 245.779L267.09 246.779C267.189 248.549 265.221 249.829 265.973 251.779C265.914 254.499 265.973 257.239 264.717 259.779L262.809 259.739Z" fill="#313741"/>
<path d="M323.043 197.559L324.952 197.759C324.123 205.576 322.567 213.297 320.305 220.819L318.752 220.589C319.756 212.837 321.189 205.148 323.043 197.559Z" fill="#313741"/>
<path d="M103.501 232.259C101.85 233.769 99.6451 233.639 97.6775 234.209H94.8101C91.8439 233.529 88.6502 233.349 86.2476 231.059L87.8889 229.499C92.279 231.199 97.0598 231.588 101.662 230.619L103.501 232.259Z" fill="#464C56"/>
<path d="M271.549 210.769C271.262 205.959 272.34 201.349 273.715 196.769L275.583 197.769C274.865 202.889 274.146 208.009 273.428 213.129C271.757 213.189 272.073 211.639 271.549 210.769Z" fill="#464C56"/>
<path d="M97.7269 193.849C101.217 195.039 105.073 195.369 107.812 198.299L108.91 199.719C108.613 200.879 107.921 201.129 106.843 200.719C101.712 196.269 95.8581 196.029 89.6686 197.719L88.0371 196.089L93.8312 193.939L97.7269 193.849Z" fill="#333A45"/>
<path d="M247.641 174.699L249.134 174.819C249.322 181.949 246.465 188.629 246.168 195.689C246.089 197.379 244.635 196.969 243.528 196.819C244.879 189.452 246.25 182.079 247.641 174.699Z" fill="#18202D"/>
<path d="M312.197 270.729H310.219C310.971 265.249 311.719 259.772 312.464 254.299C314.085 253.199 314.57 254.099 314.293 255.539C313.354 260.569 314.085 265.849 312.197 270.729Z" fill="#333A45"/>
<path d="M319.187 226.219C319.494 233.669 316.379 240.639 316.122 248.039C316.122 249.039 314.619 249.039 313.631 248.779C314.807 241.679 315.994 234.579 317.141 227.479C317.358 226.199 317.526 225.019 319.187 226.219Z" fill="#18202D"/>
<path d="M305.819 251.849H303.604C304.376 247.149 304.742 242.369 306.274 237.849H308.252C307.825 242.575 307.011 247.258 305.819 251.849Z" fill="#333A45"/>
<path d="M340.801 277.709H338.824C338.777 274.638 339.297 271.586 340.357 268.709H342.334C342.412 271.781 341.891 274.839 340.801 277.709Z" fill="#464C56"/>
<path d="M342.304 268.629H340.327C340.93 263.769 340.959 258.809 342.858 254.179C344.43 253.509 344.835 254.319 344.835 255.719C343.224 256.489 344.143 257.719 344.321 258.719L343.965 260.719C341.849 261.769 343.639 263.379 343.412 264.719L342.304 268.629Z" fill="#18202D"/>
<path d="M275.583 197.759L273.715 196.759C274.229 193.679 274.753 190.599 275.267 187.519L277.383 187.779L275.583 197.759Z" fill="#131B28"/>
<path d="M51.4832 242.849L49.8123 240.939C50.421 237.938 51.7031 235.119 53.5596 232.699L55.1021 234.289L51.4832 242.849Z" fill="#333A45"/>
<path d="M131.344 209.759C133.569 208.209 135.853 208.459 138.167 209.519L136.189 210.149L132.353 210.269L131.344 209.759Z" fill="#464C56"/>
<path d="M356.7 185.849H354.881L355.741 180.849H357.64C357.63 182.529 357.689 184.259 356.7 185.849Z" fill="#131B28"/>
<path d="M262.809 259.739H264.717L263.827 265.309C259.922 264.119 261.83 261.849 262.809 259.739Z" fill="#18202D"/>
<path d="M78.6243 205.639C78.8429 204.509 79.2805 203.434 79.9117 202.477C80.543 201.519 81.3555 200.697 82.3024 200.059L83.7855 201.649L80.493 206.239L78.6243 205.639Z" fill="#333A45"/>
<path d="M82.3025 200.059C83.2857 198.608 84.7085 197.52 86.3564 196.959L87.6813 198.699L83.7856 201.649L82.3025 200.059Z" fill="#333A45"/>
<path d="M124.196 207.299C124.303 207.45 124.374 207.625 124.403 207.809C124.177 208.106 123.889 208.349 123.559 208.521C123.229 208.693 122.866 208.79 122.495 208.804C122.124 208.818 121.755 208.75 121.413 208.604C121.072 208.458 120.766 208.238 120.518 207.959L124.196 207.299Z" fill="#464C56"/>
<path d="M318.752 220.589L320.305 220.819C320.305 222.319 320.216 223.819 320.166 225.309C317.684 225.319 317.506 224.739 318.752 220.589Z" fill="#18202D"/>
<path d="M144.188 206.759C142.992 208.129 141.697 208.109 140.322 207.049C141.526 206.451 142.911 206.347 144.188 206.759Z" fill="#464C56"/>
<path d="M103.501 232.259L101.662 230.659L105.054 229.069L106.814 230.469C105.97 231.464 104.788 232.103 103.501 232.259Z" fill="#333A45"/>
<path d="M111.085 201.519L112.212 203.019L111.036 205.269L109.533 202.979L111.085 201.519Z" fill="#333A45"/>
<path d="M277.383 187.849L275.267 187.589C275.435 186.659 275.593 185.729 275.761 184.799L277.63 185.799C277.541 186.469 277.462 187.149 277.383 187.849Z" fill="#464C56"/>
<path d="M357.64 180.849H355.741C355.741 180.179 355.741 179.519 355.672 178.849L358.025 178.999L357.64 180.849Z" fill="#313741"/>
<path d="M152.108 205.739C151.574 206.669 150.961 206.909 150.131 205.999C150.371 205.716 150.705 205.534 151.07 205.486C151.435 205.438 151.805 205.528 152.108 205.739Z" fill="#464C56"/>
<path d="M111.085 201.519C110.551 201.999 110.027 202.519 109.503 202.979L106.685 200.609C107.783 198.079 109.226 199.559 110.64 200.259L111.085 201.519Z" fill="#464C56"/>
<path d="M83.3505 228.979C82.7484 228.732 82.2075 228.354 81.7665 227.872C81.3255 227.39 80.9954 226.815 80.7996 226.189L82.4705 225.069L84.448 227.199L83.3505 228.979Z" fill="#333A45"/>
<path d="M147.165 208.739C147.689 207.809 148.312 207.599 149.053 208.519C148.823 208.788 148.501 208.96 148.151 209.001C147.801 209.042 147.449 208.948 147.165 208.739Z" fill="#464C56"/>
<path d="M154.066 207.779C154.375 207.37 154.819 207.089 155.317 206.986C155.815 206.883 156.333 206.966 156.775 207.219C156.433 207.579 155.991 207.826 155.507 207.926C155.023 208.026 154.52 207.975 154.066 207.779Z" fill="#464C56"/>
<path d="M158.051 204.689C157.546 205.629 156.943 205.929 156.123 205.039C156.356 204.767 156.675 204.584 157.026 204.52C157.376 204.456 157.738 204.516 158.051 204.689Z" fill="#464C56"/>
<path d="M65.1181 223.059C64.6336 224.129 63.902 225.379 62.7155 224.459C61.3213 223.359 62.6067 222.599 63.5856 222.009L65.1181 223.059Z" fill="#333A45"/>
<path d="M108.346 229.339L106.814 230.469L105.054 229.069L106.784 227.899L108.346 229.339Z" fill="#333A45"/>
<path d="M87.8888 229.529L86.2475 231.089L85.061 230.319L86.7122 228.849L87.8888 229.529Z" fill="#333A45"/>
<path d="M69.508 220.849L67.5305 221.949L66.4429 220.179L68.2721 219.179L69.508 220.849Z" fill="#333A45"/>
<path d="M67.5306 221.899C67.2926 222.295 66.9406 222.608 66.5217 222.795C66.1028 222.983 65.6371 223.036 65.1872 222.949L64.6335 221.279L66.4429 220.129C66.7791 220.719 67.145 221.309 67.5306 221.899Z" fill="#333A45"/>
<path d="M79.2077 223.929L78.219 221.809L79.7713 220.099C80.0779 220.779 80.3745 221.469 80.681 222.149L79.2077 223.929Z" fill="#333A45"/>
<path d="M86.3169 196.959L87.9978 196.109L89.6292 197.739L87.6517 198.739L86.3169 196.959Z" fill="#333A45"/>
<path d="M80.3843 225.729L79.178 223.929L80.6117 222.149C80.9676 222.769 81.3334 223.379 81.6993 223.999L80.3843 225.729Z" fill="#333A45"/>
<path d="M53.5596 232.699L54.6769 230.989L56.2984 232.159C55.9029 232.869 55.4975 233.579 55.0922 234.289L53.5596 232.699Z" fill="#333A45"/>
<path d="M78.4958 206.069C78.4958 206.069 78.6343 205.629 78.6343 205.639L80.4931 206.239L79.6131 208.339L78.4958 206.069Z" fill="#333A45"/>
<path d="M328.916 382.929C328.728 382.509 328.551 382.089 328.373 381.679C328.56 382.089 328.728 382.509 328.916 382.929Z" fill="#F7F4F4"/>
<path d="M55.2207 230.299C55.5865 229.569 56.1304 228.849 56.9609 229.369C58.1672 230.109 57.3663 230.909 56.7632 231.609L55.2207 230.299Z" fill="#333A45"/>
<path d="M109.513 228.279L108.346 229.339L106.784 227.899L107.822 226.959L109.513 228.279Z" fill="#333A45"/>
<path d="M65.1576 222.949V223.059L63.625 222.059L64.6137 221.329C64.7917 221.849 64.9697 222.399 65.1576 222.949Z" fill="#333A45"/>
<path d="M84.4282 229.789L83.4395 228.969L84.5666 227.199L85.6246 228.069L84.4282 229.789Z" fill="#333A45"/>
<path d="M108.643 198.309C108.722 198.799 108.811 199.309 108.9 199.769C108.544 199.279 108.178 198.769 107.812 198.339C108.089 198.339 108.366 198.329 108.643 198.309Z" fill="#464C56"/>
<path d="M85.061 230.319C84.8243 230.176 84.6109 229.997 84.4282 229.789L85.5752 228.069L86.7122 228.859L85.061 230.319Z" fill="#333A45"/>
<path d="M54.6768 230.989C54.8032 230.72 54.9893 230.483 55.2206 230.299L56.763 231.609L56.2983 232.159L54.6768 230.989Z" fill="#333A45"/>
<path d="M80.8392 226.189C80.7386 225.999 80.5924 225.837 80.4141 225.719L81.7291 223.999L82.5102 225.069L80.8392 226.189Z" fill="#333A45"/>
<path d="M110.047 227.729C109.868 227.925 109.677 228.108 109.473 228.279L107.783 226.959L108.771 225.959L110.047 227.729Z" fill="#333A45"/>
<path d="M284.462 351.469L285.065 350.549C286.163 350.399 286.459 349.629 286.509 348.659L288.813 348.759C288.813 351.369 292.194 352.609 291.522 355.499C291.522 356.679 291.215 357.939 292.58 358.639C293.737 359.699 293.519 361.099 293.509 362.449C293.423 362.851 293.453 363.27 293.597 363.655C293.741 364.04 293.992 364.375 294.32 364.619C295.309 365.998 295.734 367.71 295.507 369.399C295.393 369.823 295.42 370.273 295.585 370.679C295.749 371.086 296.041 371.427 296.416 371.649C297.622 372.729 297.405 374.189 297.405 375.579L298.176 377.579C299.323 379.059 299.422 380.819 299.452 382.579C297.86 384.039 298.918 384.399 300.282 384.579C300.363 384.675 300.42 384.79 300.446 384.914C300.471 385.038 300.466 385.167 300.43 385.289L300.994 386.499C301.132 387.499 301.261 388.419 301.399 389.379L302.082 390.509L302.428 392.199L302.991 393.489C303.09 394.179 303.199 394.869 303.308 395.569C301.835 397.009 302.892 397.339 304.168 397.569C306.225 404.949 308.278 412.325 310.328 419.699C295.279 417.969 280.497 414.579 265.567 412.149C259.071 411.089 252.624 409.739 246.138 408.649C243.963 408.279 242.46 407.969 244.388 405.399C252.819 394.139 261.236 382.862 269.641 371.569C271.124 371.479 271.747 370.749 271.361 369.239V369.299C273.972 369.649 273.655 367.849 273.576 366.219C273.551 366.149 273.542 366.074 273.551 366.001C273.56 365.927 273.587 365.857 273.629 365.796C273.67 365.736 273.726 365.686 273.791 365.651C273.856 365.617 273.928 365.599 274.001 365.599C275.257 365.459 275.702 364.689 275.603 363.499C277.669 363.499 277.699 362.109 277.669 360.619V360.559L278.549 359.469L279.429 358.229L279.321 358.349C280.389 358.239 280.596 357.469 280.636 356.569L281.466 355.469C284.225 355.579 284.65 353.759 284.462 351.469Z" fill="#FB1B03"/>
<path d="M291.522 355.499C292.194 352.609 288.833 351.369 288.813 348.759C289.584 347.759 291.225 346.669 288.467 346.169C289.792 345.249 289.663 343.999 289.258 342.679L290.326 340.849L291.789 341.339C294.557 354.119 298.997 366.409 302.339 379.019C306.057 393.019 311.238 406.659 314.204 420.889L312.039 421.469L310.368 419.759C308.318 412.379 306.264 405.002 304.208 397.629C304.282 397.246 304.239 396.85 304.086 396.493C303.932 396.136 303.675 395.834 303.347 395.629C303.239 394.929 303.13 394.239 303.031 393.549L302.467 392.259C302.349 391.689 302.24 391.129 302.121 390.569L301.439 389.439C301.301 388.439 301.172 387.519 301.034 386.559L300.47 385.349C300.506 385.227 300.511 385.099 300.485 384.975C300.459 384.851 300.403 384.735 300.322 384.639C300.367 384.261 300.314 383.878 300.169 383.527C300.023 383.177 299.79 382.87 299.491 382.639C299.491 380.869 299.363 379.109 298.216 377.639C298.289 377.266 298.255 376.879 298.118 376.525C297.981 376.171 297.748 375.863 297.445 375.639C297.445 374.249 297.652 372.789 296.456 371.709C296.149 370.959 295.843 370.209 295.546 369.459C295.774 367.77 295.349 366.058 294.36 364.679L293.549 362.509C293.549 361.159 293.776 359.759 292.62 358.699C292.658 357.531 292.267 356.391 291.522 355.499Z" fill="#5B1012"/>
<path d="M284.462 351.469C284.65 353.759 284.225 355.579 281.407 355.589C281.986 353.933 283.053 352.495 284.462 351.469Z" fill="#F91C06"/>
<path d="M288.467 346.169C291.225 346.669 289.584 347.769 288.813 348.759L286.509 348.659C286.618 348.117 286.852 347.608 287.192 347.176C287.532 346.743 287.969 346.398 288.467 346.169Z" fill="#F91C06"/>
<path d="M277.61 360.699C277.61 362.189 277.61 363.629 275.544 363.579C275.681 362.983 275.934 362.422 276.289 361.927C276.644 361.433 277.093 361.015 277.61 360.699Z" fill="#F91C06"/>
<path d="M273.537 366.279C273.616 367.909 273.932 369.709 271.322 369.359C271.647 368.085 272.439 366.984 273.537 366.279Z" fill="#F91C06"/>
<path d="M271.371 369.299C271.757 370.809 271.134 371.539 269.651 371.629C269.727 371.128 269.924 370.653 270.224 370.247C270.524 369.841 270.918 369.515 271.371 369.299Z" fill="#F91C06"/>
<path d="M275.564 363.559C275.663 364.749 275.218 365.559 273.962 365.659C274.043 365.204 274.231 364.777 274.51 364.411C274.788 364.046 275.15 363.753 275.564 363.559Z" fill="#F91C06"/>
<path d="M286.509 348.659C286.46 349.659 286.163 350.399 285.065 350.549L286.509 348.659Z" fill="#F91C06"/>
<path d="M280.576 356.689C280.576 357.589 280.329 358.359 279.261 358.469L280.576 356.689Z" fill="#F91C06"/>
<path d="M299.462 382.589C299.76 382.82 299.993 383.127 300.139 383.477C300.285 383.828 300.338 384.211 300.292 384.589C298.898 384.409 297.909 384.049 299.462 382.589Z" fill="#F91C06"/>
<path d="M303.318 395.629C303.645 395.834 303.902 396.136 304.056 396.493C304.21 396.85 304.252 397.246 304.178 397.629C302.903 397.399 301.864 397.069 303.318 395.629Z" fill="#F91C06"/>
<path d="M291.522 355.499C292.239 356.381 292.614 357.497 292.58 358.639C291.215 357.939 291.492 356.679 291.522 355.499Z" fill="#F91C06"/>
<path d="M293.509 362.449L294.32 364.619C293.992 364.375 293.741 364.04 293.597 363.655C293.453 363.27 293.423 362.851 293.509 362.449Z" fill="#F91C06"/>
<path d="M295.507 369.399C295.803 370.149 296.11 370.899 296.416 371.649C296.041 371.427 295.749 371.086 295.585 370.679C295.42 370.273 295.393 369.823 295.507 369.399Z" fill="#F91C06"/>
<path d="M297.415 375.579C297.718 375.803 297.952 376.111 298.088 376.465C298.225 376.819 298.259 377.206 298.186 377.579L297.415 375.579Z" fill="#F91C06"/>
</svg>
