<svg width="362" height="300" viewBox="0 0 362 300" fill="none" xmlns="http://www.w3.org/2000/svg">
<path d="M0.633855 299.111C0.633855 200.758 0.656933 102.425 0.703075 4.11136C0.703075 2.85136 -0.869052 0.391353 2.29495 0.261353C2.29495 0.821353 2.24553 1.37137 2.22576 1.93137C2.22576 25.7314 2.20926 49.5314 2.1763 73.3314C2.30355 74.8019 2.56167 76.2577 2.94753 77.6813C1.50395 78.7613 1.35565 80.2514 1.35565 81.9514C1.35565 129.091 1.35565 176.228 1.35565 223.361C1.35565 224.521 0.821723 225.911 2.24552 226.721L2.75966 227.451C2.82887 228.511 3.41224 228.921 4.43065 228.771L5.65672 229.381C5.97312 230.171 6.36861 230.691 7.18927 229.871L8.61307 230.191C10.2664 230.926 12.0526 231.305 13.8584 231.305C15.6642 231.305 17.4504 230.926 19.1037 230.191L22.8214 229.871C25.1851 230.656 27.7349 230.656 30.0986 229.871C31.48 229.89 32.8093 230.408 33.846 231.331C33.8565 231.529 33.9116 231.723 34.0073 231.896C34.103 232.069 34.2366 232.218 34.3979 232.331C34.5591 232.444 34.7438 232.518 34.9378 232.547C35.1318 232.577 35.3299 232.561 35.517 232.501C36.4822 232.927 37.2596 233.695 37.7021 234.661C38.0951 236.875 38.9076 238.99 40.0949 240.891C40.5543 243.6 40.6242 246.362 40.3025 249.091C39.7846 250.333 39.6259 251.698 39.8446 253.027C40.0634 254.357 40.6508 255.596 41.5384 256.601C43.1897 259.721 45.3155 262.361 48.5981 263.861C48.9739 264.581 49.4089 265.071 50.1406 264.201H56.1522C57.487 264.951 58.7526 265.071 59.8896 263.831C61.7606 263.291 63.7436 263.291 65.6145 263.831C66.151 264.368 66.8004 264.776 67.5143 265.023C68.2283 265.271 68.9883 265.352 69.7376 265.261C70.9823 265.753 72.0972 266.53 72.9946 267.531C73.8919 268.532 74.5472 269.73 74.9088 271.031C74.533 272.091 74.3353 273.111 75.5514 273.801C76.0022 275.437 76.0022 277.166 75.5514 278.801C74.0782 279.901 74.365 281.221 75.1065 282.591L74.8692 284.041C73.307 285.111 73.6234 286.441 74.355 287.821C74.355 289.821 74.355 291.871 74.355 293.901C73.3663 295.681 74.1969 296.801 75.7195 297.661C75.9766 298.101 76.9159 298.371 76.0458 299.081L0.633855 299.111Z" fill="#0F1725"/>
<path d="M323.154 183.331C323.154 185.431 323.223 187.551 323.016 189.631C322.828 191.501 323.767 192.011 325.27 192.171L324.548 193.521C316.48 193.521 308.402 193.521 300.334 193.391C298.495 193.391 297.733 193.791 297.803 195.831C297.981 201.261 297.961 206.701 298.02 212.141C298.02 212.911 297.911 213.671 297.852 214.441C297.852 219.401 297.852 224.368 297.852 229.341C297.852 238.891 297.852 238.891 306.909 236.341L307.898 237.421C306.047 238.676 303.894 239.398 301.669 239.511C298.05 239.631 297.634 241.511 297.714 244.661C297.882 261.451 297.783 278.241 297.803 295.031C297.803 296.391 297.931 297.751 298 299.111H295.776L295.598 298.351C295.598 298.101 295.706 297.861 295.756 297.621C295.815 279.061 295.845 260.511 295.963 241.961C295.963 240.101 295.143 239.741 293.6 239.451C280.361 237.001 272.837 229.381 270.78 216.151C270.744 215.433 270.465 214.749 269.989 214.214C269.514 213.679 268.872 213.325 268.17 213.211C265.951 212.606 263.988 211.288 262.575 209.455C261.162 207.623 260.378 205.375 260.339 203.051C260.25 198.351 262.959 194.371 267.824 192.651C269.663 192.001 270.434 191.151 270.226 189.221C270.019 187.291 270.513 185.221 269.841 183.291C270.137 182.601 270.75 182.541 271.363 182.461C272.481 184.461 271.937 186.601 271.868 188.641C271.789 191.081 272.55 191.891 275.002 191.821C280.934 191.641 286.844 191.641 292.73 191.821C295.35 191.901 296.003 191.021 295.983 188.451C295.874 172.141 295.983 155.831 295.983 139.521C295.983 114.621 295.914 89.7214 296.062 64.8214C296.062 61.7014 295.074 60.9314 292.345 61.3814L280.391 63.3814V61.7114C284.668 60.5126 289.06 59.7851 293.492 59.5414C295.044 59.5414 295.944 59.1814 295.934 57.2314C295.865 39.3014 295.934 21.3614 295.884 3.4314C295.939 3.06083 295.885 2.68218 295.728 2.34256C295.572 2.00295 295.32 1.71737 295.004 1.52139V0.211397C298.139 -0.698603 297.743 1.5114 297.743 3.3714V52.1814C297.743 60.1014 298.139 60.3014 306.296 60.5114C308.273 60.5614 311.24 59.7614 312.298 62.8814C308.441 62.3614 304.566 61.8814 300.719 61.3214C298.267 60.9514 297.664 61.9314 297.684 64.3214C297.803 77.8814 297.743 91.4514 297.743 105.021C297.743 132.521 297.812 160.021 297.654 187.531C297.654 191.091 298.712 191.881 301.965 191.721C307.611 191.461 313.286 191.561 318.942 191.651C320.999 191.651 321.75 191.061 321.74 188.911C321.73 186.761 321.058 184.471 322.264 182.391L323.154 183.331Z" fill="#151C2A"/>
<path d="M221.758 299.111L222.084 296.821C222.231 296.667 222.34 296.482 222.405 296.278C222.47 296.075 222.487 295.859 222.457 295.648C222.426 295.437 222.348 295.235 222.229 295.059C222.109 294.883 221.952 294.736 221.768 294.631C220.522 285.541 221.689 276.531 222.757 267.531C223.577 260.391 224.269 253.251 224.457 246.061C224.675 237.791 220.502 232.261 214.006 227.931C212.83 227.141 210.981 227.001 210.714 225.081C211.475 223.591 212.365 224.651 213.067 225.081C221.353 229.931 226.909 236.421 226.445 246.881C226.237 251.601 226.118 256.311 225.565 261.011C224.121 262.401 224.823 264.011 225.238 265.491L224.853 267.751C223.488 268.581 224.091 269.751 224.368 270.821V273.821C222.816 275.071 223.231 276.671 223.597 278.271C223.656 278.711 223.716 279.141 223.785 279.581C222.312 284.581 221.807 289.641 223.785 294.661C223.459 296.151 224.615 297.591 223.953 299.091L221.758 299.111Z" fill="#363D48"/>
<path d="M87.8909 69.6714C83.3427 68.5314 78.8043 67.6114 74.0484 68.5114C64.1609 70.3914 57.477 76.0514 53.5516 85.3214C52.3453 88.1814 52.5629 89.5014 56.0927 89.6014C62.7288 89.6898 69.3358 90.5046 75.7985 92.0314C81.9189 93.5714 87.7327 95.8014 92.2513 100.561L90.9462 101.561C87.4765 98.7755 83.5649 96.6048 79.3778 95.1414C71.0921 92.4914 62.4702 92.1914 53.9175 91.4114C51.7917 91.2214 51.8114 92.5714 51.7818 93.9814C51.5437 99.4895 53.0429 104.932 56.063 109.521C63.2513 120.271 73.3959 123.521 85.6465 121.091V122.761L84.0645 123.201C83.4811 122.561 83.0263 122.751 82.6407 123.431C79.7172 124.152 76.6653 124.152 73.7419 123.431C73.5106 123.127 73.1804 122.915 72.8096 122.833C72.4388 122.75 72.0511 122.803 71.715 122.981C59.3161 120.731 49.7252 108.841 49.8735 95.2714C49.8735 91.7114 48.7859 90.9114 45.6317 90.7814C38.227 90.3952 30.8531 89.5436 23.5529 88.2314C16.4834 87.0514 9.64124 85.7914 3.91638 81.0514C2.59146 79.9514 2.25529 80.8814 2.19597 82.0514C2.19597 82.7914 2.19597 83.5414 2.19597 84.2914C2.19597 131.751 2.19597 179.218 2.19597 226.691C0.772165 225.881 1.30607 224.491 1.30607 223.331C1.30607 176.205 1.30607 129.068 1.30607 81.9214C1.30607 80.2214 1.45439 78.7314 2.89797 77.6514C9.32484 84.0014 17.8479 85.5114 26.0545 87.0914C33.4207 88.5114 41.0934 88.3614 48.6277 88.9814C50.9413 89.1714 50.6941 87.3014 51.1292 85.9814C56.2114 70.9814 71.4777 62.8114 86.2199 67.1714C86.789 67.385 87.341 67.6424 87.8711 67.9414L87.8909 69.6714Z" fill="#404651"/>
<path d="M234.058 108.441C229.787 108.441 225.505 108.281 221.204 108.441C218.367 108.571 217.704 107.361 218.446 104.931C219.79 100.471 221.224 96.0213 222.628 91.5713L240.02 91.3513C240.93 92.8613 239.704 93.9213 239.17 95.0613C237.192 99.2713 235.294 103.491 234.513 108.131C234.335 108.189 234.178 108.297 234.058 108.441Z" fill="#FAAF07"/>
<path d="M262.524 50.4914C266.776 48.9614 271.008 47.4014 275.269 45.9014C277.593 45.0914 278.947 45.4614 278.819 48.4714C278.621 52.9114 278.73 57.3614 278.7 61.8014L277.266 62.7414C271.976 63.4614 267.646 66.7414 262.316 68.8914V51.6414L262.524 50.4914Z" fill="#FAAF07"/>
<path d="M262.524 50.4913L262.316 51.6413L260.576 51.5413C260.576 46.7013 260.438 41.8613 260.467 37.0213C260.467 35.0213 260.349 33.9313 257.887 35.0213C248.709 39.1771 240.208 44.7167 232.674 51.4513C221.164 61.6313 213.037 74.2013 206.857 88.1913H205.305C210.506 73.6113 219.197 61.4013 230.399 50.9813C238.767 43.1995 248.405 36.9436 258.885 32.4913C261.545 31.3513 262.722 31.2613 262.554 34.8113C262.267 40.0213 262.494 45.2613 262.524 50.4913Z" fill="#363D48"/>
<path d="M98.0258 107.791L99.8353 110.681C105.056 103.451 106.094 95.6814 103.948 87.2914C103.721 86.4014 102.594 85.2913 104.186 84.5013C106.015 84.5713 105.58 86.2113 105.857 87.1913C107.021 91.065 107.324 95.1514 106.743 99.1573C106.161 103.163 104.711 106.989 102.495 110.361C101.927 111.133 101.564 112.039 101.439 112.993C101.315 113.947 101.433 114.917 101.783 115.811C104.809 125.031 105.995 134.661 107.459 144.211C107.231 145.101 106.717 146.081 108.121 146.471V148.051C107.765 149.411 107.696 150.701 109.169 151.501C109.09 151.811 109.011 152.121 108.942 152.431C108.791 152.676 108.696 152.952 108.665 153.239C108.634 153.525 108.668 153.815 108.763 154.087C108.858 154.359 109.012 154.606 109.214 154.809C109.416 155.012 109.661 155.167 109.93 155.261C110.316 157.911 110.711 160.561 111.097 163.261C110.86 163.991 110.83 164.841 110.049 165.261C109.944 165.062 109.855 164.855 109.782 164.641C109.782 164.551 109.832 164.431 109.861 164.311C110.018 163.959 110.049 163.562 109.95 163.188C109.851 162.815 109.627 162.488 109.317 162.261C105.916 151.091 105.086 139.411 102.802 128.011C101.961 123.861 100.972 119.771 99.8353 115.701C99.7166 115.121 99.5485 114.521 98.7872 114.701C98.4622 114.8 98.1747 114.996 97.9627 115.264C97.7508 115.532 97.6245 115.859 97.6007 116.201C97.5982 116.245 97.5872 116.287 97.5684 116.326C97.5497 116.365 97.5235 116.4 97.4913 116.429C97.4591 116.458 97.4217 116.48 97.3811 116.494C97.3405 116.508 97.2975 116.514 97.2546 116.511L96.1472 115.271C98.1247 113.391 98.4906 111.271 96.8987 109.011L98.0258 107.791Z" fill="#363D48"/>
<path d="M110.039 165.251C110.82 164.801 110.85 163.951 111.087 163.251C112.125 166.551 113.183 169.851 114.202 173.161C119.373 190.071 130.417 201.561 146.297 208.501C150.687 210.421 155.195 212.051 159.664 213.811V215.491C129.26 207.161 115.181 190.211 110.039 165.251Z" fill="#404651"/>
<path d="M271.294 182.461C270.681 182.541 270.068 182.601 269.772 183.291C250.985 174.511 239.368 159.731 234.177 139.641C233.247 136.061 232.199 132.441 232.763 128.641H234.315C234.395 132.063 234.921 135.459 235.877 138.741C240.574 157.551 251.371 171.451 268.249 180.601C269.287 181.141 270.602 181.331 271.294 182.461Z" fill="#363D48"/>
<path d="M205.305 88.1714H206.858C206.63 89.5814 207.431 89.8114 208.558 89.7914C213.779 89.6914 218.999 89.6214 224.21 89.5414L239.457 89.9313C241.325 91.2313 243.026 89.8614 244.796 89.5914L260.28 89.7114C260.476 89.696 260.673 89.7253 260.856 89.7971C261.039 89.8689 261.205 89.9813 261.339 90.1262C261.474 90.2711 261.575 90.4447 261.634 90.6342C261.694 90.8237 261.711 91.0244 261.684 91.2214L244.054 91.3314H240.099L222.697 91.5513L204.771 91.1913C205.107 90.3013 205.681 89.4513 205.137 88.4413C205.131 88.3838 205.145 88.3261 205.175 88.2772C205.206 88.2283 205.251 88.1911 205.305 88.1714Z" fill="#0F1725"/>
<path d="M208.459 223.581C208.222 224.431 207.648 224.341 207.045 224.091C196.505 219.611 185.234 219.581 174.13 218.561C171.935 218.361 169.75 217.981 167.565 217.681C167.423 217.407 167.377 217.092 167.432 216.788C167.488 216.484 167.642 216.207 167.871 216.001C178.846 217.311 189.999 217.001 200.796 219.881C206.037 221.271 207.026 221.781 208.459 223.581Z" fill="#363D48"/>
<path d="M234.305 128.611H232.753C231.626 121.771 232.98 115.101 234.058 108.411C234.193 108.275 234.365 108.181 234.552 108.141C234.677 108.418 234.879 108.65 235.135 108.811C235.39 108.971 235.686 109.051 235.986 109.041C234.837 115.499 234.274 122.05 234.305 128.611Z" fill="#4D535D"/>
<path d="M159.625 215.461V213.781L167.871 216.051C167.985 216.177 168.068 216.327 168.114 216.491C168.16 216.655 168.168 216.827 168.136 216.994C168.104 217.162 168.034 217.319 167.932 217.454C167.829 217.589 167.696 217.698 167.545 217.771C164.83 217.291 162.175 216.517 159.625 215.461Z" fill="#363D48"/>
<path d="M277.266 62.7413L278.7 61.8013L280.242 61.6913V63.3613L278.71 64.2213L277.662 64.1713L277.266 62.7413Z" fill="#363D48"/>
<path d="M93.8234 71.7714C91.5493 72.0714 90.7286 71.5714 90.1255 69.5314C92.538 69.4814 93.1016 69.8214 93.8234 71.7714Z" fill="#363D48"/>
<path d="M99.0046 77.4313C98.0158 76.8013 96.4833 76.5214 97.5314 74.7714C99.9044 75.2014 100.25 75.8313 99.0046 77.4313Z" fill="#363D48"/>
<path d="M87.8909 69.6713V67.9713C88.7313 68.3413 90.2046 67.7813 90.0958 69.5213C89.4729 70.9613 88.6621 70.0213 87.8909 69.6713Z" fill="#363D48"/>
<path d="M205.107 88.4913C205.651 89.4913 205.107 90.3513 204.741 91.2413C203.515 90.1413 204.801 89.3813 205.107 88.4913Z" fill="#363D48"/>
<path d="M101.951 79.9914C100.171 80.9914 100.151 79.7314 100.122 78.5014C100.428 77.8514 100.913 77.7214 101.447 78.1814C101.981 78.6414 102.416 79.2114 101.951 79.9914Z" fill="#363D48"/>
<path d="M102.663 82.2314C101.041 81.9614 100.685 81.2314 101.931 80.0214C103.563 80.3314 103.82 81.0414 102.663 82.2314Z" fill="#363D48"/>
<path d="M97.5017 74.7514C96.3745 75.8314 96.0581 74.7514 95.623 74.0214C95.8603 73.4014 96.3152 73.0214 96.9381 73.3214C97.0763 73.3667 97.203 73.4422 97.3092 73.5426C97.4153 73.6431 97.4982 73.7659 97.552 73.9025C97.6058 74.039 97.6292 74.1859 97.6205 74.3326C97.6118 74.4793 97.5712 74.6223 97.5017 74.7514Z" fill="#363D48"/>
<path d="M209.903 224.331C209.867 224.464 209.798 224.586 209.702 224.684C209.607 224.782 209.488 224.854 209.357 224.894C209.227 224.933 209.088 224.937 208.955 224.907C208.822 224.877 208.699 224.813 208.598 224.721C208.083 224.401 208.242 224.011 208.459 223.611C208.677 223.211 209.052 223.011 209.567 223.261C210.081 223.511 210.219 223.831 209.903 224.331Z" fill="#363D48"/>
<path d="M103.434 83.7314C102.159 83.7314 102.02 83.2214 102.712 82.2614C103.128 82.0414 103.543 81.8814 103.859 82.3914C104.176 82.9014 104.027 83.4214 103.434 83.7314Z" fill="#363D48"/>
<path d="M95.3165 73.6913C94.6936 73.5513 93.8927 73.5313 94.5749 72.5313C94.8814 72.5313 95.2868 72.4213 95.4747 72.5313C95.9789 72.9613 95.6131 73.3313 95.3165 73.6913Z" fill="#363D48"/>
<path d="M94.5552 72.5114L93.7839 72.5714L93.8334 71.7814L94.7233 71.8713L94.5552 72.5114Z" fill="#363D48"/>
<path d="M210.644 225.061L209.764 224.991L209.942 224.361L210.822 224.431L210.644 225.061Z" fill="#363D48"/>
<path d="M104.166 84.4714C103.849 84.6514 103.503 84.8314 103.296 84.3914C103.227 84.2414 103.395 83.9714 103.454 83.7614L104.334 83.8414L104.166 84.4714Z" fill="#363D48"/>
<path d="M19.153 230.131C17.4997 230.866 15.7135 231.245 13.9077 231.245C12.1018 231.245 10.3157 230.866 8.66235 230.131H19.153Z" fill="#404651"/>
<path d="M30.1481 229.851C27.7844 230.636 25.2345 230.636 22.8708 229.851C25.2353 229.072 27.7836 229.072 30.1481 229.851Z" fill="#404651"/>
<path d="M41.5384 256.581C40.6507 255.576 40.0633 254.337 39.8446 253.007C39.6258 251.678 39.7845 250.313 40.3024 249.071L41.5384 256.581Z" fill="#404651"/>
<path d="M40.0947 240.871C38.9074 238.97 38.0949 236.855 37.7019 234.641C38.5885 235.391 39.2729 236.355 39.6913 237.445C40.1097 238.534 40.2485 239.713 40.0947 240.871Z" fill="#404651"/>
<path d="M59.8896 263.841C58.7525 265.081 57.4869 264.961 56.1521 264.211C57.3105 263.627 58.6412 263.495 59.8896 263.841Z" fill="#404651"/>
<path d="M69.7376 265.241C68.9882 265.332 68.2283 265.251 67.5143 265.003C66.8004 264.756 66.151 264.348 65.6145 263.811C66.3654 263.666 67.1408 263.721 67.8639 263.972C68.5871 264.223 69.233 264.661 69.7376 265.241Z" fill="#404651"/>
<path d="M97.2248 116.511C96.4617 117.539 95.4363 118.338 94.2585 118.821L93.2698 117.531L96.1273 115.271L97.2248 116.511Z" fill="#363D48"/>
<path d="M85.7158 122.741V121.071L87.4066 120.531L88.8897 121.661C87.9832 122.374 86.8642 122.755 85.7158 122.741Z" fill="#363D48"/>
<path d="M94.2487 118.821C93.406 119.75 92.2956 120.387 91.0748 120.641L90.4519 119.171L93.26 117.531L94.2487 118.821Z" fill="#363D48"/>
<path d="M97.5708 116.201C97.5946 115.859 97.7209 115.532 97.9328 115.264C98.1448 114.996 98.4323 114.8 98.7573 114.701C99.5186 114.511 99.6867 115.111 99.8054 115.701C98.8759 115.041 98.2926 115.951 97.5708 116.201Z" fill="#4D535D"/>
<path d="M82.71 123.411C83.0956 122.731 83.5504 122.541 84.1338 123.181C83.9627 123.385 83.7251 123.521 83.4639 123.563C83.2028 123.605 82.9353 123.551 82.71 123.411Z" fill="#4D535D"/>
<path d="M109.307 162.251C109.617 162.478 109.841 162.805 109.94 163.179C110.039 163.552 110.008 163.949 109.851 164.301C109.57 164.052 109.369 163.725 109.272 163.36C109.175 162.995 109.187 162.609 109.307 162.251Z" fill="#404651"/>
<path d="M4.48007 228.731C3.49132 228.881 2.87829 228.471 2.80908 227.411C3.17177 227.48 3.51284 227.636 3.80363 227.865C4.09441 228.095 4.32642 228.392 4.48007 228.731Z" fill="#404651"/>
<path d="M7.23861 229.831C6.41794 230.651 6.02245 230.131 5.70605 229.341C5.97962 229.245 6.27655 229.241 6.55268 229.329C6.82882 229.418 7.06938 229.594 7.23861 229.831Z" fill="#404651"/>
<path d="M35.5169 232.481C35.3314 232.541 35.1349 232.557 34.9424 232.528C34.7498 232.5 34.5661 232.428 34.4052 232.317C34.2443 232.206 34.1103 232.06 34.0134 231.889C33.9166 231.718 33.8593 231.528 33.8459 231.331C34.2121 231.303 34.5767 231.402 34.8803 231.611C35.1838 231.82 35.4083 232.127 35.5169 232.481Z" fill="#404651"/>
<path d="M50.1406 264.181C49.4089 265.051 48.9739 264.561 48.5981 263.841C48.8584 263.729 49.1466 263.702 49.4229 263.763C49.6993 263.824 49.95 263.97 50.1406 264.181Z" fill="#404651"/>
<path d="M71.8237 122.941C72.1599 122.763 72.5475 122.71 72.9183 122.793C73.2891 122.875 73.6193 123.087 73.8507 123.391C73.5068 123.529 73.1304 123.559 72.7693 123.479C72.4083 123.399 72.0791 123.212 71.8237 122.941Z" fill="#4D535D"/>
<path d="M91.0748 120.641L89.5917 121.301L88.949 119.901L90.4519 119.171L91.0748 120.641Z" fill="#363D48"/>
<path d="M89.5916 121.331L88.8501 121.691L87.3669 120.561L88.9489 119.931L89.5916 121.331Z" fill="#363D48"/>
<path d="M322.245 182.421C323.046 181.181 324.479 180.971 325.636 180.341C341.713 171.541 352.57 158.341 357.049 140.421C365.621 106.071 346.568 75.8214 318.329 65.1414C317.281 64.7414 315.294 65.1414 315.768 62.8514C317.331 62.4814 318.665 63.2414 320.02 63.7714C347.052 74.2714 364.079 102.201 360.727 131.331C358.116 153.781 346.795 170.641 327.258 181.741C326.032 182.59 324.627 183.135 323.154 183.331L322.245 182.421Z" fill="#363D48"/>
<path d="M324.558 193.561L325.28 192.211C330.154 193.561 333.19 197.131 333.496 201.891C333.823 206.891 331.311 211.591 326.714 213.141C323.994 214.071 323.401 215.581 322.917 218.141C321.404 226.231 317.261 232.591 309.816 236.421C309.816 235.861 309.816 235.311 309.747 234.761C316.727 229.541 321.266 222.921 321.443 213.831C321.443 211.911 322.927 212.231 324.064 211.971C325.841 211.683 327.489 210.851 328.785 209.587C330.08 208.323 330.962 206.688 331.311 204.901C332.438 200.021 330.332 196.511 324.558 193.561Z" fill="#404651"/>
<path d="M309.747 234.751C309.747 235.301 309.747 235.851 309.816 236.411L307.838 237.411L306.85 236.331L309.747 234.751Z" fill="#151C2A"/>
<path d="M298.03 212.181L309.015 212.351L310.004 213.181C308.837 215.181 306.968 213.881 305.446 214.101C302.944 214.451 300.373 213.791 297.862 214.481C297.921 213.711 297.98 212.951 298.03 212.181Z" fill="#404651"/>
<path d="M92.4493 100.681C94.4261 102.013 95.9921 103.881 96.9679 106.071L95.8407 107.331L91.2134 101.751L92.4493 100.681Z" fill="#4D535D"/>
<path d="M97.1755 106.411C97.4524 106.871 97.7391 107.331 98.0258 107.791L96.869 109.011L96.1274 107.731L97.1755 106.411Z" fill="#363D48"/>
<path d="M95.8406 107.331L96.9677 106.041C97.0389 106.06 97.1001 106.106 97.1387 106.169C97.1773 106.233 97.1905 106.309 97.1754 106.381L96.1273 107.701C96.0485 107.566 95.9521 107.441 95.8406 107.331Z" fill="#363D48"/>
<path d="M92.4491 100.681L91.2132 101.781L90.9758 101.541L92.281 100.541L92.4491 100.681Z" fill="#404651"/>
<path d="M236.777 107.891L235.986 109.071C235.686 109.081 235.39 109.001 235.135 108.841C234.879 108.68 234.677 108.448 234.552 108.171C235.333 103.521 237.232 99.3014 239.209 95.0914C239.743 93.9514 240.969 92.8913 240.06 91.3813H244.054C240.099 96.1613 238.122 101.871 236.777 107.891Z" fill="#352708"/>
<path d="M277.266 62.7414C277.405 63.2114 277.543 63.6914 277.692 64.1614C276.554 64.6314 275.427 65.1614 274.28 65.5614C262.415 70.1014 262.415 70.0914 262.415 82.6814C262.44 83.0543 262.44 83.4284 262.415 83.8014C262.059 86.2814 263.236 88.9114 261.664 91.2714C261.691 91.0744 261.674 90.8738 261.615 90.6843C261.555 90.4948 261.454 90.3212 261.319 90.1763C261.185 90.0314 261.02 89.9189 260.836 89.8471C260.653 89.7753 260.456 89.746 260.26 89.7614C260.26 85.0414 260.378 80.3214 260.388 75.6114C260.388 74.3214 260.181 72.6114 258.47 74.1714C253.408 78.8614 248.256 83.5014 244.776 89.6414C243.006 89.9114 241.306 91.2814 239.437 89.9814C240.999 89.7414 242.403 89.5314 243.461 87.9214C247.516 81.8079 252.572 76.4377 258.411 72.0414C259.499 71.2114 260.477 70.3914 260.388 68.7514C260.25 63.2914 260.22 57.8214 260.141 52.3514L260.517 51.5414L262.257 51.6414V68.8914C267.646 66.7414 271.977 63.4614 277.266 62.7414Z" fill="#352708"/>
<path d="M261.684 91.2714C263.256 88.9114 262.079 86.2714 262.435 83.8014C262.46 83.4284 262.46 83.0543 262.435 82.6814C262.435 70.0914 262.435 70.1014 274.3 65.5614C275.447 65.1214 276.574 64.6314 277.711 64.1614L278.759 64.2214C278.759 77.7414 278.759 91.268 278.759 104.801C278.759 106.731 278.957 108.481 276.06 108.451C263.542 108.351 251.025 108.451 238.488 108.371C237.889 108.288 237.305 108.127 236.747 107.891C238.052 101.891 240.02 96.1614 244.054 91.3714L261.684 91.2714Z" fill="#FAAF07"/>
<path d="M224.21 89.5913C231.457 73.5913 243.145 61.7413 258.114 53.0413C258.784 52.7384 259.483 52.5071 260.2 52.3513C260.28 57.8213 260.309 63.2913 260.448 68.7513C260.448 70.3913 259.518 71.2114 258.47 72.0414C252.631 76.4376 247.576 81.8078 243.52 87.9214C242.472 89.5314 241.058 89.7414 239.496 89.9814L224.21 89.5913Z" fill="#FAAF07"/>
<path d="M244.796 89.6413C248.276 83.5013 253.428 78.8613 258.49 74.1713C260.201 72.5913 260.468 74.3213 260.408 75.6113C260.408 80.3213 260.329 85.0413 260.28 89.7613L244.796 89.6413Z" fill="#FAAF07"/>
<path d="M310.004 213.181L309.015 212.351C309.628 212.331 310.034 212.461 310.004 213.181Z" fill="#363D48"/>
</svg>
