<svg width="70" height="70" viewBox="0 0 70 70" fill="none" xmlns="http://www.w3.org/2000/svg">
<rect width="70" height="70" rx="15" fill="#45B5BC"/>
<g clip-path="url(#clip0_49_249)">
<path d="M17.2997 23.4825H27.4869C27.4507 25.09 28.8686 26.39 30.4824 26.3775C35.4487 26.3362 40.415 26.3687 45.3813 26.3525C45.8369 26.3525 45.9355 26.485 45.9492 26.925C46.0016 28.6012 45.6646 30.3187 46.4085 31.9312C43.8291 31.9379 41.2475 31.9437 38.6639 31.9487C37.5918 31.9487 36.5184 31.9625 35.4462 31.97C34.4989 31.9075 33.7812 32.445 33.7638 33.2925C33.7388 34.4412 33.7638 35.5912 33.7725 36.7412V36.835C33.7662 37.0362 33.7538 37.2387 33.7538 37.4412C33.7479 39.8888 33.743 42.3358 33.7388 44.7825C33.713 44.7823 33.6877 44.7888 33.6651 44.8013H31.3424L31.1464 44.7687C30.1879 44.23 29.1806 43.7837 28.2458 43.1975C26.0828 41.8425 24.2218 40.1412 22.5743 38.2062C22.2398 37.8137 21.8254 37.4562 21.6906 36.9175C21.7468 36.7737 21.798 36.6275 21.8629 36.4875C23.0378 33.9633 24.2139 31.44 25.3913 28.9175C25.5086 28.6675 25.6409 28.4175 25.737 28.1525C25.777 28.0679 25.7997 27.9761 25.8038 27.8826C25.8079 27.789 25.7934 27.6956 25.7611 27.6078C25.7288 27.5199 25.6794 27.4394 25.6157 27.3709C25.552 27.3024 25.4753 27.2473 25.3901 27.2087C25.0269 27.035 24.6549 27.1575 24.4352 27.535C24.3504 27.6825 24.2867 27.8437 24.2143 27.9987C23.0494 30.4762 21.8878 32.9546 20.7296 35.4338C20.5798 35.4175 20.5336 35.2825 20.4799 35.1838C20.0673 34.4964 19.6923 33.787 19.3566 33.0588C19.1369 32.57 19.0096 32.04 18.6988 31.5938C18.9659 31.315 19.2318 31.0337 19.5014 30.7575C19.932 30.3162 19.9919 29.915 19.6699 29.5825C19.3479 29.25 18.936 29.2888 18.4967 29.7075C18.4193 29.7813 18.3331 29.8475 18.247 29.9162C18.2162 29.8935 18.1904 29.8647 18.1711 29.8316C18.1518 29.7985 18.1394 29.7618 18.1347 29.7237C17.598 27.6825 17.2573 25.6075 17.2997 23.4825ZM29.8034 32.5412C29.7799 32.3066 29.6678 32.0898 29.4902 31.935C28.7413 31.185 27.9924 30.435 27.2435 29.6925C26.8304 29.2837 26.4285 29.2475 26.1027 29.575C25.777 29.9025 25.8294 30.3175 26.2276 30.72C26.753 31.2512 27.2735 31.7888 27.8152 32.3013C28.0274 32.5025 28.0149 32.62 27.8152 32.815C27.2635 33.3412 26.7293 33.885 26.1926 34.43C25.8269 34.805 25.8032 35.2362 26.1177 35.5375C26.4323 35.8387 26.8491 35.8088 27.1986 35.465C27.9762 34.7013 28.7425 33.9263 29.5139 33.1562C29.6843 32.9951 29.7878 32.7755 29.8034 32.5412Z" fill="#019AFE"/>
<path d="M33.7452 44.7825C33.7502 42.335 33.7552 39.8879 33.7602 37.4412C33.7602 37.2387 33.7727 37.0362 33.7789 36.835C34.913 36.835 36.0472 36.835 37.1813 36.835C37.4097 36.835 37.6281 36.8175 37.6057 37.1575C37.5482 37.995 37.6855 38.8212 37.7916 39.6475C36.9641 39.69 36.6783 39.88 36.6758 40.4587C36.6658 42.6687 36.6658 44.8771 36.6758 47.0837C36.6758 47.5687 36.9554 47.8525 37.4247 47.855C38.8887 47.855 40.3515 47.8487 41.8143 47.8425L41.9978 47.8787C41.9978 48.0387 42.1226 48.1287 42.215 48.2237C43.454 49.4724 44.8762 50.5241 46.4324 51.3425C48.8775 52.6087 51.4923 53.185 54.237 53.1987C55.4851 53.205 56.7332 53.1987 57.9813 53.1987C57.9813 53.9775 58.0063 54.7563 57.9926 55.535C57.9932 55.8981 57.8564 56.2479 57.6098 56.5139C57.3631 56.78 57.0249 56.9425 56.6633 56.9687C56.4924 56.9844 56.3207 56.9906 56.1491 56.9875C49.2902 56.9875 42.4309 56.99 35.5712 56.995C35.2132 57.0076 34.8559 56.9551 34.5165 56.84C33.9424 56.4475 33.6965 55.91 33.7502 55.215C33.7789 54.83 33.7502 54.4412 33.7415 54.055C33.7415 53.05 33.7415 52.0454 33.7415 51.0412C33.7415 49.2337 33.7415 47.4267 33.7415 45.62V44.7825H33.7452ZM40.1805 51.7C41.2689 51.7 42.3585 51.7 43.4481 51.7C44.0385 51.7 44.3842 51.4175 44.3805 50.9587C44.3768 50.5 44.0385 50.2337 43.4781 50.2325C41.2681 50.2325 39.0581 50.2325 36.848 50.2325C36.2914 50.2325 35.9456 50.5162 35.9344 50.955C35.9232 51.3937 36.2777 51.6975 36.8655 51.705C37.9701 51.7025 39.0747 51.7 40.1805 51.7ZM38.3084 54.9025C38.8525 54.9025 39.398 54.91 39.9434 54.9025C40.4427 54.895 40.7297 54.6175 40.721 54.1725C40.711 53.75 40.4302 53.4825 39.9521 53.4787C38.8788 53.4696 37.8045 53.4696 36.7295 53.4787C36.2477 53.4787 35.9244 53.7938 35.9369 54.2088C35.9494 54.6238 36.2602 54.8937 36.7195 54.9025C37.2462 54.91 37.7754 54.9025 38.3059 54.9025H38.3084ZM49.7599 54.9025C50.2891 54.9025 50.8196 54.9025 51.3488 54.9025C51.8555 54.8937 52.1376 54.625 52.1314 54.1787C52.1314 53.76 51.8381 53.4812 51.3688 53.4775C50.2945 53.4683 49.2203 53.4683 48.1461 53.4775C47.6618 53.4775 47.3398 53.7862 47.3485 54.2025C47.3573 54.6187 47.678 54.8962 48.1711 54.9025C48.699 54.9075 49.2282 54.9025 49.7574 54.9025H49.7599Z" fill="#54525E"/>
<path d="M17.2997 23.4825C17.2573 25.6075 17.598 27.68 18.1384 29.7325C18.1431 29.7705 18.1555 29.8072 18.1748 29.8403C18.1941 29.8734 18.22 29.9022 18.2508 29.925C17.5868 30.6012 16.9203 31.2737 16.2612 31.9525C15.8656 32.3625 15.8544 32.7412 16.24 33.1337C17.0139 33.9204 17.7944 34.7004 18.5815 35.4737C18.9247 35.8125 19.3691 35.8275 19.6586 35.5387C19.9482 35.25 19.9432 34.8162 19.605 34.4587C19.2667 34.1012 18.9198 33.7812 18.5878 33.4325C18.3107 33.1425 17.8014 32.895 17.8127 32.5575C17.8264 32.195 18.3369 31.9512 18.619 31.6462C18.6425 31.6264 18.6691 31.6103 18.6976 31.5987C19.0084 32.045 19.1357 32.575 19.3554 33.0637C19.691 33.792 20.066 34.5014 20.4787 35.1887C20.5361 35.2875 20.5823 35.4225 20.7283 35.4387C20.4974 35.9462 20.2503 36.4475 20.0393 36.9637C19.9996 37.0489 19.9771 37.141 19.9732 37.2349C19.9692 37.3287 19.984 37.4225 20.0165 37.5106C20.049 37.5987 20.0986 37.6795 20.1625 37.7483C20.2264 37.8171 20.3034 37.8725 20.3888 37.9112C20.742 38.0737 21.1277 37.9425 21.3436 37.575C21.4684 37.3625 21.5745 37.14 21.6894 36.9225C21.8217 37.4612 22.2385 37.8187 22.573 38.2112C24.2206 40.1462 26.0815 41.8475 28.2445 43.2025C29.1794 43.7887 30.1866 44.235 31.1452 44.7737C31.0678 44.7737 30.9904 44.7887 30.913 44.7887H13.3906C13.2657 44.7887 13.1409 44.7725 13.0161 44.7637C13.0161 38.2429 13.0161 31.7208 13.0161 25.1975C13.0161 24.045 13.5878 23.4683 14.731 23.4675C15.5873 23.4637 16.4485 23.4762 17.2997 23.4825Z" fill="#018BE5"/>
<path d="M37.7542 23.4425C37.371 23.295 37.2087 23.0213 37.2337 22.6088C37.2549 22.2513 37.2487 21.8913 37.2337 21.5338C37.2162 21.08 37.4409 20.8475 37.8665 20.7525C38.3832 20.6375 38.8924 20.4888 39.4104 20.385C39.5092 20.3754 39.6022 20.3335 39.6748 20.2657C39.7475 20.1979 39.7958 20.108 39.8123 20.01C39.9695 19.3905 40.2159 18.7972 40.5437 18.2488C40.5951 18.1749 40.6215 18.0866 40.6193 17.9967C40.617 17.9068 40.5862 17.8199 40.5312 17.7488C40.2317 17.2763 39.9559 16.7875 39.6576 16.3125C39.4416 15.9688 39.4766 15.6738 39.7699 15.3938C40.0632 15.1138 40.3503 14.8275 40.6323 14.5375C40.9144 14.2475 41.214 14.215 41.556 14.4263C42.019 14.7125 42.4958 14.9788 42.9501 15.2775C43.0322 15.3464 43.1352 15.3853 43.2423 15.3878C43.3493 15.3903 43.4541 15.3563 43.5392 15.2913C44.0574 14.9731 44.6222 14.7382 45.213 14.595C45.3259 14.5755 45.4294 14.5197 45.5077 14.436C45.5861 14.3523 45.6351 14.2453 45.6473 14.1313C45.7596 13.615 45.9069 13.1063 46.0218 12.5888C46.1079 12.1863 46.3438 12.0063 46.7444 12.0088C47.165 12.0088 47.5857 12.0088 48.0063 12.0088C48.1637 11.9962 48.32 12.044 48.4437 12.1423C48.5674 12.2407 48.6493 12.3823 48.6728 12.5388C48.8063 13.0988 48.9648 13.6525 49.0872 14.215C49.0975 14.3064 49.1378 14.3917 49.2017 14.4578C49.2656 14.5238 49.3495 14.5668 49.4404 14.58C50.0594 14.7337 50.6521 14.9789 51.199 15.3075C51.2803 15.3648 51.378 15.3939 51.4773 15.3905C51.5767 15.3872 51.6722 15.3514 51.7494 15.2888C52.195 15.0025 52.6593 14.7463 53.1024 14.4588C53.4768 14.2188 53.7913 14.23 54.1009 14.5625C54.3767 14.8588 54.6725 15.1375 54.9596 15.4238C55.0797 15.5256 55.1571 15.6691 55.176 15.8255C55.195 15.982 55.1543 16.1399 55.0619 16.2675C54.7686 16.7463 54.4903 17.2325 54.1883 17.7025C54.121 17.7862 54.0833 17.8898 54.081 17.9972C54.0787 18.1047 54.1121 18.2098 54.1758 18.2963C54.4935 18.8146 54.7288 19.3793 54.8735 19.97C54.891 20.0837 54.9467 20.1881 55.0313 20.266C55.1159 20.344 55.2244 20.3907 55.339 20.3988C55.857 20.4988 56.3662 20.6488 56.8805 20.7738C57.2686 20.8675 57.4621 21.0938 57.4421 21.5087C57.4247 21.8975 57.4271 22.2875 57.4421 22.6763C57.4584 23.1063 57.2587 23.3475 56.8518 23.4438C56.3063 23.5688 55.7646 23.7175 55.218 23.835C55.1345 23.8446 55.0563 23.8812 54.9953 23.9391C54.9343 23.997 54.8938 24.0732 54.8797 24.1563C54.7157 24.7897 54.4636 25.3969 54.1308 25.96C54.0791 26.0356 54.0534 26.126 54.0574 26.2175C54.0615 26.309 54.0951 26.3968 54.1533 26.4675C54.4454 26.9275 54.7125 27.4025 55.0045 27.8625C55.2317 28.2188 55.2117 28.5275 54.9022 28.8225C54.5927 29.1175 54.3243 29.3912 54.041 29.6812C53.7577 29.9713 53.4856 29.9913 53.1573 29.7888C52.6818 29.4925 52.195 29.2138 51.7245 28.9138C51.6455 28.852 51.5485 28.818 51.4484 28.8169C51.3483 28.8157 51.2506 28.8476 51.1703 28.9075C50.7117 29.206 50.205 29.4225 49.6725 29.5475C49.2045 29.6413 49.0135 29.8888 48.9973 30.3288L48.8949 30.3125L48.9286 26.02C51.1566 25.1813 52.2087 22.52 51.1753 20.325C50.9291 19.7977 50.5772 19.3268 50.1415 18.9417C49.7057 18.5565 49.1954 18.2653 48.6424 18.0863C48.0894 17.9072 47.5055 17.8441 46.9271 17.9009C46.3487 17.9576 45.7881 18.1331 45.2804 18.4163C43.9286 19.1763 42.6194 20.9762 43.327 23.4462L37.7542 23.4425Z" fill="#FE4924"/>
<path d="M37.7915 39.6462C37.6854 38.82 37.5482 37.9937 37.6056 37.1562C37.628 36.8162 37.4096 36.8337 37.1812 36.8337C36.0462 36.8337 34.9121 36.8337 33.7788 36.8337C33.7788 36.8025 33.7788 36.7712 33.7788 36.74H57.9788C57.9788 36.865 57.9987 36.99 57.9987 37.115C57.9987 42.3833 57.9987 47.6521 57.9987 52.9212C57.9987 53.015 57.9887 53.1075 57.9838 53.2013C56.7356 53.2013 55.4875 53.2013 54.2394 53.2013C51.4935 53.1875 48.8799 52.6112 46.4348 51.345C44.8786 50.5266 43.4564 49.4749 42.2174 48.2262C42.12 48.1287 42.0027 48.0412 42.0002 47.8812C42.2186 47.8812 42.4371 47.8662 42.6542 47.8662L52.9463 47.85C53.3956 47.85 53.845 47.8762 54.293 47.8612C54.8073 47.845 55.0419 47.5788 55.0606 47.0238C55.069 45.0871 55.0769 43.15 55.0843 41.2125C55.0843 40.9975 55.0544 40.7825 55.0382 40.5662C55.0968 40.0487 54.8297 39.6912 54.3242 39.6637C53.8961 39.6437 53.4655 39.6775 53.0362 39.6875C52.9114 39.6788 52.7865 39.66 52.6617 39.66H39.1033C38.9785 39.66 38.8537 39.6788 38.7289 39.6875L37.7915 39.6462ZM51.5709 51.8075C52.6942 51.8075 53.8175 51.8075 54.9408 51.8075C55.4813 51.8075 55.7845 51.54 55.7845 51.0887C55.7845 50.6375 55.4887 50.3775 54.9383 50.3762C52.6917 50.3762 50.4451 50.3762 48.1984 50.3762C47.673 50.3762 47.341 50.6662 47.3422 51.0912C47.3435 51.5162 47.6742 51.805 48.2009 51.8075C49.3267 51.8075 50.4488 51.8075 51.5709 51.8075Z" fill="#5D5B68"/>
<path d="M13.0188 44.76C13.1436 44.7687 13.2684 44.785 13.3932 44.785H30.9144C30.9918 44.785 31.0692 44.775 31.1466 44.77L31.3426 44.8025C32.1264 45.1237 32.8802 45.5337 33.7427 45.6237C33.7427 47.4304 33.7427 49.2375 33.7427 51.045L25.6299 51.0525H14.8723C13.5829 51.0525 12.9926 50.4587 13.0001 49.16C13.0038 47.69 13.0126 46.225 13.0188 44.76ZM31.6945 47.9062C31.6961 47.7585 31.6533 47.6137 31.5718 47.4906C31.4902 47.3675 31.3736 47.2718 31.2371 47.2158C31.1005 47.1599 30.9504 47.1463 30.806 47.1768C30.6617 47.2073 30.5298 47.2806 30.4275 47.387C30.3253 47.4935 30.2573 47.6283 30.2323 47.7739C30.2074 47.9195 30.2268 48.0692 30.2879 48.2037C30.3489 48.3382 30.4489 48.4512 30.5749 48.5281C30.7009 48.605 30.847 48.6423 30.9943 48.635C31.1824 48.6276 31.3603 48.5476 31.4909 48.4117C31.6214 48.2759 31.6944 48.0948 31.6945 47.9062Z" fill="#CED1D6"/>
<path d="M37.754 23.4425H43.3207C44.6761 23.4487 46.0329 23.4488 47.3883 23.4613C48.1459 23.4675 48.6764 23.9187 48.8536 24.655C48.961 25.1025 48.8636 25.5562 48.9248 26.0037L48.8911 30.2962C48.8449 30.3659 48.8216 30.4482 48.8242 30.5318C48.8269 30.6153 48.8555 30.696 48.9061 30.7625C48.9061 31.1488 48.9061 31.535 48.9061 31.9212L46.4098 31.9275C45.6609 30.315 46.0029 28.5975 45.9505 26.9212C45.9368 26.4812 45.8382 26.3475 45.3826 26.3487C40.4163 26.365 35.45 26.3325 30.4837 26.3737C28.8611 26.3862 27.447 25.0862 27.4882 23.4787L32.7615 23.4587L37.754 23.4425Z" fill="#59BCFC"/>
<path d="M46.4138 31.9325L48.91 31.9263C50.5892 31.9338 52.2679 31.9417 53.9462 31.95C54.8199 31.95 55.6936 31.94 56.5585 31.9588C56.9364 31.9584 57.2992 32.1073 57.5682 32.3731C57.8371 32.639 57.9905 33.0003 57.9951 33.3788C58.0139 33.9688 57.9951 34.56 57.9864 35.15C51.5976 35.15 45.2085 35.15 38.8189 35.15C38.337 35.1574 37.8591 35.0615 37.4172 34.8688C37.6794 34.3563 37.6519 34.005 37.2924 33.7688C36.893 33.5025 36.5436 33.6225 36.2278 33.9475C35.6349 33.4188 35.5064 32.7088 35.4502 31.97C36.5223 31.9625 37.5957 31.9513 38.6679 31.9488C41.2498 31.9379 43.8318 31.9325 46.4138 31.9325ZM40.2218 34.3738C40.2279 34.1851 40.1592 34.0018 40.0309 33.8636C39.9025 33.7255 39.7248 33.6437 39.5366 33.6363C39.4405 33.6266 39.3434 33.6365 39.2512 33.6653C39.159 33.6942 39.0736 33.7413 39 33.804C38.9264 33.8667 38.8663 33.9436 38.8231 34.0302C38.7799 34.1167 38.7546 34.2111 38.7487 34.3076C38.7429 34.4042 38.7565 34.501 38.7888 34.5921C38.8212 34.6833 38.8716 34.7669 38.937 34.8381C39.0024 34.9093 39.0815 34.9665 39.1695 35.0064C39.2575 35.0462 39.3526 35.0679 39.4492 35.07C39.5462 35.0777 39.6438 35.0655 39.736 35.0341C39.8282 35.0028 39.913 34.9529 39.9853 34.8877C40.0576 34.8224 40.1158 34.743 40.1565 34.6545C40.1972 34.5659 40.2194 34.47 40.2218 34.3725V34.3738ZM42.114 35.0713C42.2105 35.0761 42.3071 35.0614 42.3978 35.0279C42.4886 34.9945 42.5716 34.943 42.642 34.8766C42.7124 34.8102 42.7687 34.7302 42.8074 34.6415C42.8462 34.5528 42.8667 34.4571 42.8676 34.3603C42.8685 34.2634 42.8499 34.1674 42.8128 34.078C42.7758 33.9885 42.721 33.9075 42.6519 33.8398C42.5828 33.772 42.5008 33.719 42.4107 33.6838C42.3206 33.6486 42.2243 33.632 42.1277 33.635C42.0311 33.6301 41.9345 33.6449 41.8438 33.6783C41.753 33.7118 41.67 33.7633 41.5996 33.8297C41.5292 33.8961 41.473 33.976 41.4342 34.0648C41.3954 34.1535 41.375 34.2491 41.374 34.346C41.3731 34.4428 41.3918 34.5388 41.4288 34.6283C41.4659 34.7177 41.5206 34.7988 41.5897 34.8665C41.6588 34.9342 41.7409 34.9873 41.831 35.0225C41.921 35.0577 42.0173 35.0743 42.114 35.0713Z" fill="#FDC101"/>
<path d="M35.4513 31.97C35.5075 32.7087 35.636 33.4187 36.2289 33.9475C36.0766 34.3225 36.0854 34.6762 36.4373 34.935C36.7693 35.185 37.1013 35.09 37.4134 34.8687C37.8559 35.0604 38.3342 35.155 38.8163 35.1462C45.2058 35.1512 51.595 35.1512 57.9838 35.1462C57.9838 35.6787 57.9838 36.2112 57.9838 36.7437H33.7838C33.7838 35.5937 33.7501 34.4437 33.7751 33.295C33.7863 32.445 34.504 31.9075 35.4513 31.97Z" fill="#E4AE00"/>
<path d="M33.7426 54.0575C33.7426 54.4437 33.78 54.8325 33.7513 55.2175C33.6977 55.915 33.9435 56.4525 34.5177 56.8425C34.3841 57.005 34.1994 56.94 34.0372 56.94C29.9084 56.94 25.7808 56.94 21.6532 56.9512C21.2463 56.9512 21.0828 56.855 21.1303 56.4337C21.1652 56.1262 21.1103 55.8087 21.149 55.5012C21.2738 54.56 21.8579 54.0537 22.8265 54.045C23.7613 54.0362 24.6987 54.045 25.6298 54.045L33.7426 54.0575Z" fill="#E5E8ED"/>
<path d="M33.7427 54.0575L25.6299 54.0438C25.6299 53.0438 25.6299 52.0463 25.6299 51.0513L33.7427 51.0438C33.7435 52.0479 33.7435 53.0525 33.7427 54.0575Z" fill="#A9B1BC"/>
<path d="M48.9062 30.7663C48.8557 30.6997 48.8271 30.6191 48.8244 30.5355C48.8217 30.452 48.8451 30.3697 48.8913 30.3L48.9936 30.3163C48.9649 30.4663 48.9362 30.6163 48.9062 30.7663Z" fill="#A9B1BC"/>
<path d="M21.6907 36.9187C21.5759 37.1362 21.4685 37.3587 21.345 37.5712C21.129 37.9387 20.7434 38.0712 20.3901 37.9075C20.3047 37.8687 20.2278 37.8133 20.1639 37.7446C20.1 37.6758 20.0503 37.595 20.0178 37.5068C19.9853 37.4187 19.9706 37.325 19.9745 37.2311C19.9784 37.1373 20.0009 37.0451 20.0407 36.96C20.2516 36.4437 20.4987 35.9425 20.7296 35.435C21.8945 32.9558 23.0561 30.4775 24.2144 28C24.2868 27.845 24.3504 27.6837 24.4353 27.5362C24.655 27.1612 25.0269 27.0362 25.3901 27.21C25.4753 27.2485 25.552 27.3036 25.6157 27.3721C25.6795 27.4406 25.7289 27.5212 25.7612 27.609C25.7935 27.6969 25.808 27.7903 25.8039 27.8838C25.7997 27.9773 25.777 28.0691 25.7371 28.1537C25.6348 28.4137 25.5087 28.665 25.3914 28.9187C24.2148 31.4421 23.0387 33.9654 21.8629 36.4887C21.798 36.6287 21.7469 36.775 21.6907 36.9187Z" fill="#FAFCFE"/>
<path d="M29.8034 32.5412C29.7861 32.7764 29.6804 32.9961 29.5076 33.1563C28.7363 33.9263 27.9699 34.7013 27.1924 35.465C26.8429 35.8088 26.4135 35.825 26.1115 35.5375C25.8094 35.25 25.8207 34.8025 26.1864 34.43C26.7218 33.885 27.256 33.3412 27.8089 32.815C28.0136 32.62 28.0261 32.5025 27.8089 32.3013C27.2672 31.7888 26.7468 31.2512 26.2213 30.72C25.8244 30.3175 25.782 29.8925 26.0965 29.575C26.411 29.2575 26.8242 29.2837 27.2373 29.6925C27.9862 30.4425 28.735 31.1925 29.4839 31.935C29.6639 32.0887 29.7783 32.3057 29.8034 32.5412Z" fill="#FAFCFE"/>
<path d="M18.6952 31.5937C18.6666 31.6053 18.6401 31.6214 18.6165 31.6412C18.3344 31.9462 17.824 32.19 17.8102 32.5525C17.799 32.8887 18.3095 33.1362 18.5853 33.4275C18.9173 33.7762 19.2718 34.1038 19.6025 34.4538C19.9333 34.8038 19.9533 35.2375 19.6562 35.5337C19.3592 35.83 18.9223 35.8075 18.5791 35.4687C17.7919 34.6954 17.0114 33.9154 16.2376 33.1287C15.8519 32.7362 15.8632 32.3575 16.2588 31.9475C16.9178 31.2687 17.5843 30.5962 18.2483 29.92C18.3295 29.8512 18.4156 29.785 18.498 29.7112C18.9373 29.29 19.3417 29.245 19.6712 29.5862C20.0007 29.9275 19.9333 30.32 19.5027 30.7612C19.2306 31.0337 18.9648 31.315 18.6952 31.5937Z" fill="#FAFCFE"/>
<path d="M33.7427 45.6237C32.8802 45.5337 32.1264 45.1237 31.3425 44.8025H33.6728L33.7452 44.8812L33.7427 45.6237Z" fill="#E5E8ED"/>
<path d="M33.744 44.88L33.6729 44.8075C33.6954 44.795 33.7207 44.7886 33.7465 44.7888C33.744 44.815 33.744 44.8475 33.744 44.88Z" fill="#CED1D6"/>
<path d="M37.7915 39.6462L38.7326 39.6887C38.79 39.8875 38.9822 39.9075 39.1308 39.975C39.6225 40.2037 40.1218 40.415 40.6185 40.6337C42.2636 41.3629 43.9078 42.0921 45.5511 42.8212C45.6467 42.8721 45.7527 42.9003 45.8608 42.9038C45.969 42.9072 46.0766 42.8858 46.1752 42.8412C48.1722 41.9475 50.1692 41.0712 52.1662 40.1625C52.4633 40.0262 52.8377 40.0062 53.0399 39.6887C53.4693 39.6787 53.8999 39.645 54.328 39.665C54.8272 39.6875 55.1006 40.05 55.0419 40.5675C54.4503 40.6687 53.946 40.99 53.4093 41.225C51.6046 42.0133 49.8035 42.8096 48.0062 43.6138C47.9201 43.6525 47.784 43.6625 47.789 43.8112C49.1757 44.4362 50.5586 45.0687 51.9478 45.6862C52.9812 46.1437 54.0247 46.5813 55.0681 47.0275C55.0444 47.5825 54.8185 47.8487 54.3005 47.865C53.8524 47.88 53.4031 47.8587 52.9538 47.8537C52.7915 47.5262 52.4395 47.4787 52.1575 47.3537C50.2915 46.5125 48.4131 45.7025 46.5496 44.8537C46.0941 44.6475 45.6872 44.525 45.2491 44.8537C45.1543 44.9057 45.0543 44.9476 44.9508 44.9787C43.7318 45.5187 42.5124 46.0579 41.2925 46.5962C41.0753 46.6925 40.9767 46.755 41.1677 47.0225C41.3749 47.3112 41.7144 47.4925 41.8242 47.8512C40.3614 47.8575 38.8986 47.87 37.4346 47.8638C36.9628 47.8638 36.6857 47.5775 36.6857 47.0925C36.6774 44.8825 36.6774 42.6742 36.6857 40.4675C36.6782 39.8787 36.964 39.6887 37.7915 39.6462ZM38.2583 41.2313C38.2477 41.3565 38.254 41.4827 38.277 41.6063C38.6968 42.9248 39.2734 44.1881 39.9945 45.3687C40.1043 45.5437 40.2017 45.4937 40.3377 45.4362C41.2027 45.0475 42.0726 44.6725 42.9313 44.2725C43.2708 44.115 43.669 44.055 43.966 43.7237C43.0923 43.3325 42.2686 42.9412 41.4261 42.5887C40.3664 42.1425 39.3529 41.5913 38.2583 41.2313Z" fill="#E54120"/>
<path d="M41.8168 47.8462C41.707 47.4875 41.3675 47.3062 41.1603 47.0175C40.9693 46.75 41.0679 46.6875 41.2851 46.5912C42.5041 46.0537 43.7235 45.5146 44.9434 44.9737C45.0469 44.9426 45.1469 44.9007 45.2417 44.8487C45.6798 44.5212 46.0867 44.6437 46.5422 44.8487C48.4044 45.6962 50.2866 46.5062 52.1501 47.3487C52.4321 47.4737 52.7841 47.5262 52.9464 47.8487L42.6543 47.865C42.4371 47.865 42.2187 47.875 42.0003 47.88L41.8168 47.8462Z" fill="#FE4823"/>
<path d="M40.1805 51.7C39.0747 51.7 37.9701 51.7 36.8655 51.7C36.2776 51.7 35.9219 51.4088 35.9344 50.95C35.9469 50.4913 36.2914 50.2287 36.848 50.2275C39.0589 50.2275 41.2689 50.2275 43.4781 50.2275C44.0385 50.2275 44.3755 50.51 44.3805 50.9538C44.3855 51.3975 44.0385 51.6925 43.4481 51.695C42.3585 51.7025 41.2689 51.7 40.1805 51.7Z" fill="#E4E4E4"/>
<path d="M38.3058 54.9025C37.7754 54.9025 37.2462 54.91 36.7169 54.9025C36.2576 54.8938 35.9456 54.6088 35.9344 54.2088C35.9231 53.8088 36.2452 53.4825 36.7269 53.4788C37.8003 53.4713 38.8745 53.4713 39.9496 53.4788C40.4276 53.4788 40.7085 53.75 40.7184 54.1725C40.7272 54.6175 40.4414 54.895 39.9409 54.9025C39.3954 54.91 38.85 54.9025 38.3058 54.9025Z" fill="#E4E4E4"/>
<path d="M49.7575 54.9025C49.2283 54.9025 48.699 54.9025 48.1686 54.9025C47.6756 54.9025 47.3536 54.6162 47.3461 54.2025C47.3386 53.7887 47.6594 53.4812 48.1436 53.4775C49.217 53.47 50.2912 53.47 51.3663 53.4775C51.8356 53.4775 52.1239 53.76 52.1289 54.1787C52.1289 54.625 51.8531 54.8938 51.3463 54.9025C50.8171 54.9088 50.2867 54.9025 49.7575 54.9025Z" fill="#E4E4E4"/>
<path d="M53.0363 39.6887C52.8328 40.0062 52.4584 40.0262 52.1626 40.1625C50.1743 41.0712 48.1686 41.9475 46.1716 42.8412C46.0729 42.8858 45.9654 42.9072 45.8572 42.9038C45.7491 42.9003 45.6431 42.8721 45.5475 42.8212C43.905 42.0887 42.2608 41.3596 40.6149 40.6337C40.1157 40.415 39.6164 40.2037 39.1272 39.975C38.9799 39.9075 38.7864 39.8875 38.729 39.6887C38.8538 39.68 38.9786 39.6612 39.1034 39.6612H52.6656C52.7892 39.6612 52.9127 39.6825 53.0363 39.6887Z" fill="#FE4823"/>
<path d="M55.0606 47.025C54.0209 46.5788 52.9775 46.1413 51.9403 45.6838C50.5511 45.0688 49.1682 44.4338 47.7815 43.8088C47.7815 43.66 47.9063 43.65 47.9987 43.6113C49.7976 42.8113 51.5987 42.015 53.4018 41.2225C53.9385 40.9875 54.4428 40.6663 55.0344 40.565C55.0506 40.7813 55.0806 40.9963 55.0806 41.2113C55.0781 43.1504 55.0714 45.0883 55.0606 47.025Z" fill="#FE4823"/>
<path d="M51.5709 51.8075C50.4476 51.8075 49.3243 51.8075 48.201 51.8075C47.6743 51.8075 47.3435 51.5225 47.3423 51.0912C47.341 50.66 47.673 50.3775 48.1985 50.3762C50.4451 50.3762 52.6918 50.3762 54.9384 50.3762C55.4888 50.3762 55.7834 50.6362 55.7846 51.0887C55.7859 51.5412 55.4813 51.805 54.9409 51.8075C53.8163 51.8075 52.693 51.8075 51.5709 51.8075Z" fill="#FEFEFE"/>
<path d="M31.6944 47.9063C31.7011 48.0518 31.6646 48.196 31.5896 48.3208C31.5145 48.4456 31.4042 48.5453 31.2726 48.6074C31.1411 48.6695 30.9941 48.6912 30.8502 48.6697C30.7063 48.6482 30.572 48.5845 30.4642 48.4867C30.3565 48.3888 30.28 48.2612 30.2446 48.1199C30.2092 47.9786 30.2163 47.83 30.2651 47.6928C30.3139 47.5555 30.4022 47.4359 30.5189 47.3488C30.6355 47.2618 30.7753 47.2113 30.9206 47.2038C31.0178 47.1973 31.1154 47.2106 31.2074 47.2427C31.2994 47.2748 31.384 47.3251 31.4562 47.3907C31.5284 47.4562 31.5867 47.5356 31.6277 47.6242C31.6686 47.7128 31.6913 47.8087 31.6944 47.9063Z" fill="#019AFE"/>
<path d="M37.417 34.8688C37.105 35.09 36.773 35.1788 36.441 34.935C36.089 34.6763 36.0803 34.3238 36.2326 33.9475C36.5433 33.6225 36.8978 33.5025 37.2972 33.7688C37.6479 34.005 37.6754 34.3563 37.417 34.8688Z" fill="#FEFEFE"/>
<path d="M40.2217 34.3725C40.2191 34.4698 40.1968 34.5657 40.156 34.6541C40.1153 34.7425 40.057 34.8217 39.9847 34.8868C39.9124 34.952 39.8277 35.0017 39.7356 35.033C39.6435 35.0642 39.546 35.0764 39.4491 35.0687C39.3525 35.0666 39.2574 35.045 39.1694 35.0051C39.0814 34.9653 39.0023 34.908 38.9369 34.8369C38.8715 34.7657 38.8211 34.682 38.7887 34.5909C38.7564 34.4997 38.7428 34.4029 38.7486 34.3064C38.7545 34.2098 38.7798 34.1155 38.823 34.0289C38.8662 33.9424 38.9263 33.8655 38.9999 33.8028C39.0734 33.7401 39.1589 33.6929 39.2511 33.6641C39.3433 33.6353 39.4404 33.6254 39.5365 33.635C39.7247 33.6425 39.9024 33.7242 40.0308 33.8624C40.1591 34.0005 40.2278 34.1839 40.2217 34.3725Z" fill="#FEFEFE"/>
<path d="M42.1137 35.07C42.0171 35.073 41.9208 35.0564 41.8307 35.0212C41.7406 34.986 41.6586 34.933 41.5895 34.8652C41.5203 34.7975 41.4656 34.7165 41.4286 34.627C41.3915 34.5376 41.3729 34.4416 41.3738 34.3447C41.3747 34.2479 41.3952 34.1522 41.434 34.0635C41.4727 33.9748 41.529 33.8948 41.5994 33.8284C41.6698 33.762 41.7528 33.7105 41.8436 33.6771C41.9343 33.6436 42.0309 33.6289 42.1274 33.6337C42.2241 33.6307 42.3204 33.6473 42.4104 33.6825C42.5005 33.7177 42.5826 33.7708 42.6517 33.8385C42.7208 33.9062 42.7755 33.9873 42.8126 34.0767C42.8496 34.1662 42.8683 34.2622 42.8673 34.359C42.8664 34.4559 42.846 34.5515 42.8072 34.6402C42.7684 34.729 42.7122 34.8089 42.6418 34.8753C42.5714 34.9417 42.4883 34.9932 42.3976 35.0267C42.3069 35.0601 42.2103 35.0749 42.1137 35.07Z" fill="#FEFEFE"/>
<path d="M38.2584 41.2313C39.353 41.5913 40.3665 42.1425 41.4262 42.585C42.2686 42.9375 43.0949 43.3288 43.9661 43.72C43.669 44.0513 43.2709 44.1113 42.9314 44.2688C42.0727 44.6688 41.2027 45.0438 40.3378 45.4325C40.2017 45.4938 40.1044 45.54 39.9946 45.365C39.2735 44.1843 38.6969 42.9211 38.2771 41.6025C38.2541 41.4789 38.2478 41.3528 38.2584 41.2275V41.2313Z" fill="#FE4823"/>
</g>
<defs>
<clipPath id="clip0_49_249">
<rect width="45" height="45" fill="white" transform="translate(13 12)"/>
</clipPath>
</defs>
</svg>
