<svg width="14" height="3" viewBox="0 0 14 3" fill="none" xmlns="http://www.w3.org/2000/svg">
<path d="M1.49768 0.941406L1.72449 1.63947H2.45848L1.86467 2.0709L2.09149 2.76896L1.49768 2.33754L0.903866 2.76896L1.13068 2.0709L0.536872 1.63947H1.27086L1.49768 0.941406Z" fill="#222222"/>
<path d="M4.32641 0.941406L4.55323 1.63947H5.28721L4.69341 2.0709L4.92022 2.76896L4.32641 2.33754L3.7326 2.76896L3.95942 2.0709L3.36561 1.63947H4.0996L4.32641 0.941406Z" fill="#222222"/>
<path d="M7.15515 0.941406L7.38196 1.63947H8.11595L7.52214 2.0709L7.74896 2.76896L7.15515 2.33754L6.56134 2.76896L6.78815 2.0709L6.19434 1.63947H6.92833L7.15515 0.941406Z" fill="#222222"/>
<path d="M9.98376 0.941406L10.2106 1.63947H10.9446L10.3508 2.0709L10.5776 2.76896L9.98376 2.33754L9.38995 2.76896L9.61677 2.0709L9.02296 1.63947H9.75694L9.98376 0.941406Z" fill="#222222"/>
<path d="M12.8125 0.941406L13.0393 1.63947H13.7733L13.1795 2.0709L13.4063 2.76896L12.8125 2.33754L12.2187 2.76896L12.4455 2.0709L11.8517 1.63947H12.5857L12.8125 0.941406Z" fill="#222222" fill-opacity="0.5"/>
</svg>
