<svg width="296" height="302" viewBox="0 0 296 302" fill="none" xmlns="http://www.w3.org/2000/svg">
<path d="M136.149 299.39C137.277 300.04 137.969 298.39 139.046 298.81C139.837 299.44 140.213 300.98 141.716 300.07C145.523 300.01 149.339 299.92 153.146 299.92C185.023 299.92 216.891 299.83 248.768 299.99C252.614 299.99 253.712 298.5 253.801 295.07C253.889 289.208 253.013 283.372 251.21 277.8C249.885 273.39 248.55 268.98 248.531 264.3C248.471 252.48 254.691 245.04 266.328 244.12C274.891 243.44 283.532 243.73 292.144 243.58C293.242 244.43 293.588 243.91 293.608 242.77C294.102 241.85 294.596 241.85 295.081 242.77V301.84C293.252 301.76 291.413 301.62 289.574 301.62H4.24016C3.25304 301.701 2.26104 301.701 1.27391 301.62C-0.347635 301.35 0.0775439 300.49 0.858656 299.62C2.19347 299.72 3.53817 299.91 4.87298 299.91" fill="#111825"/>
<path d="M295.091 144.07C294.676 144.63 294.102 144.97 293.806 144.13C293.611 143.143 293.555 142.133 293.637 141.13C293.637 98.1966 293.66 55.2666 293.707 12.3399C293.707 11.4299 292.283 9.19995 295.091 9.43995V144.07Z" fill="#111825"/>
<path d="M295.091 149.3C293.529 151.11 293.756 148.42 292.916 148.41L292.975 146.77C293.637 146.41 293.964 144.43 295.091 146.31V149.3Z" fill="#111825"/>
<path d="M295.091 200.9C295.021 200.99 294.952 201.16 294.863 201.18C292.49 201.49 293.795 199.61 293.706 198.86C293.469 196.93 293.617 196.92 295.091 196.41V200.9Z" fill="#111825"/>
<path d="M293.627 1.17993L295.091 1.24994V3.46994C294.25 4.59994 293.795 4.19995 293.519 3.06995C293.558 2.46995 293.588 1.81993 293.627 1.17993Z" fill="#41464F"/>
<path d="M0.888207 222.71C-0.30818 222.09 0.186173 220.96 0.186173 220.06C0.146623 206.987 0.146623 193.913 0.186173 180.84C0.186173 179.73 0.0773911 178.58 0.907941 177.66C4.60587 176.26 7.82923 173.95 11.2108 171.98C42.9496 153.48 74.672 134.95 106.378 116.39C108.253 115.207 110.391 114.52 112.597 114.39C118.243 114.12 123.899 113.78 129.544 113.47C129.572 113.8 129.498 114.13 129.331 114.415C129.165 114.701 128.914 114.926 128.615 115.06C123.602 115.45 118.589 115.85 113.566 116.22C108.543 116.59 107.159 118.08 107.634 123.22C107.995 127.51 109.266 131.672 111.36 135.421C113.453 139.171 116.32 142.421 119.766 144.95C121.852 146.55 124.235 147.57 126.993 146.82L128.111 147.9C111.671 157.6 95.2183 167.297 78.7523 176.99C53.8424 191.57 28.916 206.12 3.9731 220.64C2.90525 221.3 1.91651 222.03 0.888207 222.71Z" fill="#101826"/>
<path d="M201.496 127.95C200.21 132.95 198.777 138.03 197.689 143.13C197.125 145.74 196.097 146.21 193.655 145.53C175.768 140.58 157.842 135.74 139.936 130.87V130.61C142.179 128.259 143.934 125.478 145.097 122.43C145.214 122.262 145.295 122.071 145.335 121.87C146.046 121.53 146.62 121.08 146.59 120.18C147.717 118.26 149.369 116.63 149.794 114.31C152.325 113.99 154.599 115.14 156.933 115.76C167.146 118.47 177.242 121.6 187.505 124.08C192.083 125.19 196.453 127.24 201.248 127.4C201.346 127.576 201.429 127.76 201.496 127.95Z" fill="#5003F9"/>
<path d="M130.237 112.72C132.135 102.97 135.18 93.54 137.632 83.94C139.788 75.53 142.121 67.17 144.237 58.75C144.811 56.47 145.532 55.68 147.994 56.48C153.017 58.09 158.149 59.34 163.231 60.74L163.439 61.07C161.847 63.65 161.639 66.71 160.868 69.53C157.289 82.67 154.085 95.9 150.733 109.1C150.298 110.8 149.418 112 147.421 111.99C146.353 111.99 145.177 111.75 144.297 112.72L139.867 112.97C136.673 112.21 133.44 112.91 130.237 112.72Z" fill="#5003F9"/>
<path d="M293.627 1.18002C293.627 1.82002 293.558 2.45003 293.519 3.09003C292.174 3.01003 290.819 2.87003 289.475 2.87003H4.56624C3.34019 2.87003 2.11417 2.99003 0.888119 3.06003C-0.0017561 2.18003 -0.308286 1.36003 1.30338 1.06003C2.16056 0.968149 3.02397 0.951433 3.884 1.01004H290.315C291.412 1.03004 292.52 1.13002 293.627 1.18002Z" fill="#313841"/>
<path d="M237.12 215.91C235.786 227.91 228.538 235.6 216.703 237.68C208.793 239.06 200.982 238 193.161 237.33C188.869 236.96 184.598 236.72 180.307 236.63C177.617 236.63 177.341 237.44 178.181 239.92C181.938 251.54 176.757 263.27 166.059 267.83C165.486 268.025 164.897 268.169 164.299 268.26L162.885 267.01C163.32 266.8 163.745 266.56 164.19 266.37C174.819 261.84 179.496 252.19 176.5 241.06C175.739 238.25 174.641 236.86 171.329 238.16C166.128 240.16 162.134 243.67 158.475 247.73L157.487 246.49C160.453 241.61 164.902 238.68 169.965 236.57C173.732 235.01 173.771 234.94 170.578 232.08C165.298 227.36 155.806 224.16 145.028 231.08L143.881 229.92C152.503 222.5 165.822 223.51 173.682 232.41C174.333 233.275 175.204 233.945 176.202 234.348C177.2 234.751 178.287 234.873 179.348 234.7C185.883 234.1 192.37 235.13 198.856 235.7C204.63 236.22 210.414 236.7 216.159 235.64C226.116 233.74 232.968 228.29 235.281 217.91C235.507 217.212 235.809 216.541 236.181 215.91H237.12Z" fill="#41464F"/>
<path d="M224.89 55.88C230.219 56.01 235.074 58.26 240.166 59.46C241.916 59.88 241.155 61.18 240.907 62.17C239.711 67.11 238.465 72.04 237.249 76.98C236.547 77.53 235.677 77.98 236.26 79.14L236.507 79.9301C236.181 80.3801 235.173 80.4301 235.667 81.3701L235.192 83.17C234.915 83.32 234.471 83.41 234.391 83.63C234.194 84.19 234.629 84.48 235.084 84.63L234.896 84.92L235.064 85.22C233.64 85.4 233.739 86.31 234.075 87.33C234.154 87.62 234.233 87.91 234.303 88.2C233.581 88.72 232.671 89.2 233.314 90.32C229.774 103.88 226.234 117.447 222.695 131.02C222.289 132.58 221.637 132.91 220.064 132.45C214.3 130.73 208.486 129.18 202.692 127.56C202.565 127.323 202.371 127.129 202.136 127.003C201.9 126.876 201.633 126.823 201.367 126.85C200.299 126.85 199.924 126.44 200.547 125.44L202.316 125.37C207.389 126.83 212.52 128.13 217.513 129.82C220.153 130.71 221.063 130.1 221.726 127.4C225.74 111.1 230.624 95.02 234.411 78.67C235.598 73.6 237.022 68.59 238.574 63.67C239.246 61.51 238.574 60.85 236.596 60.38C232.641 59.43 228.785 58.27 224.88 57.19L224.89 55.88Z" fill="#373B45"/>
<path d="M163.448 61.07L163.231 60.74C165.416 55.34 166.662 49.64 167.977 44C168.699 40.91 169.628 40.12 172.871 41C185.013 44.48 197.264 47.59 209.455 50.83C209.663 52.26 210.642 51.95 211.561 51.83L213.005 52.15L213.084 53.73C211.988 53.798 210.889 53.7274 209.811 53.52C197.817 49.52 185.438 46.96 173.395 43.2C170.923 42.43 170.152 43.2 169.539 45.55C168.194 50.74 167.423 56.11 164.941 60.95L163.448 61.07Z" fill="#373B45"/>
<path d="M237.12 215.91H236.211C237.14 201.64 233.857 187.18 237.763 173.07C239.43 167.005 243.137 161.718 248.244 158.12L249.401 159.24C240.877 166.5 237.713 176.07 237.852 187C237.931 193.44 238.692 199.92 238.129 206.29C237.812 209.47 238.238 212.8 237.12 215.91Z" fill="#373B45"/>
<path d="M249.361 159.24L248.204 158.12C253.781 152.9 260.712 150.48 267.871 148.82C276.078 146.795 284.552 146.103 292.975 146.77L292.916 148.41C286.064 148.7 279.202 148.77 272.389 149.94C264.133 151.299 256.272 154.474 249.361 159.24Z" fill="#41464F"/>
<path d="M162.875 267.01L164.289 268.26C161.352 269.507 158.16 270.019 154.985 269.75C153.353 269.64 152.543 269.66 152.553 272.01C152.553 277.41 150.348 282.46 149.211 287.69C149.112 288.19 148.825 288.97 147.975 288.37C146.501 287.44 147.777 286.43 147.975 285.51C148.914 280.81 149.804 276.09 150.941 271.45C151.544 269.06 150.041 268.45 148.568 267.69L149.893 266.4C151.87 266.73 151.593 265.23 151.771 264.07C152.414 259.95 152.869 255.78 154.5 251.88C154.787 251.18 154.609 249.82 156.092 250.26C157.081 253.26 154.906 255.72 154.55 258.53C153.324 268.23 151.079 268.37 162.875 267.01Z" fill="#313841"/>
<path d="M140.144 260.91C137.155 257.233 135.464 252.653 135.339 247.895C135.213 243.137 136.661 238.472 139.452 234.64L140.529 235.92C136.001 244.51 135.586 252.83 142.082 260.71L140.144 260.91Z" fill="#373B45"/>
<path d="M139.906 130.61V130.87C136.782 135.53 133.687 140.21 130.533 144.87C129.792 145.95 129.396 147.33 128.071 147.95L126.954 146.87C130.507 141.47 134.05 136.063 137.583 130.65L139.906 130.61Z" fill="#373B45"/>
<path d="M141.716 300.07C140.213 300.98 139.837 299.44 139.046 298.81L139.303 297.44C143.258 295.64 144.741 291.72 147.015 288.44L148.093 289.88C147.174 293.05 145.038 295.34 142.784 297.58C142.151 298.23 140.47 298.56 141.716 300.07Z" fill="#41464F"/>
<path d="M130.236 112.72C133.44 112.91 136.673 112.21 139.867 112.97C139.867 113.49 139.867 113.97 139.867 114.52C136.515 116.16 132.758 115.06 129.317 116.13L128.546 115.07C128.845 114.936 129.095 114.71 129.262 114.425C129.429 114.14 129.503 113.81 129.475 113.48L130.236 112.72Z" fill="#270B7C"/>
<path d="M213.094 53.7401C213.094 53.2101 213.044 52.74 213.015 52.16C217.078 53.08 221.271 53.52 224.88 55.88V57.19C220.994 55.96 216.772 55.7801 213.094 53.7401Z" fill="#656670"/>
<path d="M143.911 229.88L145.058 231.04L141.103 235.12L139.798 234.22C140.692 232.378 142.129 230.862 143.911 229.88Z" fill="#373B45"/>
<path d="M140.144 260.91L142.121 260.71L144.336 262.95L143.041 263.95C142.752 263.932 142.478 263.811 142.27 263.607C142.061 263.404 141.932 263.132 141.904 262.84C141.904 262.45 142.28 261.71 141.36 262.32L140.144 260.91Z" fill="#41464F"/>
<path d="M149.913 266.4L148.588 267.69C147.583 267.46 146.668 266.935 145.958 266.18L147.263 265.07C148.259 265.229 149.184 265.693 149.913 266.4Z" fill="#41464F"/>
<path d="M201.367 126.89C201.633 126.863 201.9 126.916 202.136 127.043C202.371 127.169 202.565 127.363 202.692 127.6L201.496 127.96C201.421 127.765 201.329 127.577 201.219 127.4C201.258 127.23 201.318 127.06 201.367 126.89Z" fill="#41464F"/>
<path d="M143.001 263.91L144.296 262.91L145.572 263.91L144.712 265.2C144.353 265.118 144.016 264.961 143.721 264.738C143.427 264.516 143.181 264.234 143.001 263.91Z" fill="#373B45"/>
<path d="M147.263 265.07L145.958 266.18L145.117 265.6L146.432 264.6L147.263 265.07Z" fill="#373B45"/>
<path d="M148.093 289.91L147.016 288.47C147.292 288.01 147.609 287.92 148.004 288.37C148.973 288.81 148.38 289.37 148.093 289.91Z" fill="#313841"/>
<path d="M139.481 234.64L139.847 234.22L141.152 235.12L140.559 235.92L139.481 234.64Z" fill="#373B45"/>
<path d="M141.32 262.28C142.24 261.67 141.884 262.41 141.864 262.8L141.32 262.28Z" fill="#373B45"/>
<path d="M145.117 265.6L144.712 265.25L145.572 263.96L146.432 264.55L145.117 265.6Z" fill="#373B45"/>
<path d="M293.618 242.77C293.618 243.91 293.252 244.43 292.154 243.58L293.618 242.77Z" fill="#41464F"/>
<path d="M201.367 126.89C201.318 127.06 201.258 127.23 201.219 127.4C196.423 127.24 192.053 125.19 187.475 124.08C177.212 121.6 167.117 118.47 156.903 115.76C154.569 115.14 152.295 113.99 149.764 114.31C148.36 112.31 145.809 114.24 144.296 112.72C145.176 111.72 146.353 111.98 147.421 111.99C149.398 111.99 150.298 110.8 150.733 109.1C154.085 95.9 157.289 82.67 160.868 69.53C161.639 66.71 161.857 63.6499 163.439 61.0699L164.951 60.96L165.752 61.48C165.752 62.09 165.703 62.7 165.673 63.31C164.061 69.4 161.718 75.31 161.164 81.66C160.771 81.7556 160.427 81.9986 160.203 82.34C159.98 82.6814 159.892 83.0959 159.958 83.5C158.436 89.7333 156.91 95.9633 155.38 102.19C155.129 102.34 154.929 102.564 154.807 102.832C154.686 103.1 154.647 103.399 154.698 103.69C154.312 105.13 153.947 106.56 153.561 107.99C152.454 112.08 152.671 112.4 156.854 112.67C157.008 112.916 157.232 113.111 157.496 113.228C157.76 113.346 158.053 113.381 158.337 113.33C161.57 113.96 164.586 115.52 167.937 115.66C168.09 115.912 168.314 116.112 168.58 116.233C168.847 116.354 169.143 116.391 169.43 116.34C172.733 117.22 176.025 118.16 179.318 118.97C186.239 120.66 192.943 123.56 200.171 124.1C200.289 124.56 200.398 125.02 200.517 125.48C199.923 126.47 200.299 126.89 201.367 126.89Z" fill="#270B7C"/>
<path d="M144.297 112.72C145.839 114.24 148.36 112.3 149.764 114.31C149.339 116.63 147.688 118.26 146.561 120.18C145.463 120.18 144.949 120.72 145.305 121.87C145.266 122.071 145.185 122.262 145.068 122.43L143.931 121.37C144.326 120.12 143.09 119.64 142.715 118.75C142.774 118.557 142.788 118.352 142.757 118.152C142.726 117.952 142.649 117.762 142.533 117.597C142.418 117.431 142.266 117.295 142.09 117.199C141.914 117.102 141.718 117.048 141.518 117.04C141.142 116.04 141.053 114.97 139.906 114.52C139.906 114 139.906 113.52 139.906 112.97L144.297 112.72Z" fill="#101826"/>
<path d="M143.931 121.37L145.068 122.43C143.904 125.478 142.149 128.259 139.906 130.61H137.612C137.496 130.434 137.453 130.218 137.494 130.01C139.906 127.35 140.905 123.59 143.931 121.37Z" fill="#270B7C"/>
<path d="M145.305 121.87C144.949 120.72 145.463 120.23 146.561 120.18C146.59 121.08 146.017 121.53 145.305 121.87Z" fill="#270B7C"/>
<path d="M158.475 247.73C158.388 247.771 158.292 247.792 158.196 247.79C158.099 247.787 158.004 247.762 157.919 247.717C157.834 247.671 157.76 247.606 157.704 247.527C157.648 247.448 157.61 247.356 157.595 247.26C157.495 247.103 157.412 246.935 157.348 246.76C157.348 246.69 157.457 246.58 157.516 246.49L158.475 247.73Z" fill="#313841"/>
<path d="M205.728 111.29C204.581 115.997 203.43 120.707 202.277 125.42L200.507 125.48C200.388 125.02 200.28 124.56 200.161 124.1C201.703 122.71 202.03 120.76 202.771 118.95C203.839 116.41 202.969 113.09 205.728 111.29Z" fill="#5003F9"/>
<path d="M143.931 121.37C140.905 123.59 139.906 127.37 137.494 130.04C135.081 129.79 132.817 128.77 130.484 128.45C126.252 127.86 126.173 125.67 127.389 122.45C128.15 120.4 128.704 118.27 129.366 116.17C132.807 115.09 136.565 116.17 139.916 114.55C141.063 115 141.152 116.12 141.518 117.07C141.32 118.07 141.854 118.55 142.724 118.78C143.09 119.64 144.326 120.12 143.931 121.37Z" fill="#5003F9"/>
<path d="M205.728 111.29C202.929 113.09 203.799 116.41 202.761 118.95C202.02 120.76 201.693 122.71 200.151 124.1C192.923 123.56 186.309 120.66 179.298 118.97C175.976 118.16 172.684 117.22 169.411 116.34C169.243 115.34 169.015 114.53 167.918 115.66C164.566 115.52 161.55 113.96 158.317 113.33C158.149 112.33 157.921 111.54 156.834 112.67C152.651 112.4 152.434 112.08 153.541 107.99C153.927 106.56 154.293 105.13 154.678 103.69C155.667 103.53 156.478 103.32 155.361 102.19C156.883 95.9567 158.409 89.7267 159.939 83.5001C161.056 83.3701 161.303 82.65 161.145 81.66C161.669 75.3 164.042 69.4001 165.653 63.3101C169.411 62.6801 172.703 65.87 176.53 64.7H176.797C179.16 66.83 181.592 68.7001 184.993 66.9301L186.407 67.23C187.198 69.57 189.097 68.23 190.511 68.48L191.588 68.65C192.231 70.36 193.032 71.52 194.703 69.53L197.501 70.26C198.114 72.26 199.696 71.36 200.952 71.4C201.229 71.2546 201.545 71.2015 201.854 71.2482C202.163 71.2949 202.449 71.439 202.672 71.66C203.463 74.1 205.391 72.66 206.845 72.94C206.916 72.8779 206.999 72.8314 207.088 72.8036C207.178 72.7758 207.272 72.7673 207.365 72.7786C207.459 72.7899 207.548 72.8207 207.629 72.8692C207.71 72.9177 207.779 72.9827 207.834 73.0601C208.822 75.8301 211.057 74.06 212.708 74.46H213.005C213.094 75.75 213.934 76.11 215.032 76.14L214.498 78.29C211.739 79.29 213.509 81.56 213.104 83.23C213.034 83.58 212.955 83.92 212.876 84.23C209.416 84.91 212.57 87.4801 211.591 88.8701C211.64 88.9667 211.656 89.077 211.636 89.1838C211.617 89.2906 211.562 89.3878 211.482 89.46C208.832 90.4 210.493 92.6 210.137 94.2C210.168 94.2365 210.19 94.279 210.203 94.3247C210.216 94.3705 210.219 94.4185 210.213 94.4656C210.206 94.5127 210.19 94.5579 210.165 94.5983C210.14 94.6387 210.107 94.6733 210.068 94.7C207.349 95.85 209.02 98.21 208.634 100.01C205.668 101.22 207.646 103.77 207.181 105.65V105.94C204.353 107.06 206.064 109.46 205.718 111.28L205.728 111.29Z" fill="#5000FE"/>
<path d="M176.55 64.7C172.723 65.87 169.431 62.7 165.673 63.31C165.673 62.7 165.733 62.09 165.752 61.48C169.371 62.47 173.099 63.02 176.55 64.7Z" fill="#5003F9"/>
<path d="M161.165 81.66C161.323 82.66 161.076 83.3701 159.958 83.5001C159.892 83.0959 159.98 82.6814 160.204 82.34C160.427 81.9986 160.771 81.7557 161.165 81.66Z" fill="#5003F9"/>
<path d="M167.938 115.66C169.035 114.53 169.262 115.36 169.43 116.34C169.143 116.391 168.847 116.354 168.58 116.233C168.314 116.112 168.09 115.912 167.938 115.66Z" fill="#5003F9"/>
<path d="M155.38 102.19C156.498 103.32 155.647 103.53 154.698 103.69C154.647 103.399 154.686 103.1 154.807 102.832C154.929 102.564 155.129 102.34 155.38 102.19Z" fill="#5003F9"/>
<path d="M156.854 112.67C157.941 111.54 158.169 112.36 158.337 113.33C158.053 113.381 157.76 113.346 157.496 113.228C157.232 113.111 157.008 112.916 156.854 112.67Z" fill="#5003F9"/>
<path d="M142.714 118.75C141.844 118.52 141.31 118.05 141.508 117.04C141.709 117.046 141.906 117.099 142.083 117.195C142.26 117.291 142.413 117.427 142.53 117.593C142.647 117.758 142.724 117.949 142.756 118.15C142.788 118.35 142.774 118.556 142.714 118.75Z" fill="#270B7C"/>
<path d="M157.605 247.24C157.739 247.279 157.862 247.352 157.961 247.452C158.06 247.551 158.133 247.675 158.172 247.81C158.211 247.946 158.216 248.089 158.186 248.227C158.156 248.365 158.093 248.494 158.001 248.6C157.674 249.13 157.279 248.98 156.864 248.75C156.142 247.76 156.399 247.26 157.605 247.24Z" fill="#313841"/>
<path d="M156.854 248.76C157.496 249.05 157.536 249.5 157.2 250.07C156.864 250.64 156.527 250.45 156.122 250.24C155.301 249.22 155.568 248.72 156.854 248.76Z" fill="#313841"/>
<path d="M185.013 66.91C181.612 68.67 179.18 66.8101 176.816 64.6801C179.641 65.0188 182.402 65.77 185.013 66.91Z" fill="#5003F9"/>
<path d="M205.728 111.27C206.074 109.45 204.363 107.05 207.191 105.93C207.109 107.799 206.609 109.625 205.728 111.27Z" fill="#5003F9"/>
<path d="M207.231 105.64C207.725 103.76 205.668 101.21 208.684 100C208.702 101.977 208.201 103.924 207.231 105.64Z" fill="#5003F9"/>
<path d="M208.694 100.03C209.079 98.23 207.408 95.87 210.128 94.72C210.199 96.5967 209.698 98.4502 208.694 100.03Z" fill="#5003F9"/>
<path d="M213.133 83.21C213.509 81.54 211.769 79.21 214.527 78.27C214.537 80.0173 214.053 81.7311 213.133 83.21Z" fill="#5003F9"/>
<path d="M211.66 88.89C212.649 87.5 209.485 84.89 212.945 84.25C213.032 85.8974 212.58 87.5278 211.66 88.89Z" fill="#5003F9"/>
<path d="M210.167 94.22C210.553 92.62 208.862 90.42 211.512 89.48C211.62 91.1698 211.145 92.8452 210.167 94.22Z" fill="#5003F9"/>
<path d="M212.738 74.47C211.087 74.09 208.842 75.8399 207.863 73.0699C209.582 73.0944 211.263 73.5774 212.738 74.47Z" fill="#5003F9"/>
<path d="M194.723 69.47C193.052 71.47 192.251 70.3 191.608 68.59C192.712 68.5466 193.801 68.8544 194.723 69.47Z" fill="#5003F9"/>
<path d="M206.865 72.92C205.411 72.68 203.483 74.08 202.692 71.64C204.185 71.5852 205.653 72.0357 206.865 72.92Z" fill="#5003F9"/>
<path d="M190.53 68.47C189.116 68.2 187.218 69.56 186.427 67.22C187.879 67.2706 189.293 67.7013 190.53 68.47Z" fill="#5003F9"/>
<path d="M200.972 71.38C199.716 71.38 198.134 72.28 197.521 70.24C198.775 70.1447 200.015 70.5544 200.972 71.38Z" fill="#5003F9"/>
<path d="M215.061 76.12C213.964 76.12 213.084 75.7299 213.034 74.4399C214.033 74.5999 215.615 74.07 215.061 76.12Z" fill="#5003F9"/>
</svg>
