<svg width="92" height="92" viewBox="0 0 92 92" fill="none" xmlns="http://www.w3.org/2000/svg">
<rect width="92" height="92" rx="15" fill="#8CABFF"/>
<path d="M75.9001 61.061C75.6102 61.9331 75.259 62.7767 74.4906 63.3581C73.6608 63.9862 72.6914 64.2619 71.6561 64.3372C71.6776 61.9753 71.5871 59.6135 71.7574 57.2576C71.7911 56.7786 71.6316 56.2861 71.6684 55.8086C71.785 54.2601 71.8954 52.7117 71.8739 51.1602C71.831 47.8464 72.0779 44.5235 71.992 41.2022C71.9857 40.9956 72.036 40.7911 72.1377 40.6102C72.3954 42.0246 72.8034 43.4119 72.9154 44.8504C72.9149 44.9237 72.9379 44.9952 72.9811 45.055C73.0243 45.1147 73.0856 45.1596 73.1562 45.1833C73.1715 46.4079 73.5304 47.5813 73.7498 48.7743C74.4047 52.3441 75.1072 55.905 75.7897 59.4689C75.8066 59.5608 75.8066 59.6572 75.9001 59.7129V61.061Z" fill="#7EE2C3"/>
<path d="M44.882 24.1043L45.5998 24.0938C45.6412 24.3785 45.5139 24.5818 45.3099 24.7776C44.4725 25.5835 43.6473 26.4029 42.819 27.2178C42.6657 27.3684 42.4663 27.5115 42.5 27.7751C42.2715 27.7827 42.0399 27.7977 41.8144 27.7977H25.1237C24.761 27.7772 24.3971 27.802 24.0408 27.8715C22.4963 28.2602 21.5193 29.5044 21.5177 31.1477C21.5116 36.6708 21.5116 42.1903 21.5177 47.7063C21.5177 47.8358 21.5361 47.9669 21.5453 48.0979L21.4917 49.0017C21.2493 49.0017 21.1312 49.1945 20.9871 49.3361C19.9471 50.3513 18.9093 51.3696 17.8735 52.3908C17.6986 52.5626 17.5422 52.7629 17.2507 52.7207V37.569C17.2507 34.3556 17.2507 31.1422 17.2507 27.9288C17.2507 25.9209 18.9993 24.2083 21.0469 24.2068H22.8874C30.0032 24.2068 37.1179 24.2027 44.2317 24.1947C44.4433 24.1902 44.6857 24.2836 44.882 24.1043Z" fill="#F7F4FA"/>
<path d="M69.3505 26.0052C69.4686 26.2719 69.5883 26.54 69.7064 26.8081C69.8107 27.3684 69.9257 27.9273 69.8843 28.5027C69.8333 28.5628 69.8068 28.6393 69.8099 28.7175C69.8131 28.7957 69.8456 28.8699 69.9012 28.9259L69.9318 29.0841C69.9247 32.7775 69.917 36.4699 69.9088 40.1613C69.9088 41.3799 69.892 42.597 69.8828 43.8141C69.576 43.7674 69.3935 43.9451 69.2002 44.1364C68.1992 45.1285 67.193 46.1172 66.1817 47.1023C66.0283 47.2529 65.8872 47.4578 65.6158 47.4201C65.605 47.1776 65.5866 46.9336 65.5866 46.6911C65.5866 41.4733 65.5682 36.2555 65.5958 31.0377C65.605 29.3296 64.0942 27.7239 62.2951 27.7962C61.7797 27.8173 61.2644 27.7842 60.749 27.7751C60.7736 27.5432 60.9684 27.4317 61.1125 27.2886C61.9469 26.4652 62.7833 25.6432 63.6218 24.8228C63.7951 24.6511 64.0068 24.5005 63.9623 24.2113C64.4746 24.2113 64.9884 24.2293 65.4961 24.1932C67.1373 24.0802 68.3934 24.7219 69.3505 26.0052Z" fill="#F0E6FA"/>
<path d="M17.2508 52.7207C17.5422 52.7629 17.6986 52.5701 17.8735 52.3908C18.9103 51.3716 19.9482 50.3533 20.9871 49.3361C21.1313 49.1945 21.2494 49.0032 21.4917 49.0017C21.4994 49.2246 21.5132 49.4536 21.5132 49.672C21.5193 51.9284 21.5244 54.1878 21.5285 56.4503C21.5193 58.2262 21.458 60.0036 21.5285 61.7765C21.5623 62.727 21.9656 63.584 22.8552 64.1203C23.3154 64.661 23.9473 64.771 24.6038 64.7846C25.7879 64.8071 26.9735 64.8011 28.1591 64.8072C28.199 65.0708 28.0057 65.2153 27.8523 65.375L25.3707 67.7956C25.2096 67.9462 25.0194 68.0969 25.0532 68.3605L23.9151 68.3906C22.7371 68.3303 21.5531 68.4975 20.3782 68.2836C19.5031 68.1183 18.7134 67.6605 18.1433 66.988C17.5731 66.3155 17.2578 65.4698 17.2508 64.5948C17.2497 60.6362 17.2497 56.6782 17.2508 52.7207Z" fill="#F4EDFA"/>
<path d="M63.9624 24.2113C64.0069 24.5005 63.7952 24.6511 63.6219 24.8228C62.7845 25.6442 61.948 26.4662 61.1126 27.2886C60.9685 27.4317 60.7737 27.5432 60.7491 27.7751L60.1755 27.8203H50.8792C50.4804 27.8203 50.0816 27.8038 49.6828 27.8023L42.5001 27.7751C42.4663 27.5115 42.6535 27.3745 42.8191 27.2178C43.6474 26.4029 44.4725 25.5835 45.31 24.7776C45.514 24.5818 45.6413 24.3785 45.5999 24.0938L45.9756 24.1058C46.129 24.2565 46.3376 24.1947 46.5201 24.1947C47.5938 24.1947 48.6675 24.1947 49.7411 24.1947C52.8772 24.1887 56.0133 24.1811 59.1494 24.1721L63.9624 24.2113Z" fill="#F4EDFA"/>
<path d="M69.8828 43.8141C69.892 42.597 69.9058 41.3799 69.9089 40.1613C69.9181 36.4689 69.9258 32.777 69.9319 29.0856C69.9767 29.1872 70.0136 29.2919 70.0423 29.3989C70.4273 31.4083 70.8092 33.4177 71.1896 35.424C71.5117 37.1472 71.8231 38.8734 72.1375 40.5996C72.0357 40.7806 71.9854 40.985 71.9918 41.1916C72.0777 44.5054 71.8307 47.8298 71.8737 51.1497C71.8951 52.7011 71.7847 54.2496 71.6681 55.7981C71.6313 56.2755 71.7908 56.7681 71.7571 57.2471C71.5869 59.6075 71.6773 61.9693 71.6559 64.3267L70.958 64.5405L69.9273 64.6686C69.9273 64.4441 69.9104 64.2167 69.9104 63.9938C69.9104 57.5077 69.9104 51.0206 69.9104 44.5326C69.9089 44.3006 69.892 44.0581 69.8828 43.8141Z" fill="#59C29F"/>
<path d="M72.1376 40.6057C71.8308 38.8795 71.5118 37.1533 71.1897 35.4301C70.8139 33.4177 70.4228 31.4083 70.0424 29.4049C70.0137 29.2979 69.9768 29.1932 69.932 29.0916C69.9213 29.0374 69.9121 28.9847 69.9013 28.932C69.9013 28.7904 69.8906 28.6488 69.8845 28.5087C69.9259 27.9333 69.8108 27.3745 69.7065 26.8141C70.4306 26.8387 71.1502 26.9366 71.8539 27.1063C73.7665 27.6094 74.9291 29.2754 74.7297 31.2863C74.4843 33.746 74.2266 36.2058 73.9015 38.6565C73.7266 39.9685 73.7174 41.2986 73.4689 42.5955C73.3048 43.4556 73.3677 44.3352 73.1622 45.1848C73.0916 45.1611 73.0303 45.1162 72.9871 45.0565C72.9439 44.9967 72.9209 44.9252 72.9214 44.8519C72.8033 43.4134 72.3953 42.0201 72.1376 40.6057Z" fill="#FE645A"/>
<path d="M69.9273 64.6791L70.958 64.5511C70.8384 65.6311 70.7709 66.7201 70.5899 67.7911C70.2525 69.7915 68.349 71.1245 66.2815 70.8986C61.6004 70.3864 56.9162 69.9014 52.2366 69.3757C50.7227 69.2055 49.1981 69.1196 47.6965 68.8425L49.7181 68.4027C50.1368 68.4027 50.5571 68.3846 50.9773 68.3846C55.9386 68.3846 60.9009 68.3846 65.8643 68.3846C67.6036 68.3846 69.0239 67.4386 69.6282 65.9369C69.7923 65.5257 69.8 65.0903 69.9273 64.6791Z" fill="#FE645A"/>
<path d="M43.1996 69.6017C41.6305 69.9029 40.063 70.2192 38.4908 70.5054C35.683 71.0286 32.871 71.5423 30.055 72.0464C28.9169 72.2512 27.7712 72.5796 26.6162 72.1443C25.1146 71.5794 24.2465 70.5069 24.0256 68.9359C27.2849 68.9796 30.5458 68.8922 33.8036 69.0504C34.3066 69.0745 34.8266 69.0699 35.3174 69.1212C36.8113 69.2718 38.3068 69.3456 39.8037 69.3878C40.7578 69.4134 41.7118 69.3878 42.6673 69.3968C42.8667 69.4043 43.1137 69.3094 43.1996 69.6017Z" fill="#97E5AB"/>
<path d="M63.9626 24.2113L59.1418 24.1751C59.1418 23.9175 59.2814 23.7323 59.421 23.5289C59.8949 22.8451 60.4578 22.2139 60.7477 21.4201C61.961 21.1897 63.1634 20.8899 64.3859 20.7423C66.5501 20.4802 68.3737 21.4307 68.9397 23.7549C69.1222 24.4959 69.2158 25.2611 69.3508 26.0143C68.3967 24.7309 67.1375 24.0892 65.4979 24.2067C64.9887 24.2293 64.4748 24.2067 63.9626 24.2113Z" fill="#97E5AB"/>
<path d="M44.8822 24.1043C44.6859 24.2851 44.4436 24.1902 44.2273 24.1902C37.1126 24.1992 29.9978 24.2032 22.8831 24.2022C23.3631 22.9972 24.3555 22.4444 25.5595 22.1808C26.6102 21.9503 27.6485 22.241 28.6854 22.345C31.6425 22.6462 34.5966 22.9791 37.5507 23.306C39.8652 23.5605 42.1659 23.8317 44.4819 24.0832C44.6199 24.0983 44.7488 24.0968 44.8822 24.1043Z" fill="#FEAB3C"/>
<path d="M60.7476 21.4216C60.4577 22.2169 59.8948 22.8481 59.4209 23.5304C59.2813 23.7338 59.1341 23.9191 59.1418 24.1766C56.0067 24.1847 52.8706 24.1922 49.7335 24.1992C48.6598 24.1992 47.5862 24.1992 46.5125 24.1992C46.33 24.1992 46.1275 24.264 45.968 24.1104C47.2978 23.8754 48.6291 23.6464 49.9559 23.4039C53.5562 22.7441 57.1535 22.0834 60.7476 21.4216Z" fill="#A7E79C"/>
<path d="M43.1994 69.6017C43.1135 69.3094 42.8666 69.4043 42.6748 69.4028C41.7193 69.3938 40.7653 69.4194 39.8113 69.3938C38.3143 69.3516 36.8188 69.2823 35.3249 69.1272C34.8341 69.076 34.3141 69.0805 33.8111 69.0564C30.5533 68.9057 27.2924 68.9856 24.0331 68.9419C23.9948 68.7581 23.9549 68.5744 23.915 68.3906L25.0531 68.3605C25.3016 68.3605 25.5485 68.3801 25.797 68.3801H45.4295C46.1734 68.3801 46.9173 68.368 47.6612 68.3605L49.7134 68.4042L47.6934 68.844L43.1994 69.6017Z" fill="#59C29F"/>
<path d="M50.8793 27.8203H60.1756C60.1465 28.0975 59.9272 28.224 59.7293 28.3701C59.0145 28.8988 58.2998 29.4245 57.5912 29.9608C54.9551 31.9551 52.3185 33.9509 49.6814 35.9482C47.6875 37.4545 45.6936 38.9397 43.6996 40.4415C40.4163 42.9248 37.1355 45.4117 33.8573 47.9021C33.4202 48.235 32.8711 48.4655 32.6303 49.0122C32.5351 49.0124 32.4406 48.996 32.3511 48.964C30.4323 47.8539 28.0028 48.7592 26.8586 50.1691C25.1408 52.3005 23.3631 54.355 21.613 56.4382C21.5859 56.4314 21.5574 56.4314 21.5302 56.4382C21.5302 54.1798 21.5251 51.9204 21.5149 49.6599C21.5149 49.4355 21.5011 49.2081 21.4934 48.9897C21.5118 48.6884 21.5287 48.3871 21.5471 48.0859C21.9766 48.0543 22.2649 47.7515 22.5717 47.521C25.3897 45.4122 28.1961 43.2884 30.9906 41.1494C31.4201 40.8196 32.029 40.6433 32.1931 40.0273C33.8987 40.2502 35.3175 39.6974 36.497 38.4939C36.8835 38.5797 37.1473 38.3432 37.4172 38.1414C38.4694 37.3461 39.5124 36.5387 40.5676 35.7464C43.5831 33.487 46.6138 31.2426 49.6063 28.9515C50.0511 28.6247 50.6615 28.4198 50.8793 27.8203Z" fill="#2ABCF8"/>
<path d="M32.1961 40.0408C32.032 40.6569 31.4292 40.8331 30.9936 41.163C28.2042 43.3069 25.3978 45.4308 22.5746 47.5346C22.2679 47.765 21.9795 48.0678 21.5501 48.0994C21.5409 47.9684 21.5225 47.8373 21.5225 47.7078C21.5225 42.1848 21.5225 36.6652 21.5225 31.1492C21.5225 29.5059 22.501 28.2617 24.0455 27.873C24.4019 27.8035 24.7657 27.7787 25.1284 27.7992H41.8145C42.0431 27.7992 42.2747 27.7842 42.5001 27.7766L49.6829 27.8038C50.0817 27.8038 50.4804 27.8158 50.8792 27.8218C50.6614 28.4243 50.051 28.6262 49.6047 28.9666C46.6122 31.2577 43.5815 33.499 40.566 35.7615C39.5108 36.5538 38.4678 37.3611 37.4156 38.1565C37.1457 38.3598 36.8818 38.5948 36.4953 38.5089C37.2147 37.4967 37.6871 36.4107 37.5444 35.1394C37.411 33.1812 35.9094 31.4098 33.6041 31.0438C31.2988 30.6777 29.0135 32.1886 28.4383 34.5082C27.88 36.7586 29.2267 39.137 31.4538 39.8299L32.1961 40.0408Z" fill="#20C4F9"/>
<path d="M32.6272 49.0122C32.8711 48.4655 33.4202 48.235 33.8542 47.9021C37.1263 45.4047 40.4086 42.9178 43.7012 40.4415C45.6951 38.9352 47.689 37.4515 49.683 35.9482C52.3211 33.9569 54.9561 31.9611 57.5881 29.9608C58.2967 29.4245 59.0115 28.8988 59.7262 28.3701C59.9241 28.2195 60.1434 28.0975 60.1726 27.8203L60.7462 27.7751C61.2616 27.7842 61.7769 27.8173 62.2923 27.7962C64.0914 27.7224 65.6022 29.3296 65.593 31.0377C65.5654 36.2555 65.5822 41.4733 65.5838 46.6911C65.5838 46.9336 65.6022 47.1776 65.6129 47.4201C65.6237 47.6626 65.5822 47.872 65.5807 48.0889C65.5735 49.8583 65.5669 51.6277 65.5608 53.397L64.7816 52.5912C63.8291 51.3545 62.8245 50.1615 61.7815 48.9987C60.4947 47.3915 59.1909 45.7963 57.8105 44.2584L55.9454 41.9854C55.4193 41.3437 54.8994 40.6825 54.2214 40.199C52.3272 38.8433 49.6814 39.247 48.1553 41.0726L45.7549 43.9421C43.67 46.4335 41.5845 48.9239 39.4986 51.4133C38.747 52.308 37.9771 53.1892 37.2163 54.0764C37.1047 53.8916 36.954 53.7324 36.7746 53.6094C36.3037 52.915 35.7117 52.32 35.1672 51.6844C34.8636 51.2412 34.5169 50.828 34.1318 50.4507C33.7668 49.8362 33.1947 49.425 32.6272 49.0122Z" fill="#2DB7F8"/>
<path d="M65.5638 53.397C65.57 51.6287 65.5766 49.8593 65.5838 48.0889C65.5838 47.866 65.6052 47.637 65.616 47.4201C65.8875 47.4578 66.024 47.2574 66.1819 47.1023C67.1891 46.1152 68.1953 45.1265 69.2004 44.1364C69.3937 43.9451 69.5808 43.7674 69.883 43.8141C69.8922 44.0581 69.9091 44.3006 69.9091 44.5431C69.9091 51.0312 69.9091 57.5182 69.9091 64.0043C69.9091 64.2287 69.9198 64.4562 69.9259 64.6791C69.7986 65.0903 69.7909 65.5257 69.6192 65.9323C69.0149 67.4386 67.5946 68.3786 65.8552 68.3801C60.8919 68.3871 55.9296 68.3871 50.9683 68.3801C50.548 68.3801 50.1277 68.3921 49.709 68.3981L47.6553 68.3545C47.7013 68.0532 47.8991 67.8604 48.1031 67.6601C48.913 66.8708 49.7198 66.0785 50.5235 65.2831C50.6661 65.1325 50.8624 65.0271 50.8701 64.7906C54.6862 64.7906 58.5028 64.7856 62.3199 64.7755C62.5669 64.7884 62.8146 64.7681 63.0561 64.7153C64.6926 64.2634 65.6328 63.1442 65.6405 61.3126C65.662 58.6781 65.7862 56.0346 65.5638 53.397Z" fill="#EDDEF9"/>
<path d="M69.8844 28.5012C69.8844 28.6412 69.8952 28.7828 69.9013 28.9244C69.8457 28.8684 69.8132 28.7941 69.8101 28.716C69.8069 28.6378 69.8334 28.5613 69.8844 28.5012Z" fill="#EDDEF9"/>
<path d="M50.8791 64.8026C50.8791 65.0391 50.6751 65.1521 50.5325 65.2952C49.7288 66.0905 48.922 66.8828 48.1122 67.6721C47.9082 67.8724 47.7103 68.0713 47.6643 68.3665C46.9204 68.3665 46.1765 68.3846 45.4326 68.3861H25.8001C25.5516 68.3861 25.3047 68.3725 25.0562 68.3665C25.0225 68.1014 25.2096 67.9598 25.3737 67.8016L27.8462 65.3735C28.0088 65.2138 28.1959 65.0723 28.153 64.8056L28.3876 64.771H48.9282L50.8791 64.8026Z" fill="#F0E6FA"/>
<path d="M35.17 51.6844C35.7145 52.32 36.3065 52.915 36.7774 53.6094C36.5976 53.8248 36.4012 54.0262 36.1899 54.2119C35.1914 54.9847 34.1791 55.7408 33.1699 56.5C30.4275 58.5621 27.6943 60.6378 24.935 62.6758C24.2601 63.1743 23.6895 63.8326 22.849 64.1037C21.9594 63.5675 21.556 62.7104 21.5223 61.7599C21.4579 59.987 21.5223 58.2096 21.5223 56.4337C21.5495 56.4269 21.5779 56.4269 21.6051 56.4337C21.6051 57.5604 21.6051 58.6871 21.6051 59.8138C21.6051 60.3395 21.6051 60.8682 21.6051 61.3894C21.6051 61.5265 21.5269 61.7238 21.714 61.7855C21.8674 61.8337 21.9962 61.7102 22.1159 61.6183C22.7918 61.1052 23.4687 60.5926 24.1466 60.0804C27.0838 57.8662 30.0287 55.6625 32.9552 53.4347C33.7113 52.8713 34.5196 52.3728 35.17 51.6844Z" fill="#97E5AB"/>
<path d="M22.8491 64.1128C23.6896 63.8416 24.2602 63.1834 24.9351 62.6848C27.6959 60.6453 30.4276 58.5696 33.17 56.509C34.1792 55.7559 35.1915 54.9937 36.19 54.221C36.4014 54.0353 36.5978 53.8339 36.7775 53.6185C36.957 53.7414 37.1076 53.9006 37.2192 54.0854C35.121 56.616 33.0248 59.147 30.9307 61.6786C30.0809 62.7074 29.1668 63.6865 28.3922 64.774L28.1576 64.8087C26.972 64.8087 25.7863 64.8087 24.6022 64.7861C23.9412 64.7635 23.3001 64.652 22.8491 64.1128Z" fill="#7EE2C3"/>
<path d="M21.6128 59.8183C21.6128 58.6916 21.6128 57.5649 21.6128 56.4382C23.3644 54.355 25.1405 52.2944 26.8568 50.1766C28.001 48.7592 30.4306 47.8539 32.3493 48.9716C32.4388 49.0036 32.5333 49.0199 32.6285 49.0198C33.196 49.4325 33.7681 49.8437 34.1362 50.4583C34.0355 50.594 33.922 50.7201 33.7972 50.8349C32.7941 51.6031 31.7834 52.3637 30.7726 53.1259C28.1652 55.0916 25.5577 57.0663 22.9411 59.011C22.5331 59.3092 22.1926 59.7641 21.6128 59.8183Z" fill="#BFEA86"/>
<path d="M32.196 40.0408L31.4583 39.8224C31.6297 39.531 31.8668 39.2821 32.1515 39.0949C33.0933 38.3794 34.0151 37.6353 34.9875 36.9605C35.848 36.3579 36.5888 35.6048 37.5489 35.1378C37.6916 36.4092 37.2192 37.4952 36.4998 38.5074C35.3157 39.7109 33.897 40.2637 32.196 40.0408Z" fill="#FEAB3C"/>
<path d="M37.5445 35.1379C36.5844 35.6003 35.8436 36.3625 34.9831 36.9605C34.0107 37.6353 33.0889 38.3794 32.1471 39.0949C31.8624 39.2821 31.6253 39.531 31.4538 39.8224C29.2268 39.1295 27.8801 36.7511 28.4384 34.5007C29.0136 32.187 31.2775 30.6717 33.6042 31.0362C35.931 31.4008 37.4111 33.1706 37.5445 35.1379Z" fill="#FDCD3F"/>
<path d="M41.2361 64.765H30.449C30.5456 64.4125 30.9245 64.4306 31.1561 64.2528C32.8944 62.9183 34.6326 61.5897 36.3709 60.2672C40.0275 57.5007 43.6871 54.7391 47.3498 51.9826C50.0943 49.916 52.8403 47.8534 55.5878 45.7948C56.3087 45.2586 56.9437 44.5898 57.8103 44.2614C59.1907 45.7993 60.4914 47.3945 61.7813 49.0017C61.7735 49.0566 61.753 49.1091 61.7214 49.1551C61.6897 49.201 61.6478 49.2392 61.5988 49.2668C60.0818 50.4191 58.5741 51.582 57.0541 52.7313C55.051 54.2375 53.0356 55.7438 51.034 57.2501C48.264 59.3408 45.4996 61.4391 42.7408 63.5449C42.2316 63.935 41.5966 64.1896 41.2361 64.765Z" fill="#A7E79C"/>
<path d="M57.8104 44.2584C56.9438 44.5928 56.3088 45.2556 55.588 45.7918C52.8333 47.8434 50.0873 49.906 47.35 51.9796C43.6883 54.7391 40.0287 57.5007 36.3711 60.2642C34.6256 61.5837 32.8873 62.9122 31.1562 64.2498C30.9246 64.4276 30.5427 64.4095 30.4491 64.762H28.3877C29.1623 63.6744 30.0749 62.6953 30.9261 61.6665C33.0182 59.131 35.1144 56.5999 37.2147 54.0734C37.9816 53.1862 38.7485 52.305 39.4969 51.4103C41.586 48.9239 43.6714 46.4335 45.7533 43.9391L48.1537 41.0696C49.6798 39.244 52.3256 38.8448 54.2198 40.196C54.8977 40.6795 55.4177 41.3407 55.9438 41.9824L57.8104 44.2584Z" fill="#BFEA86"/>
<path d="M41.2363 64.765C41.5968 64.1896 42.2318 63.935 42.744 63.5419C45.5049 61.4331 48.2693 59.3348 51.0373 57.2471C53.0312 55.7408 55.0543 54.2345 57.0574 52.7283C58.5774 51.579 60.0851 50.4161 61.602 49.2638C61.651 49.2362 61.693 49.198 61.7246 49.1521C61.7563 49.1061 61.7768 49.0536 61.7845 48.9987C62.8275 50.1615 63.8321 51.3545 64.7846 52.5912C64.6581 52.7785 64.4949 52.9393 64.3046 53.0641C62.4446 54.4529 60.5866 55.8458 58.7308 57.2426C55.9439 59.3514 53.1539 61.4466 50.3823 63.569C49.8854 63.9501 49.2857 64.2182 48.9283 64.7635L41.2363 64.765Z" fill="#97E5AB"/>
<path d="M48.9282 64.765C49.2856 64.2197 49.8853 63.9516 50.3823 63.5705C53.1538 61.4466 55.9438 59.3529 58.7307 57.2441C60.5845 55.8462 62.4425 54.4534 64.3045 53.0656C64.4948 52.9408 64.658 52.78 64.7845 52.5927L65.5637 53.3985C65.7877 56.036 65.6619 58.6796 65.6496 61.3186C65.6419 63.1502 64.7017 64.2769 63.0652 64.7213C62.8237 64.7741 62.576 64.7944 62.329 64.7815C58.5108 64.7886 54.6943 64.7936 50.8792 64.7966L48.9282 64.765Z" fill="#7EE2C3"/>
<path d="M21.6132 59.8183C22.1914 59.7641 22.5335 59.3092 22.9384 59.0034C25.5612 57.0588 28.1625 55.0871 30.7699 53.1184C31.7807 52.3562 32.7915 51.5955 33.7946 50.8273C33.9194 50.7125 34.0329 50.5865 34.1335 50.4507C34.5186 50.828 34.8653 51.2412 35.1688 51.6844C34.5185 52.3728 33.7102 52.8713 32.9648 53.4392C30.0383 55.667 27.0934 57.8707 24.1562 60.0849C23.4783 60.5961 22.8014 61.1087 22.1255 61.6229C22.0058 61.7148 21.8724 61.8383 21.7236 61.7901C21.5365 61.7283 21.6163 61.531 21.6147 61.3939C21.6132 60.8682 21.6132 60.344 21.6132 59.8183Z" fill="#A7E79C"/>
</svg>
