<svg width="13" height="13" viewBox="0 0 13 13" fill="none" xmlns="http://www.w3.org/2000/svg">
<path d="M3.4193 4.98944L2.21007 10.4284L0.436265 10.0198L1.6455 4.58083L3.4193 4.98944ZM3.98386 10.837C3.74864 10.7829 3.54429 10.6354 3.41576 10.4271C3.28723 10.2188 3.24505 9.96666 3.2985 9.72624L4.3062 5.19375C4.36163 4.94446 4.50957 4.74031 4.70992 4.61494L8.2919 2.3002L8.65514 2.88893C8.74766 3.03889 8.78576 3.22395 8.74445 3.40979L8.6989 3.55176L7.8171 5.52606L10.6153 6.17065C10.8505 6.22484 11.0548 6.37231 11.1834 6.58063C11.3119 6.78894 11.3541 7.04104 11.3006 7.28146L11.0991 8.18796C11.0729 8.3058 11.0265 8.40947 10.9634 8.50453L8.9138 11.3914C8.70821 11.6871 8.34298 11.8412 7.97491 11.7564L3.98386 10.837ZM4.1854 9.93055L8.18976 10.853L10.2122 7.98365L10.4137 7.07715L6.51581 6.17922L7.553 3.88337L5.19008 5.41165L4.1854 9.93055Z" fill="white"/>
</svg>
