<svg width="55" height="60" viewBox="0 0 55 60" fill="none" xmlns="http://www.w3.org/2000/svg">
<path d="M45.0332 0C45.4681 0.145578 45.9185 0.259847 46.3379 0.442993C47.5561 0.977586 48.5168 1.97632 49.0117 3.22259C49.5065 4.46887 49.4957 5.8622 48.9815 7.10044C48.8994 7.29611 48.8112 7.49021 48.6874 7.77667C48.9335 7.79076 49.1301 7.80642 49.3282 7.81268C51.9284 7.88625 53.7965 9.67545 54.0023 12.2943C54.0178 12.4884 54.0256 12.6841 54.0256 12.8782C54.0256 22.7388 54.0256 32.6006 54.0256 42.4633C54.0256 44.8114 52.8586 46.6084 50.8511 47.2549C50.2054 47.4493 49.5344 47.5437 48.8607 47.5351C43.2037 47.557 37.5483 47.5476 31.8913 47.5476H31.1731C31.3976 48.515 31.6081 49.4151 31.8186 50.3167C32.0213 51.1902 32.2333 52.0605 32.4222 52.9371C32.4903 53.2502 32.6265 53.3895 32.9685 53.377C33.7006 53.3504 34.4358 53.3676 35.1694 53.3691C37.5607 53.377 38.9738 54.7968 39.0063 57.2246C39.0063 57.3389 39.0063 57.4547 39.0063 57.6535H41.5554C41.9423 57.6535 42.3293 57.6363 42.7131 57.6629C43.0058 57.6776 43.2819 57.8045 43.4852 58.0178C43.6886 58.2312 43.8039 58.5149 43.8077 58.8112C43.8114 59.1075 43.7033 59.3942 43.5054 59.6127C43.3075 59.8312 43.0347 59.9653 42.7425 59.9875C42.5695 60 42.3959 60.0031 42.2225 59.9969H12.1638C12.009 59.9969 11.8542 59.9969 11.6994 59.9969C11.0308 59.9468 10.5742 59.4646 10.5804 58.8197C10.5775 58.6674 10.605 58.516 10.6612 58.3747C10.7175 58.2334 10.8014 58.105 10.908 57.9973C11.0145 57.8896 11.1414 57.8047 11.2811 57.7478C11.4208 57.6909 11.5705 57.6631 11.7211 57.666C12.7426 57.6426 13.7672 57.666 14.7903 57.6582H15.3243C15.3512 57.1659 15.4029 56.6753 15.479 56.1884C15.6141 55.4524 15.9855 54.7821 16.5357 54.2814C17.0859 53.7807 17.784 53.4777 18.5219 53.4192C19.4815 53.341 20.4519 53.4005 21.4162 53.3598C21.5911 53.3519 21.8805 53.1938 21.9114 53.0467C22.3618 51.2528 22.7751 49.4464 23.2224 47.546H22.5042C16.79 47.546 11.0757 47.546 5.36143 47.546C2.88504 47.546 1.02775 46.1372 0.501516 43.8643C0.407566 43.4257 0.362917 42.9778 0.368413 42.5291C0.362222 32.6298 0.362222 22.731 0.368413 12.8328C0.368413 10.3125 1.80317 8.4169 4.083 7.92382C4.55793 7.83883 5.04039 7.80472 5.52239 7.82207C15.6188 7.81581 25.7153 7.81581 35.8117 7.82207C36.2652 7.82207 36.5454 7.69841 36.7961 7.30237C37.6164 6.00469 38.5296 4.76337 39.3158 3.44534C40.3188 1.76415 41.5523 0.427343 43.5365 0.00156688L45.0332 0ZM51.7086 34.9559V34.2452C51.7086 27.1563 51.7086 20.0673 51.7086 12.9783C51.7125 12.7636 51.7047 12.5488 51.6854 12.335C51.5492 11.0639 50.6391 10.2014 49.3746 10.1607C48.7184 10.1404 48.059 10.1858 47.4059 10.1451C46.9415 10.1153 46.6676 10.2938 46.3875 10.6413C43.1764 14.6204 39.9571 18.587 36.7295 22.5411C36.3318 23.0263 36.1739 23.4537 36.3736 24.0563C36.4672 24.414 36.5161 24.7821 36.519 25.1521C36.7172 28.2468 34.6184 30.8578 31.5988 31.1693C30.5153 31.2805 29.4025 31.1834 28.3052 31.1693C26.824 31.1505 25.479 31.4636 24.3476 32.5108C23.6465 33.1573 22.6884 32.8442 22.4439 31.9191C21.8774 29.7793 21.5276 27.616 21.7288 25.3822C22.1003 21.2246 24.9187 18.4696 29.045 18.2896C29.195 18.2951 29.3436 18.2591 29.4748 18.1855C29.606 18.1118 29.7148 18.0033 29.7895 17.8716C31.3666 15.4641 32.9592 13.0676 34.5457 10.671C34.637 10.5317 34.7113 10.3814 34.8367 10.1591H5.39393C3.5676 10.1591 2.67455 11.0717 2.67455 12.9439C2.67455 20.0517 2.67455 27.1594 2.67455 34.2671V34.959H3.42985C4.29813 34.959 5.16796 34.9387 6.0347 34.9841C6.18554 34.9856 6.33454 35.0179 6.47278 35.0789C6.61102 35.14 6.73566 35.2287 6.83926 35.3396C6.94285 35.4505 7.02327 35.5814 7.0757 35.7244C7.12814 35.8675 7.15151 36.0198 7.14443 36.1722C7.12586 36.8108 6.66308 37.2679 5.97279 37.2977C5.72205 37.3102 5.47132 37.2977 5.22059 37.2977H2.71634C2.69931 37.5403 2.6761 37.7109 2.6761 37.88C2.6761 39.4234 2.66836 40.9653 2.6761 42.5087C2.6761 44.2306 3.63106 45.1949 5.33667 45.1949C19.9154 45.1949 34.493 45.1949 49.0697 45.1949C50.7412 45.1949 51.7009 44.2259 51.7009 42.5432C51.7101 41.0592 51.7009 39.569 51.7009 38.0913C51.7009 37.2992 51.7009 37.2977 50.927 37.2977H15.835C15.584 37.3058 15.3327 37.2974 15.0828 37.2726C14.8221 37.2384 14.5816 37.1126 14.4033 36.9171C14.2251 36.7217 14.1204 36.4691 14.1077 36.2035C14.088 35.938 14.1623 35.674 14.3174 35.4589C14.4726 35.2438 14.6983 35.0916 14.9543 35.0295C15.2572 34.9708 15.5655 34.9467 15.8737 34.9575C27.5334 34.9575 39.193 34.9575 50.8527 34.9575L51.7086 34.9559ZM38.6596 16.4847L39.76 15.1291C41.9392 12.4451 44.119 9.76102 46.2992 7.07696C46.974 6.24889 47.2449 5.33472 46.9183 4.30003C46.5732 3.18862 45.7854 2.53117 44.6617 2.3762C43.5381 2.22124 42.6202 2.67519 41.9826 3.62849C39.7672 6.96791 37.5576 10.3073 35.3536 13.6467C35.3055 13.7309 35.2631 13.8182 35.2267 13.9082L38.6596 16.4847ZM24.3027 29.6728C25.9619 28.8479 27.6629 28.7712 29.3932 28.8776C29.9123 28.917 30.4332 28.9259 30.9534 28.9042C32.5878 28.8119 33.7857 27.9306 34.0705 26.4529C34.2083 25.7328 34.0891 24.9502 34.0102 24.2051C33.9479 23.9268 33.7872 23.6813 33.5582 23.5147C32.3974 22.6115 31.2149 21.7365 30.0324 20.8536C29.8853 20.7337 29.7107 20.653 29.5248 20.6188C28.3899 20.5212 27.256 20.8175 26.3098 21.4588C25.3637 22.1002 24.6618 23.0483 24.3197 24.1471C23.7858 25.9614 23.9467 27.7756 24.3027 29.6728ZM17.7233 57.605H36.6521C36.7791 56.1508 36.3844 55.7015 35.0084 55.7015H19.384C18.0018 55.7078 17.6211 56.1273 17.7233 57.605ZM24.2439 53.3191H30.1408C29.6765 51.3624 29.2323 49.4605 28.7865 47.5711H25.5858C25.1431 49.4933 24.6989 51.3811 24.2439 53.3253V53.3191ZM34.6664 21.4015L37.1939 18.3005L33.9157 15.8429L31.704 19.1818L34.6664 21.4015Z" fill="white"/>
<path d="M10.6068 37.2914C10.4568 37.2906 10.3085 37.2599 10.1703 37.2011C10.0322 37.1422 9.90679 37.0564 9.80143 36.9485C9.69606 36.8407 9.61275 36.7128 9.55627 36.5724C9.49979 36.4319 9.47124 36.2816 9.47226 36.1299C9.4703 35.9735 9.49944 35.8183 9.55795 35.6734C9.61645 35.5286 9.70314 35.3972 9.81285 35.2869C9.92256 35.1766 10.0531 35.0897 10.1966 35.0315C10.3401 34.9732 10.4938 34.9447 10.6485 34.9476C10.8031 34.9505 10.9556 34.9849 11.0969 35.0486C11.2382 35.1123 11.3653 35.204 11.4709 35.3184C11.5764 35.4328 11.6582 35.5674 11.7113 35.7143C11.7643 35.8613 11.7877 36.0175 11.7799 36.1738C11.7757 36.3251 11.742 36.4742 11.6807 36.6124C11.6195 36.7505 11.5318 36.8751 11.4228 36.979C11.3138 37.0828 11.1856 37.1638 11.0456 37.2175C10.9055 37.2711 10.7564 37.2962 10.6068 37.2914Z" fill="white"/>
</svg>
