<svg width="51" height="47" viewBox="0 0 51 47" fill="none" xmlns="http://www.w3.org/2000/svg">
<path d="M50.3348 2.46464V44.5364C49.7631 46.5382 48.3758 47.0029 46.7787 47C32.5746 46.97 18.3702 46.9641 4.16544 46.9824C3.97196 46.9824 3.77848 46.9892 3.585 46.9824C2.71917 46.9315 1.97427 46.591 1.46348 45.8826C1.17326 45.4854 1.01944 44.9913 0.803711 44.5412V2.46464C1.28741 0.669251 2.56149 -0.00389669 4.35312 1.69559e-05C18.5617 0.0339352 32.7697 0.0401321 46.977 0.018607C47.1705 0.018607 47.3639 0.0117581 47.5574 0.018607C48.4223 0.0714413 49.1672 0.409972 49.6751 1.11932C49.9604 1.52145 50.1191 2.01261 50.3348 2.46464ZM2.73852 9.82523V43.7027C2.73852 44.7125 3.04422 45.0256 4.03001 45.0256H47.0795C48.103 45.0256 48.4029 44.7213 48.4029 43.6861V9.82523H2.73852ZM48.3642 7.82633C48.3782 7.77894 48.3886 7.73053 48.3952 7.68153C48.3952 6.21391 48.3952 4.74629 48.3952 3.27868C48.3952 2.28167 48.0856 1.97445 47.0863 1.97445H3.94004C3.07421 1.97445 2.73272 2.3169 2.73078 3.18181C2.73078 4.14359 2.73078 5.10635 2.73078 6.06813V7.82927L48.3642 7.82633Z" fill="white"/>
<path d="M16.8781 13.7164H25.8682C26.796 13.7164 27.1162 14.0413 27.1171 14.9825C27.1171 18.0625 27.1171 21.1426 27.1171 24.2226C27.1171 25.1189 26.7795 25.4574 25.8866 25.4574H7.85611C6.9303 25.4574 6.60815 25.1286 6.60815 24.1854C6.60815 21.1054 6.60815 18.0257 6.60815 14.9463C6.60815 14.0481 6.94288 13.7125 7.83772 13.7115L16.8781 13.7164ZM25.1475 23.48V15.7114H8.56908V23.479L25.1475 23.48Z" fill="white"/>
<path d="M34.8349 41.1119C32.0314 41.1119 29.2278 41.1119 26.4243 41.1119C25.5052 41.1119 25.1831 40.7802 25.1821 39.84C25.1821 36.7743 25.1821 33.7109 25.1821 30.6498C25.1821 29.7056 25.5043 29.3719 26.4185 29.3719H43.2871C44.2081 29.3719 44.5293 29.7007 44.5302 30.6439C44.5302 33.7096 44.5302 36.7733 44.5302 39.8351C44.5302 40.7959 44.211 41.1129 43.2455 41.1129L34.8349 41.1119ZM42.5741 31.3611H27.1556V39.1287H42.5732L42.5741 31.3611Z" fill="white"/>
<path d="M37.7354 25.4574H32.2212C31.3186 25.4574 30.9829 25.1247 30.9829 24.2304C30.9829 21.1361 30.9829 18.0407 30.9829 14.9443C30.9829 14.0481 31.3176 13.7174 32.2193 13.7164H43.2902C44.2083 13.7164 44.5295 14.0481 44.5304 14.9884C44.5304 18.0541 44.5304 21.1171 44.5304 24.1776C44.5304 25.1365 44.2083 25.4544 43.2438 25.4554L37.7354 25.4574ZM34.6552 15.6958L42.5714 22.3656V15.6948L34.6552 15.6958ZM32.9429 23.4604H40.8456L32.9429 16.8014V23.4604Z" fill="white"/>
<path d="M14.002 29.371H20.0406C20.1851 29.3649 20.33 29.3691 20.474 29.3837C20.699 29.4213 20.9037 29.5382 21.0519 29.7136C21.2 29.8891 21.2821 30.1118 21.2836 30.3425C21.2851 30.5733 21.2059 30.7971 21.0601 30.9745C20.9142 31.1519 20.7111 31.2715 20.4865 31.3121C20.3581 31.3274 20.2287 31.3323 20.0996 31.3268H7.83191C7.76709 31.3268 7.70324 31.3268 7.63843 31.3268C7.02413 31.3033 6.60137 30.8924 6.61201 30.3308C6.62169 29.7887 7.03477 29.3886 7.62682 29.3749C8.21887 29.3612 8.7877 29.3749 9.36815 29.3749L14.002 29.371Z" fill="white"/>
<path d="M13.946 36.2199H8.00518C7.87651 36.2199 7.74688 36.2199 7.61821 36.2199C7.02906 36.1935 6.61695 35.7963 6.61114 35.2533C6.60534 34.7103 7.01552 34.2974 7.59693 34.267C7.74204 34.2592 7.88715 34.267 8.03226 34.267H20.1567C20.863 34.2739 21.3031 34.6437 21.3089 35.2347C21.3147 35.8256 20.8717 36.218 20.1771 36.2219C19.4825 36.2258 18.7608 36.2219 18.0488 36.2219L13.946 36.2199Z" fill="white"/>
<path d="M13.9603 41.112C11.8998 41.112 9.83823 41.1237 7.77766 41.0983C7.48067 41.0983 7.10048 41.0004 6.91474 40.794C6.72899 40.5875 6.63612 40.1766 6.66514 39.8733C6.70384 39.4751 7.03469 39.2422 7.43423 39.1698C7.56255 39.1535 7.69203 39.1486 7.82119 39.1551H20.0918C20.1721 39.1551 20.2523 39.1551 20.3326 39.1551C20.9131 39.1894 21.3213 39.6101 21.3088 40.1521C21.3039 40.4076 21.1996 40.6508 21.0184 40.8289C20.8373 41.0069 20.594 41.1055 20.3413 41.1031C19.5365 41.1217 18.7306 41.109 17.9228 41.11L13.9603 41.112Z" fill="white"/>
<path d="M39.68 5.88896C38.4572 5.88896 37.2344 5.88896 36.0116 5.88896C35.3054 5.88896 34.8672 5.51423 34.8604 4.92229C34.8537 4.33035 35.2948 3.93213 35.9894 3.93213C38.4511 3.92822 40.9132 3.92822 43.3755 3.93213C44.0808 3.93213 44.52 4.30687 44.5267 4.89783C44.5335 5.48879 44.0837 5.88896 43.3484 5.88896C42.1256 5.88896 40.9028 5.88896 39.68 5.88896Z" fill="white"/>
<path d="M7.58431 3.93213C7.77719 3.93227 7.96561 3.99072 8.1254 4.09996C8.28519 4.2092 8.40904 4.36426 8.48105 4.54522C8.55307 4.72617 8.56996 4.92477 8.52955 5.11551C8.48915 5.30625 8.3933 5.48041 8.2543 5.61565C8.1153 5.75088 7.93951 5.84101 7.7495 5.87446C7.55948 5.90791 7.36392 5.88315 7.18792 5.80336C7.01192 5.72358 6.86352 5.59241 6.76178 5.42669C6.66003 5.26098 6.60958 5.06829 6.61691 4.87336C6.6283 4.62102 6.735 4.38272 6.91499 4.20759C7.09499 4.03247 7.33456 3.93387 7.58431 3.93213Z" fill="white"/>
<path d="M13.3664 5.8891C13.1762 5.88639 12.991 5.82703 12.834 5.71845C12.677 5.60986 12.5551 5.45687 12.4836 5.27861C12.4121 5.10034 12.3941 4.90471 12.4319 4.71617C12.4698 4.52764 12.5617 4.35457 12.6963 4.2186C12.8309 4.08264 13.0021 3.98981 13.1885 3.95173C13.375 3.91365 13.5684 3.93201 13.7446 4.00451C13.9208 4.07701 14.0719 4.20043 14.1791 4.35934C14.2863 4.51826 14.3448 4.70561 14.3473 4.89797C14.348 5.02839 14.323 5.15765 14.2739 5.27825C14.2249 5.39886 14.1526 5.50842 14.0614 5.6006C13.9702 5.69278 13.8618 5.76574 13.7425 5.81526C13.6232 5.86478 13.4953 5.88988 13.3664 5.8891Z" fill="white"/>
<path d="M31.9329 3.93224C32.1251 3.92797 32.3142 3.98169 32.4761 4.08657C32.6379 4.19144 32.7652 4.34272 32.8417 4.52108C32.9182 4.69944 32.9404 4.89681 32.9056 5.088C32.8707 5.27918 32.7803 5.45553 32.6458 5.59452C32.5114 5.73352 32.3391 5.82886 32.1509 5.86839C31.9627 5.90792 31.7671 5.88984 31.5891 5.81647C31.4111 5.74309 31.2587 5.61773 31.1514 5.4564C31.0442 5.29507 30.9869 5.10507 30.9868 4.91066C30.9892 4.6556 31.089 4.41135 31.2653 4.229C31.4416 4.04664 31.6809 3.94031 31.9329 3.93224Z" fill="white"/>
</svg>
