<svg width="14" height="3" viewBox="0 0 14 3" fill="none" xmlns="http://www.w3.org/2000/svg">
<path d="M1.06591 0.941406L1.29273 1.63947H2.02672L1.43291 2.0709L1.65972 2.76896L1.06591 2.33754L0.472104 2.76896L0.698919 2.0709L0.105109 1.63947H0.839098L1.06591 0.941406Z" fill="#222222"/>
<path d="M3.89453 0.941406L4.12134 1.63947H4.85533L4.26152 2.0709L4.48834 2.76896L3.89453 2.33754L3.30072 2.76896L3.52753 2.0709L2.93372 1.63947H3.66771L3.89453 0.941406Z" fill="#222222"/>
<path d="M6.72326 0.941406L6.95008 1.63947H7.68407L7.09026 2.0709L7.31707 2.76896L6.72326 2.33754L6.12945 2.76896L6.35627 2.0709L5.76246 1.63947H6.49645L6.72326 0.941406Z" fill="#222222"/>
<path d="M9.552 0.941406L9.77881 1.63947H10.5128L9.91899 2.0709L10.1458 2.76896L9.552 2.33754L8.95819 2.76896L9.185 2.0709L8.59119 1.63947H9.32518L9.552 0.941406Z" fill="#222222"/>
<path d="M12.3807 0.941406L12.6075 1.63947H13.3415L12.7477 2.0709L12.9745 2.76896L12.3807 2.33754L11.7869 2.76896L12.0137 2.0709L11.4199 1.63947H12.1539L12.3807 0.941406Z" fill="#222222" fill-opacity="0.5"/>
</svg>
