<svg width="47" height="59" viewBox="0 0 47 59" fill="none" xmlns="http://www.w3.org/2000/svg">
<g clip-path="url(#clip0_105_142)">
<path d="M32.9322 48.3275V46.3666C32.8685 46.3323 32.835 46.298 32.7997 46.2963C31.3524 46.2163 31.3088 46.177 31.0706 44.7635C31.0457 44.6646 31.0338 44.563 31.0354 44.4612C31.1226 43.3173 30.3226 42.9431 29.4002 42.7029C29.2265 42.6868 29.0533 42.7372 28.9172 42.8434C28.4291 43.1931 27.9662 43.5772 27.4832 43.935C26.9382 44.3387 26.5088 44.3272 26.0308 43.8713C25.1772 43.0542 24.3419 42.2372 23.4983 41.4087C23.064 40.9838 23.0153 40.5295 23.3809 40.0376C23.5799 39.7261 23.7995 39.4275 24.0384 39.1438C24.5767 38.5947 24.6422 38.08 24.2849 37.3659C24.0132 36.8184 23.7181 36.5978 23.1311 36.5962C22.6925 36.5791 22.2555 36.5344 21.8229 36.4622C21.142 36.3723 20.8451 36.0733 20.8367 35.4212C20.82 34.2381 20.8367 33.055 20.8367 31.8719C20.8367 31.2902 21.1571 30.9699 21.7256 30.8653C21.9897 30.8009 22.2591 30.7593 22.5306 30.7411C23.5369 30.7411 24.2497 30.3653 24.3956 29.3162C24.4415 29.0635 24.402 28.8032 24.2832 28.5743C23.9814 28.1118 23.5923 27.7049 23.2501 27.267C22.8057 26.6999 22.8208 26.311 23.3239 25.8126C24.1457 24.9966 24.9748 24.1888 25.8111 23.3892C26.3143 22.9071 26.6631 22.8843 27.2585 23.2781C27.7432 23.5967 28.1977 23.9644 28.7042 24.2471C28.9464 24.3502 29.2161 24.3754 29.474 24.319C30.5507 24.1393 30.8744 23.4202 30.8157 22.4512C30.8132 22.4311 30.8132 22.4108 30.8157 22.3907C30.9683 20.8808 31.0958 20.7681 32.6605 20.7681C33.5813 20.7681 34.5054 20.7681 35.4228 20.7681C36.2613 20.7681 36.5347 21.0132 36.6756 21.8237C36.7404 22.0806 36.7824 22.3425 36.8014 22.6065C36.793 23.4627 37.1368 23.9693 38.0408 24.2079C38.497 24.3288 38.7938 24.3713 39.1494 24.0445C39.552 23.6882 39.9753 23.3548 40.4173 23.046C40.8651 22.7192 41.3229 22.7355 41.7221 23.1163C42.6166 23.9693 43.506 24.8332 44.3904 25.708C44.7611 26.0757 44.7879 26.5006 44.4893 26.9303C44.299 27.2477 44.0801 27.5479 43.8353 27.8275C43.2382 28.4272 43.1544 29.0155 43.577 29.7753C43.8034 30.1822 43.9829 30.4143 44.4726 30.429C45.0143 30.447 45.5527 30.5434 46.0927 30.6088C46.683 30.6823 46.9883 31.0156 46.9916 31.5892C46.9983 32.7876 46.9983 33.9908 46.9916 35.199C47.0084 35.4267 46.9344 35.6519 46.7851 35.8278C46.6358 36.0037 46.4226 36.1168 46.19 36.1435C45.5963 36.2595 45.0009 36.387 44.4005 36.4524C44.0131 36.4949 43.8839 36.6893 43.691 36.9965C43.1644 37.8381 43.4059 38.4297 44.0265 39.1209C45.2491 40.5034 45.2005 40.5393 43.8772 41.845C43.2734 42.4398 42.6764 43.0395 42.0625 43.6245C41.5359 44.1278 41.1636 44.1507 40.5531 43.7536C40.3011 43.6082 40.0631 43.4408 39.842 43.2536C39.1863 42.6228 38.5171 42.4888 37.6802 42.9676C37.3448 43.1637 37.1217 43.3222 37.0982 43.7161C37.0697 44.1834 36.9942 44.6491 36.949 45.1149C36.8618 45.9924 36.5683 46.2587 35.681 46.2735H34.8609V47.0317C34.8609 49.6839 34.8609 52.3344 34.8609 54.9866C34.8609 57.4868 33.3146 58.9902 30.7654 58.9902H4.13751C1.58491 58.9902 0.0302097 57.477 0.0268555 54.9964C0.0268555 53.2021 0.0268555 51.4046 0.0268555 49.6038C0.0268555 48.5694 0.29352 48.3096 1.36856 48.3096H32.9322V48.3275ZM41.0378 41.8368L42.663 40.3939C42.2386 39.8644 41.8479 39.3627 41.442 38.8741C41.1267 38.4967 41.1233 38.1192 41.3246 37.6829C41.6428 37.0204 41.9227 36.3412 42.1632 35.6484C42.222 35.4102 42.3576 35.1968 42.5503 35.0394C42.7429 34.882 42.9823 34.789 43.2332 34.7741C43.8487 34.6924 44.4592 34.5748 45.078 34.4735V32.3491C44.4072 32.269 43.7632 32.1857 43.1191 32.1187C42.5892 32.0697 42.3175 31.7821 42.1414 31.3114C41.9013 30.6424 41.6213 29.9877 41.3028 29.3505C41.0546 28.87 41.068 28.4664 41.3867 28.0432C41.7674 27.5366 42.133 27.0202 42.4969 26.5185L40.9338 25.0053C40.4307 25.4024 39.9158 25.7897 39.416 26.1884C39.0118 26.5153 38.6093 26.5153 38.138 26.3028C37.4834 25.9893 36.8077 25.7196 36.1154 25.4956C35.8707 25.4406 35.6503 25.3112 35.486 25.1262C35.3217 24.9411 35.222 24.71 35.2014 24.4661C35.1259 23.9628 35.0504 23.4578 34.933 22.9627C34.9029 22.832 34.7217 22.6457 34.5976 22.6359C33.9788 22.6032 33.3565 22.6195 32.7075 22.6195C32.6203 23.3091 32.5398 23.9268 32.4677 24.556C32.414 25.0674 32.1322 25.3387 31.6392 25.507C30.9516 25.7423 30.2795 26.0184 29.6266 26.3339C29.1369 26.5725 28.7226 26.5659 28.2849 26.2505C27.7683 25.8747 27.235 25.5234 26.7084 25.1606L25.1671 26.6607C25.5478 27.1297 25.9101 27.6052 26.3042 28.0514C26.6983 28.4975 26.7369 28.9616 26.4451 29.5057C26.1287 30.0775 25.8747 30.68 25.687 31.3033C25.5193 31.903 25.1688 32.1938 24.5633 32.2837C23.9579 32.3736 23.3457 32.488 22.7185 32.5958C22.7185 33.1956 22.7403 33.725 22.7185 34.2529C22.6984 34.6352 22.8761 34.7431 23.23 34.7676C23.6879 34.7937 24.144 34.8656 24.6019 34.9032C25.1654 34.949 25.5008 35.2055 25.6853 35.7513C25.9152 36.4061 26.1955 37.0431 26.5239 37.6567C26.7939 38.1731 26.7839 38.6127 26.4233 39.0735C26.0627 39.5343 25.7004 40.054 25.3499 40.5442L26.8895 42.0509C27.3926 41.6603 27.9109 41.2779 28.409 40.8792C28.8115 40.5524 29.214 40.5311 29.687 40.7469C30.3659 41.059 31.0611 41.3361 31.77 41.577C32.2731 41.7404 32.5364 42.0149 32.6085 42.5182C32.7058 43.1555 32.835 43.788 32.944 44.4007H35.136C35.2047 43.7749 35.2785 43.1915 35.3288 42.6032C35.3792 42.0149 35.681 41.6979 36.2513 41.5116C36.9225 41.2907 37.5766 41.0231 38.2085 40.7109C38.6982 40.469 39.1108 40.474 39.5502 40.7942C40.0433 41.1603 40.5632 41.51 41.0378 41.8368ZM1.91531 50.2019C1.91531 51.7919 1.91531 53.3557 1.91531 54.9196C1.91531 56.4835 2.60629 57.1583 4.19789 57.1583H30.6815C30.8073 57.1583 30.9331 57.1583 31.0572 57.1583C32.1758 57.1159 32.9373 56.3854 32.954 55.2889C32.9758 54.0257 32.954 52.7609 32.954 51.4977V50.2019H1.91531Z" fill="white"/>
<path d="M32.9574 8.8158H1.91366V44.3089C1.91366 45.3009 1.62016 45.7551 0.977821 45.7617C0.335478 45.7682 0.0268833 45.3139 0.0268833 44.3286C0.0268833 30.9288 0.0570762 17.5289 5.36854e-05 4.12914C-0.0116863 1.59951 1.9036 -0.0182698 4.21301 -0.00356267C13.0448 0.0552658 21.8749 0.0209482 30.7117 0.0209482C33.3197 0.0209482 34.8542 1.50473 34.8576 4.03762C34.8576 7.05639 34.8576 10.0746 34.8576 13.0923C34.8576 13.1936 34.8576 13.2966 34.8576 13.3979C34.8324 14.0221 34.4803 14.4225 33.9486 14.4372C33.4169 14.4519 32.9826 14.0319 32.9742 13.3864C32.9574 12.102 32.9742 10.816 32.9742 9.53155L32.9574 8.8158ZM32.9323 6.90388C32.9323 5.7077 32.9608 4.54747 32.9138 3.39051C32.9004 3.09474 32.6975 2.77281 32.4996 2.52606C32.0484 1.96229 31.3977 1.85934 30.6983 1.86097C22.2456 1.86751 13.7934 1.86751 5.34172 1.86097C4.81846 1.86097 4.29519 1.84626 3.77361 1.86097C2.83273 1.89692 2.01093 2.52933 1.95224 3.41012C1.87509 4.55401 1.93379 5.71914 1.93379 6.8957L32.9323 6.90388Z" fill="white"/>
<path d="M20.8485 11.7362C20.7445 12.081 20.7059 12.2608 20.6372 12.4274C18.8359 16.8516 17.0364 21.2751 15.2385 25.6982C15.049 26.1639 14.7353 26.4597 14.2054 26.4188C13.5345 26.3665 13.1991 25.7308 13.4792 25.038C14.3026 22.9937 15.1429 20.9527 15.9748 18.9133C16.9374 16.5318 17.9051 14.1504 18.8779 11.7689C19.1479 11.1152 19.589 10.8178 20.1089 11.0499C20.4192 11.1871 20.6338 11.5287 20.8485 11.7362Z" fill="white"/>
<path d="M26.7184 18.7123C25.531 17.5962 24.4543 16.6272 23.4379 15.6075C23.1783 15.3316 23.0414 14.9667 23.0572 14.5927C23.1495 13.8737 24.087 13.6825 24.6756 14.2447C25.6937 15.2137 26.6882 16.2056 27.6828 17.1959C27.9779 17.4868 28.2815 17.7678 28.5582 18.0734C28.9322 18.4868 28.9423 18.9558 28.5582 19.3415C27.25 20.6619 25.924 21.9653 24.5801 23.2519C24.493 23.3424 24.3869 23.4136 24.2691 23.4607C24.1513 23.5078 24.0246 23.5296 23.8973 23.5248C23.7701 23.52 23.6454 23.4887 23.5318 23.4328C23.4181 23.377 23.318 23.2981 23.2383 23.2013C22.8895 22.8222 22.9029 22.3091 23.3356 21.894C24.4107 20.8563 25.5058 19.8481 26.7184 18.7123Z" fill="white"/>
<path d="M8.28837 18.7957L11.2317 21.5574C11.3374 21.6571 11.4431 21.7568 11.5403 21.863C11.9579 22.3222 11.9797 22.8598 11.5974 23.2275C11.215 23.5952 10.6665 23.6066 10.2053 23.1621C9.10513 22.1016 8.02506 21.023 6.93492 19.9494C5.71229 18.7402 5.7123 18.6421 6.92319 17.4541L9.97222 14.4571C10.6263 13.8149 11.1278 13.7218 11.5873 14.1516C12.0468 14.5813 11.9428 15.132 11.2871 15.7775L8.45944 18.5555C8.43093 18.5931 8.4108 18.6323 8.28837 18.7957Z" fill="white"/>
<path d="M33.9485 28.6413C34.9411 28.6462 35.9099 28.9377 36.7324 29.4792C37.5549 30.0206 38.1941 30.7875 38.5692 31.6829C38.9443 32.5784 39.0384 33.5621 38.8396 34.5096C38.6408 35.4572 38.1581 36.326 37.4525 37.0062C36.7469 37.6864 35.8501 38.1475 34.8755 38.331C33.9009 38.5145 32.8924 38.4123 31.9774 38.0373C31.0625 37.6622 30.2823 37.0312 29.7354 36.2241C29.1886 35.417 28.8997 34.4699 28.9054 33.5028C28.9133 32.2068 29.4489 30.9668 30.3945 30.0553C31.3401 29.1438 32.6184 28.6352 33.9485 28.6413ZM34.8542 36.338C36.2143 36.0422 37.1904 34.6107 37.0244 33.2528C36.8214 31.5811 35.4797 30.4372 33.7758 30.4846C33.0165 30.517 32.2953 30.8179 31.7473 31.3311C31.1994 31.8443 30.8622 32.5344 30.7988 33.2724C30.6965 34.7219 31.6592 36.1125 32.9623 36.3298C32.9623 36.039 32.9623 35.7563 32.9623 35.4736C32.9623 34.6173 32.9422 33.7594 32.9791 32.9047C32.9792 32.7816 33.0049 32.6598 33.0545 32.5465C33.104 32.4333 33.1766 32.3309 33.2677 32.2457C33.3588 32.1604 33.4667 32.0939 33.5848 32.0502C33.703 32.0064 33.8289 31.9864 33.9552 31.9912C34.4483 32.0141 34.8072 32.3834 34.8458 32.9227C34.8625 33.1662 34.8542 33.4129 34.8542 33.6564V36.338Z" fill="white"/>
<path d="M17.4858 53.0893C18.8275 53.0893 20.1692 53.0893 21.5109 53.0893C22.2757 53.0893 22.6615 53.4162 22.6598 54.0028C22.6581 54.5895 22.2556 54.9277 21.5109 54.9294C18.8119 54.9359 16.1134 54.9359 13.4154 54.9294C12.6456 54.9294 12.2045 54.5601 12.223 53.9734C12.2431 53.4113 12.6573 53.0926 13.4154 53.0893C14.7672 53.0844 16.1257 53.0893 17.4858 53.0893Z" fill="white"/>
<path d="M19.8573 5.31087C19.0841 5.31087 18.3093 5.32231 17.5361 5.31087C16.9072 5.29943 16.4946 4.92522 16.4946 4.40393C16.4946 3.88265 16.9038 3.48719 17.5328 3.48065C19.0606 3.46104 20.5868 3.46268 22.113 3.48065C22.7839 3.48882 23.1881 3.87448 23.1713 4.43662C23.1545 4.99875 22.7856 5.2978 22.1147 5.30924C21.3634 5.32068 20.6053 5.31087 19.8573 5.31087Z" fill="white"/>
</g>
<defs>
<clipPath id="clip0_105_142">
<rect width="47" height="59" fill="white"/>
</clipPath>
</defs>
</svg>
