<svg width="27" height="21" viewBox="0 0 27 21" fill="none" xmlns="http://www.w3.org/2000/svg">
<path d="M2.88325 21C2.1763 21 1.57088 20.7427 1.06702 20.2282C0.56315 19.7137 0.311645 19.096 0.312502 18.375V2.625C0.312502 1.90313 0.564436 1.28494 1.0683 0.770439C1.57217 0.255939 2.17715 -0.000872771 2.88325 2.22835e-06H23.4492C24.1562 2.22835e-06 24.7616 0.257252 25.2655 0.771752C25.7694 1.28625 26.0209 1.904 26.02 2.625V18.375C26.02 19.0969 25.7681 19.7151 25.2642 20.2296C24.7603 20.7441 24.1553 21.0009 23.4492 21H2.88325ZM13.1663 11.8125L2.88325 5.25V18.375H23.4492V5.25L13.1663 11.8125ZM13.1663 9.1875L23.4492 2.625H2.88325L13.1663 9.1875ZM2.88325 5.25V2.625V18.375V5.25Z" fill="white"/>
</svg>
