<svg width="18" height="17" viewBox="0 0 18 17" fill="none" xmlns="http://www.w3.org/2000/svg">
<path d="M17.5801 15.0341C17.4941 15.2975 17.4442 15.5807 17.3221 15.8206C16.9524 16.5363 16.3767 16.9499 15.6089 16.9817C14.8781 17.0115 14.1472 16.9881 13.4043 16.9881V15.5296H13.593C14.1876 15.5296 14.7822 15.5296 15.3768 15.5296C15.9283 15.5296 16.2065 15.2267 16.2069 14.6352C16.2069 13.9393 16.2069 13.2429 16.2069 12.5029H17.5801V15.0341Z" fill="white"/>
<path d="M17.58 4.50098L16.5542 4.48305C16.4463 4.48305 16.3393 4.48305 16.2069 4.48305V4.27575C16.2069 3.63991 16.2069 3.00452 16.2069 2.36959C16.2069 1.79228 15.9085 1.47512 15.3677 1.47374C14.7791 1.47374 14.1906 1.47374 13.6016 1.47374H13.4038V0.0051698H13.731C14.3539 0.00792768 14.9777 -0.00907842 15.5994 0.0189601C16.5706 0.0649248 17.387 0.862412 17.5469 1.88559C17.5556 1.92626 17.5667 1.96633 17.58 2.00555V4.50098Z" fill="white"/>
<path d="M17.5799 10.7401C17.238 10.734 16.8962 10.7282 16.5546 10.7226C16.4471 10.7226 16.3396 10.7226 16.2192 10.7226V6.29946H17.5799V10.7401Z" fill="white"/>
<path d="M4.18808 15.5296V16.9757C4.16708 16.9854 4.14496 16.992 4.1223 16.9954C3.39617 16.9954 2.66961 17.0125 1.94477 16.9807C0.905665 16.9348 0.0389529 15.9805 0.0101485 14.8664C-0.00876783 14.1153 0.00455937 13.3629 0.00455937 12.6113C0.00640862 12.5849 0.00985474 12.5587 0.014877 12.5327H1.37685C1.37685 13.2401 1.37685 13.936 1.37685 14.6324C1.3738 14.7247 1.37913 14.817 1.39276 14.9082C1.46627 15.2989 1.75002 15.5287 2.16919 15.5319C2.77494 15.5361 3.38112 15.5319 3.98688 15.5319L4.18808 15.5296Z" fill="white"/>
<path d="M1.37797 4.47236H0.00481924C0.00481924 4.01271 -0.00162951 3.5595 0.00481924 3.10859C0.0129877 2.67008 -0.0158165 2.22055 0.0641479 1.79538C0.26062 0.74876 1.04866 0.0556124 2.05552 0.0147038C2.73479 -0.012875 3.41578 0.00689014 4.09591 0.00643049C4.12557 0.00908326 4.15503 0.013999 4.18404 0.0211395V1.47362H3.99445C3.4003 1.47362 2.80573 1.47362 2.21158 1.47362C1.67204 1.47362 1.37754 1.79538 1.37625 2.37361C1.37625 3.00333 1.37625 3.63274 1.37625 4.26184L1.37797 4.47236Z" fill="white"/>
<path d="M6.0166 1.45983V0.0197544H11.4924V1.45983H6.0166Z" fill="white"/>
<path d="M11.4996 15.5439V16.9835H6.02246V15.5439H11.4996Z" fill="white"/>
<path d="M1.37135 10.7111H0.0136719V6.32841H1.3735L1.37135 10.7111Z" fill="white"/>
</svg>
