<svg width="11" height="12" viewBox="0 0 11 12" fill="none" xmlns="http://www.w3.org/2000/svg">
<path d="M3.07642 8.93312L8.68869 7.05723L7.7654 4.23174C7.25096 2.65742 5.57755 1.80104 4.02776 2.31905C2.47798 2.83707 1.63869 4.53332 2.15313 6.10763L3.07642 8.93312ZM3.76279 1.50818C5.75515 0.842237 7.90632 1.94143 8.56715 3.96375L9.75541 7.60012L2.53964 10.012L1.35138 6.37562C0.690544 4.35329 1.77044 2.17412 3.76279 1.50818ZM5.27782 9.54647L7.2822 8.87651C7.37004 9.14533 7.3487 9.43843 7.22287 9.69134C7.09703 9.94425 6.87702 10.1362 6.61122 10.2251C6.34542 10.3139 6.05562 10.2923 5.80556 10.1651C5.55549 10.0378 5.36566 9.81529 5.27782 9.54647Z" fill="white"/>
</svg>
