<svg width="17" height="17" viewBox="0 0 17 17" fill="none" xmlns="http://www.w3.org/2000/svg">
<path d="M17 8.70006C16.961 8.8265 16.9352 8.95871 16.8807 9.07761C16.6043 9.68009 16.1293 9.99198 15.4665 9.99375C13.7118 9.99863 11.9574 9.99375 10.2026 9.99375H9.99146V10.2045C9.99146 11.9645 9.99412 13.7249 9.99146 15.484C9.99146 16.3127 9.36069 16.9715 8.56048 16.9986C8.35788 17.0074 8.15563 16.9747 7.96609 16.9026C7.77655 16.8305 7.60371 16.7205 7.45814 16.5793C7.31257 16.4381 7.19733 16.2687 7.11946 16.0814C7.0416 15.8942 7.00275 15.693 7.00529 15.4902C7.00085 13.7298 7.00529 11.9698 7.00529 10.2107V9.99198H6.80257C5.04245 9.99198 3.28293 9.99198 1.52399 9.99198C0.69361 9.99198 0.0313487 9.36598 0.00162899 8.56829C-0.00781417 8.36647 0.0238727 8.16484 0.0947632 7.97565C0.165654 7.78646 0.274266 7.61367 0.414002 7.46777C0.553738 7.32187 0.721677 7.20591 0.907613 7.12694C1.09355 7.04797 1.2936 7.00764 1.4956 7.0084C2.76867 7.00264 4.04174 7.0084 5.31481 7.0084H7.00352V6.79545C7.00352 5.07999 7.00352 3.36453 7.00352 1.64906C7.00352 0.751107 7.39653 0.24401 8.26993 0.016415C8.28022 0.0122338 8.28992 0.00671477 8.29876 0H8.69799C8.70671 0.0068981 8.71643 0.0124325 8.72682 0.016415C9.59224 0.234693 9.99146 0.748889 9.99146 1.64773V7.0084H15.467C16.0099 7.0084 16.4504 7.22358 16.7441 7.68054C16.8634 7.86643 16.9166 8.09447 17 8.30165V8.70006Z" fill="white"/>
</svg>
