<svg width="17" height="18" viewBox="0 0 17 18" fill="none" xmlns="http://www.w3.org/2000/svg">
<path d="M17 16.1209L12.2513 11.3722C13.3925 10.0023 13.9615 8.2451 13.8401 6.46628C13.7187 4.68745 12.9161 3.02392 11.5994 1.82174C10.2827 0.619559 8.55321 -0.02871 6.77071 0.0117918C4.9882 0.0522936 3.28994 0.778447 2.02919 2.03919C0.768445 3.29994 0.0422915 4.99821 0.00178967 6.78071C-0.0387122 8.56321 0.609556 10.2927 1.81174 11.6094C3.01392 12.9261 4.67745 13.7287 6.45627 13.8501C8.2351 13.9715 9.99226 13.4025 11.3622 12.2613L16.1109 17.01L17 16.1209ZM1.28008 6.94925C1.28008 5.82997 1.61198 4.73583 2.23382 3.80519C2.85566 2.87454 3.7395 2.14919 4.77358 1.72086C5.80766 1.29253 6.94553 1.18046 8.0433 1.39882C9.14107 1.61718 10.1494 2.15617 10.9409 2.94761C11.7323 3.73906 12.2713 4.74743 12.4897 5.8452C12.708 6.94298 12.596 8.08085 12.1676 9.11492C11.7393 10.149 11.014 11.0328 10.0833 11.6547C9.15267 12.2765 8.05853 12.6084 6.93925 12.6084C5.43886 12.6068 4.00039 12.01 2.93945 10.9491C1.87851 9.88811 1.28174 8.44965 1.28008 6.94925Z" fill="white"/>
</svg>
