<svg width="17" height="18" viewBox="0 0 17 18" fill="none" xmlns="http://www.w3.org/2000/svg">
<path d="M3.42027 0.00443638C3.501 0.0594441 3.59503 0.10203 3.66023 0.171677C3.72746 0.23896 3.77211 0.325483 3.78801 0.419267C3.8039 0.513051 3.79025 0.609457 3.74894 0.695138C3.66023 0.898756 3.49745 0.999012 3.27833 0.999899C2.59216 0.999899 1.90643 0.999899 1.2207 0.999899H0.996261V1.17734C0.996261 1.87426 0.998923 2.57161 0.996261 3.26852C0.994044 3.66999 0.613476 3.91398 0.271941 3.73653C0.190811 3.69876 0.122323 3.63834 0.0747159 3.56255C0.0271088 3.48676 0.00241112 3.39883 0.00359314 3.30934C-0.000546672 2.36888 -0.000546672 1.42843 0.00359314 0.487972C0.00359314 0.240437 0.168151 0.106023 0.366862 0L3.42027 0.00443638Z" fill="white"/>
<path d="M16.9997 3.42486C16.9452 3.50559 16.9026 3.59964 16.8329 3.66485C16.7657 3.732 16.6793 3.7766 16.5856 3.79249C16.4919 3.80838 16.3956 3.79478 16.31 3.75357C16.106 3.66485 16.0053 3.50293 16.0044 3.28335C16.0044 2.58688 16.0044 1.88996 16.0044 1.1935V0.999637H13.8527C13.4899 0.999637 13.2965 0.886074 13.2255 0.631885C13.1546 0.377696 13.2699 0.174522 13.5804 0.00328827H16.6351C16.7956 0.0787997 16.9247 0.207911 17.0002 0.36838L16.9997 3.42486Z" fill="white"/>
<path d="M16.9996 16.6398C16.8665 16.9277 16.6394 17.0147 16.3307 17.0098C15.468 16.9961 14.6049 17.0058 13.7421 17.0045C13.4507 17.0045 13.2369 16.8217 13.2125 16.5609C13.1833 16.2503 13.4055 16.0108 13.7333 16.0095C14.4248 16.0068 15.1163 16.0095 15.8078 16.0095H16.0034V13.8588C16.0034 13.4893 16.1249 13.2892 16.387 13.2267C16.6345 13.1672 16.8306 13.2821 16.9996 13.5856V16.6398Z" fill="white"/>
<path d="M16.9996 0.369534C16.9241 0.209065 16.795 0.0799536 16.6345 0.00444221H16.9996V0.369534Z" fill="white"/>
<path d="M8.50645 2.92917H13.5186C13.8504 2.92917 13.9351 3.01212 13.9355 3.33817C13.9355 4.30081 13.9355 5.26359 13.9355 6.22652C13.9355 6.55879 13.8526 6.64307 13.527 6.64307C13.0953 6.64307 12.6637 6.64307 12.2323 6.64307C11.9613 6.64307 11.865 6.54637 11.8637 6.27133C11.8637 5.9608 11.8637 5.65027 11.8637 5.34196C11.8615 5.09798 11.7648 4.99905 11.5195 4.99772C10.9716 4.99506 10.4238 4.99506 9.87614 4.99772C9.63529 4.99772 9.53283 5.10419 9.53283 5.34507C9.53283 7.89613 9.53283 10.4472 9.53283 12.9982C9.53283 13.2356 9.63795 13.3376 9.88102 13.3412C10.1028 13.3447 10.3246 13.3412 10.5463 13.3412C10.7681 13.3412 10.8693 13.441 10.871 13.6676C10.8746 14.1379 10.8746 14.6082 10.871 15.0788C10.871 15.3006 10.7655 15.4062 10.545 15.4066C9.18479 15.4084 7.82368 15.4084 6.46168 15.4066C6.23991 15.4066 6.1339 15.3037 6.13257 15.0819C6.12872 14.606 6.12872 14.1302 6.13257 13.6543C6.13478 13.4396 6.23547 13.3438 6.45326 13.3438C6.67991 13.3403 6.90701 13.3438 7.13366 13.3416C7.36032 13.3394 7.46899 13.232 7.46899 13.0022C7.46899 10.4459 7.46899 7.88918 7.46899 5.3322C7.46899 5.1104 7.3652 5.00083 7.14564 4.99861C6.58144 4.99417 6.0171 4.99417 5.4526 4.99861C5.23926 4.99861 5.14212 5.10641 5.13901 5.32156C5.13502 5.64229 5.13901 5.96346 5.13901 6.28464C5.13901 6.54504 5.03611 6.64219 4.77308 6.64263C4.3251 6.64263 3.87696 6.64263 3.42868 6.64263C3.16787 6.64263 3.06807 6.5437 3.06763 6.27976C3.06763 5.28932 3.06763 4.29859 3.06763 3.30756C3.06763 3.0241 3.16343 2.92917 3.44731 2.92872L8.50645 2.92917Z" fill="white"/>
<path d="M0.996217 16.0099H1.36303C2.00441 16.0099 2.64578 16.0068 3.2876 16.0099C3.35406 16.0079 3.42024 16.0193 3.48222 16.0434C3.5442 16.0674 3.60072 16.1037 3.64843 16.15C3.69614 16.1963 3.73407 16.2517 3.75997 16.313C3.78588 16.3742 3.79922 16.44 3.79922 16.5065C3.79922 16.573 3.78588 16.6388 3.75997 16.7001C3.73407 16.7613 3.69614 16.8168 3.64843 16.8631C3.60072 16.9094 3.5442 16.9456 3.48222 16.9697C3.42024 16.9938 3.35406 17.0051 3.2876 17.0032C2.35821 17.0067 1.42912 17.0067 0.500326 17.0032C0.434909 17.0044 0.36991 16.9925 0.309192 16.9681C0.248474 16.9437 0.193278 16.9074 0.14689 16.8612C0.100501 16.8151 0.0638663 16.7601 0.0391651 16.6995C0.0144638 16.6389 0.00220061 16.574 0.00310486 16.5085C-0.00103495 15.574 -0.00103495 14.6393 0.00310486 13.7045C0.00802218 13.5753 0.0630964 13.4532 0.156623 13.364C0.25015 13.2749 0.374756 13.2257 0.50396 13.227C0.633164 13.2283 0.756778 13.2799 0.848534 13.3708C0.940289 13.4618 0.992952 13.585 0.995329 13.7142C0.999765 14.4111 0.995329 15.108 0.995329 15.805L0.996217 16.0099Z" fill="white"/>
</svg>
