<svg width="17" height="24" viewBox="0 0 17 24" fill="none" xmlns="http://www.w3.org/2000/svg">
<path d="M13.6976 11.5807L1.20395 1.48005C1.10109 1.39866 1.01976 1.30202 0.964691 1.19573C0.909616 1.08944 0.881883 0.975619 0.883095 0.860844C0.884307 0.74607 0.914439 0.632624 0.971751 0.527072C1.02906 0.42152 1.11241 0.325957 1.21698 0.245913C1.32155 0.16587 1.44526 0.102935 1.58095 0.0607516C1.71663 0.0185679 1.86161 -0.00202757 2.00748 0.000157283C2.15336 0.00234213 2.29723 0.0272639 2.43078 0.0734802C2.56433 0.119697 2.6849 0.18629 2.78552 0.269407L16.0266 10.9754C16.227 11.1375 16.3392 11.3547 16.3392 11.5807C16.3392 11.8068 16.227 12.024 16.0266 12.1861L2.78552 22.8921C2.6849 22.9752 2.56433 23.0418 2.43078 23.088C2.29723 23.1342 2.15336 23.1592 2.00748 23.1613C1.86161 23.1635 1.71663 23.1429 1.58095 23.1007C1.44526 23.0586 1.32155 22.9956 1.21698 22.9156C1.11241 22.8355 1.02906 22.74 0.971751 22.6344C0.914439 22.5289 0.884306 22.4154 0.883094 22.3007C0.881882 22.1859 0.909616 22.0721 0.96469 21.9658C1.01976 21.8595 1.10109 21.7628 1.20395 21.6814L13.6976 11.5807Z" fill="white"/>
</svg>
