<svg width="12" height="7" viewBox="0 0 12 7" fill="none" xmlns="http://www.w3.org/2000/svg">
<path d="M10.9965 1.06555C11.08 1.20582 11.1064 1.37611 11.0699 1.53902C11.0335 1.70193 10.9371 1.84414 10.8021 1.9344L3.83276 6.5862C3.69761 6.67628 3.53486 6.70701 3.38025 6.67162C3.22565 6.63623 3.09184 6.53763 3.00821 6.39747L1.07621 3.1549C0.999302 3.01472 0.977705 2.84774 1.01596 2.68906C1.05421 2.53039 1.14933 2.39236 1.28132 2.30401C1.41353 2.21601 1.5722 2.18464 1.72397 2.21649C1.87574 2.24833 2.00879 2.34092 2.09517 2.47478L3.71211 5.18856L10.172 0.87682C10.3071 0.786734 10.4699 0.756011 10.6245 0.791397C10.7791 0.826783 10.9129 0.925385 10.9965 1.06555Z" fill="white"/>
</svg>
