<svg width="8" height="12" viewBox="0 0 8 12" fill="none" xmlns="http://www.w3.org/2000/svg">
<path d="M4.93119 11.7743C4.75979 11.8977 4.55492 11.9422 4.3616 11.8979C4.16828 11.8537 4.00231 11.7243 3.90015 11.5383L0.813947 5.90988C0.712 5.72368 0.682258 5.49611 0.731253 5.27715C0.780249 5.05818 0.903976 4.86574 1.07526 4.74208L6.25687 1.00606C6.42788 0.891857 6.62857 0.854287 6.81675 0.901246C7.00494 0.948205 7.16595 1.07604 7.26597 1.25787C7.36554 1.44002 7.39623 1.66182 7.35159 1.87665C7.30696 2.09147 7.19046 2.2826 7.0266 2.40985L2.49117 5.67996L5.1925 10.6065C5.29445 10.7927 5.32419 11.0202 5.2752 11.2392C5.2262 11.4582 5.10247 11.6506 4.93119 11.7743Z" fill="white"/>
</svg>
