<svg width="16" height="24" viewBox="0 0 16 24" fill="none" xmlns="http://www.w3.org/2000/svg">
<path d="M12.7036 11.5807L0.350485 1.48005C0.24878 1.39866 0.168373 1.30202 0.113919 1.19573C0.0594639 1.08944 0.0320424 0.975619 0.0332408 0.860844C0.0344392 0.74607 0.0642329 0.632624 0.1209 0.527072C0.177566 0.42152 0.25998 0.325957 0.363372 0.245913C0.466763 0.16587 0.589078 0.102935 0.723241 0.0607516C0.857403 0.0185679 1.00075 -0.00202757 1.14498 0.000157283C1.28921 0.00234213 1.43147 0.0272639 1.56352 0.0734802C1.69556 0.119697 1.81478 0.18629 1.91427 0.269407L15.0064 10.9754C15.2045 11.1375 15.3154 11.3547 15.3154 11.5807C15.3154 11.8068 15.2045 12.024 15.0064 12.1861L1.91427 22.8921C1.81478 22.9752 1.69556 23.0418 1.56352 23.088C1.43147 23.1342 1.28921 23.1592 1.14498 23.1613C1.00075 23.1635 0.857403 23.1429 0.72324 23.1007C0.589078 23.0586 0.466763 22.9956 0.363371 22.9156C0.25998 22.8355 0.177566 22.74 0.120899 22.6344C0.0642326 22.5289 0.0344389 22.4154 0.0332405 22.3007C0.0320421 22.1859 0.0594637 22.0721 0.113918 21.9658C0.168373 21.8595 0.248779 21.7628 0.350485 21.6814L12.7036 11.5807Z" fill="white"/>
</svg>
