<svg width="13" height="13" viewBox="0 0 13 13" fill="none" xmlns="http://www.w3.org/2000/svg">
<path fill-rule="evenodd" clip-rule="evenodd" d="M0.667179 8.68842C0.170172 7.16745 0.290925 5.5091 1.00287 4.07818C1.71482 2.64726 2.95965 1.56099 4.4635 1.05833C5.96735 0.555664 7.60705 0.677791 9.02187 1.39784C10.4367 2.11789 11.5107 3.37688 12.0078 4.89784C12.5048 6.41881 12.384 8.07716 11.6721 9.50808C10.9601 10.939 9.71529 12.0253 8.21143 12.5279C6.70758 13.0306 5.06788 12.9085 3.65306 12.1884C2.23824 11.4684 1.16419 10.2094 0.667179 8.68842ZM6.81594 9.35579L8.73176 4.13707L7.98613 3.85705L6.35202 8.30562L3.83732 7.30311L3.54535 8.05209L6.81619 9.35655L6.81594 9.35579Z" fill="#64FFA6"/>
</svg>
