<svg width="23" height="9" viewBox="0 0 23 9" fill="none" xmlns="http://www.w3.org/2000/svg">
<path d="M22.8286 0.847656L6.56871 7.7401C5.22036 8.30802 4.08777 8.5929 3.17189 8.5929C2.13469 8.5929 1.3818 8.23149 0.915062 7.50777C0.621498 7.04311 0.535374 6.45399 0.655763 5.73948C0.776152 5.02498 1.09657 4.26438 1.61517 3.45491C2.04764 2.80033 2.75609 1.94016 3.74235 0.873471C3.40782 1.39775 3.16251 1.9734 3.01631 2.57722C2.75701 3.67894 2.99038 4.48749 3.71642 5.00377C4.06184 5.2444 4.53692 5.36517 5.14257 5.36517C5.62597 5.36517 6.1705 5.28773 6.77615 5.13285L22.8286 0.847656Z" fill="black"/>
</svg>
