<svg width="7" height="7" viewBox="0 0 7 7" fill="none" xmlns="http://www.w3.org/2000/svg">
<path d="M6.7501 0.676476L6.92329 0.809642C6.94919 0.771932 6.96413 0.727075 6.96615 0.680873C6.96818 0.634672 6.9572 0.589253 6.93465 0.550493C6.91209 0.511732 6.879 0.481415 6.83964 0.463464C6.80029 0.445512 6.75648 0.440752 6.7139 0.4498L6.7501 0.676476ZM0.267023 2.04115L0.230816 1.81447C0.191559 1.82269 0.154903 1.8423 0.124901 1.87114C0.0948993 1.89997 0.0727201 1.93691 0.0608157 1.97786C0.0489114 2.01882 0.0477457 2.0622 0.0574476 2.1032C0.0671495 2.1442 0.087341 2.18124 0.11579 2.2102L0.267023 2.04115ZM2.8167 6.42279L2.61065 6.49764C2.6225 6.53794 2.64464 6.57364 2.6746 6.60081C2.70457 6.62798 2.74121 6.64555 2.78045 6.65159C2.8197 6.65762 2.86004 6.65188 2.897 6.63501C2.93396 6.61813 2.9661 6.59077 2.98988 6.55596L2.8167 6.42279ZM6.7139 0.4498L0.230816 1.81447L0.303231 2.26782L6.78631 0.903151L6.7139 0.4498ZM0.11579 2.2102L1.91135 4.04593L2.21382 3.70781L0.418156 1.87254L0.11579 2.2102ZM1.85621 3.95117L2.61023 6.49754L3.02233 6.34784L2.26832 3.80147L1.85621 3.95117ZM2.98946 6.55586L6.92287 0.809546L6.5765 0.543213L2.64309 6.28953L2.98946 6.55586ZM6.63718 0.48304L1.94976 3.68298L2.17551 4.07031L6.86293 0.870363L6.63728 0.482588L6.63718 0.48304Z" fill="white"/>
</svg>
