<svg width="11" height="12" viewBox="0 0 11 12" fill="none" xmlns="http://www.w3.org/2000/svg">
<path d="M7.03494 9.9605L6.94442 10.365C6.8484 10.7942 6.57793 11.1649 6.19253 11.3957C5.80713 11.6265 5.33837 11.6984 4.88935 11.5956C4.44034 11.4928 4.04787 11.2238 3.79827 10.8477C3.54867 10.4715 3.46239 10.0192 3.55842 9.59002L3.64893 9.1855M10.0677 9.78902C9.56617 8.83891 9.17709 8.32461 9.66729 6.13389C10.1162 4.12772 9.20425 3.16765 8.39971 2.61859C8.29282 2.54576 8.20615 2.41483 8.19618 2.29162C8.15407 1.75282 7.81946 1.21007 7.24279 1.07808C6.66611 0.946086 6.13272 1.29044 5.86687 1.75901C5.80513 1.86713 5.67157 1.9458 5.54409 1.96499C4.58303 2.11046 3.35284 2.57757 2.90348 4.58576C2.41195 6.77618 1.84184 7.07093 0.984715 7.71008C0.629595 7.97483 0.765539 8.52553 1.25783 8.63821L9.42869 10.5084C9.91834 10.6205 10.2742 10.1807 10.0677 9.78902Z" stroke="white" stroke-width="0.681693" stroke-linecap="round" stroke-linejoin="round"/>
</svg>
